<svg width="43" height="40" viewBox="0 0 43 40" fill="none" xmlns="http://www.w3.org/2000/svg">
<mask id="path-1-inside-1_5728_41496" fill="white">
<path d="M30.5514 0.296942C30.5471 0.460079 30.1724 0.665262 30.0086 0.737452C27.9245 1.65755 25.8548 2.61593 23.7415 3.46125C22.2288 4.06619 20.6252 3.96257 19.1324 3.41196C13.3062 1.26322 7.87913 3.64224 5.019 7.63737C2.19754 11.5786 1.65271 15.9146 3.77109 20.3317C6.03755 25.0574 9.90478 27.4504 15.0966 27.4493C16.2485 27.449 17.4002 27.1187 18.8176 26.8993C17.849 25.8278 17.1033 25.0031 16.3578 24.1782C16.2891 24.1023 16.1589 24.0448 16.1153 23.9486C16.0128 23.7223 16.9542 23.9544 17.0447 23.9776C17.5706 24.1116 18.0546 24.3578 18.5738 24.5029C19.0505 24.6475 19.5264 24.7807 20.0159 24.8733C21.1209 25.0828 22.2547 25.1292 23.3727 25.0114C23.508 24.9971 23.6429 24.9806 23.7776 24.9616C25.8042 24.6757 27.7341 23.9025 29.539 22.9444C30.9254 22.2085 32.3657 21.5583 33.8282 20.9943C36.0997 20.1183 38.3648 20.4342 40.5919 21.2697C41.2707 21.5243 41.4353 21.879 41.0345 22.5647C40.3295 23.7708 40.3557 23.8274 39.0299 23.5391C36.475 22.9836 34.1063 23.587 31.7859 24.6235C29.6227 25.5898 27.5221 26.8472 25.258 27.3948C22.7443 28.0027 20.4265 29.1658 17.9203 29.6968C13.2402 30.6885 9.00517 29.6403 5.28435 26.5659C-0.715768 21.6081 -1.9222 11.9722 3.30361 5.57751C6.9495 1.116 11.7209 -0.686932 17.4037 0.316734C18.4432 0.500313 19.4714 0.825296 20.4603 1.205C21.1577 1.47267 21.7707 1.47979 22.4195 1.1561C24.3861 0.174814 26.5814 -0.0497761 28.7448 0.00662994C29.2715 0.0203438 29.8162 0.000680923 30.3309 0.129793C30.4929 0.170546 30.5532 0.230185 30.5514 0.296942Z"/>
</mask>
<path d="M30.5514 0.296942C30.5471 0.460079 30.1724 0.665262 30.0086 0.737452C27.9245 1.65755 25.8548 2.61593 23.7415 3.46125C22.2288 4.06619 20.6252 3.96257 19.1324 3.41196C13.3062 1.26322 7.87913 3.64224 5.019 7.63737C2.19754 11.5786 1.65271 15.9146 3.77109 20.3317C6.03755 25.0574 9.90478 27.4504 15.0966 27.4493C16.2485 27.449 17.4002 27.1187 18.8176 26.8993C17.849 25.8278 17.1033 25.0031 16.3578 24.1782C16.2891 24.1023 16.1589 24.0448 16.1153 23.9486C16.0128 23.7223 16.9542 23.9544 17.0447 23.9776C17.5706 24.1116 18.0546 24.3578 18.5738 24.5029C19.0505 24.6475 19.5264 24.7807 20.0159 24.8733C21.1209 25.0828 22.2547 25.1292 23.3727 25.0114C23.508 24.9971 23.6429 24.9806 23.7776 24.9616C25.8042 24.6757 27.7341 23.9025 29.539 22.9444C30.9254 22.2085 32.3657 21.5583 33.8282 20.9943C36.0997 20.1183 38.3648 20.4342 40.5919 21.2697C41.2707 21.5243 41.4353 21.879 41.0345 22.5647C40.3295 23.7708 40.3557 23.8274 39.0299 23.5391C36.475 22.9836 34.1063 23.587 31.7859 24.6235C29.6227 25.5898 27.5221 26.8472 25.258 27.3948C22.7443 28.0027 20.4265 29.1658 17.9203 29.6968C13.2402 30.6885 9.00517 29.6403 5.28435 26.5659C-0.715768 21.6081 -1.9222 11.9722 3.30361 5.57751C6.9495 1.116 11.7209 -0.686932 17.4037 0.316734C18.4432 0.500313 19.4714 0.825296 20.4603 1.205C21.1577 1.47267 21.7707 1.47979 22.4195 1.1561C24.3861 0.174814 26.5814 -0.0497761 28.7448 0.00662994C29.2715 0.0203438 29.8162 0.000680923 30.3309 0.129793C30.4929 0.170546 30.5532 0.230185 30.5514 0.296942Z" fill="black"/>
<path d="M30.5514 0.296942L29.2186 0.261604L29.2186 0.261383L30.5514 0.296942ZM30.0086 0.737452L29.4702 -0.482307L29.4707 -0.482542L30.0086 0.737452ZM23.7415 3.46125L24.2367 4.69922L24.2366 4.69926L23.7415 3.46125ZM19.1324 3.41196L19.5938 2.16099L19.5938 2.16101L19.1324 3.41196ZM5.019 7.63737L3.93484 6.86124L3.93485 6.86123L5.019 7.63737ZM3.77109 20.3317L2.56888 20.9083L2.56887 20.9083L3.77109 20.3317ZM15.0966 27.4493L15.0969 28.7826H15.0969L15.0966 27.4493ZM18.8176 26.8993L19.8067 26.0052L21.4642 27.8388L19.0216 28.2169L18.8176 26.8993ZM16.3578 24.1782L17.3466 23.2838L17.3469 23.2842L16.3578 24.1782ZM16.1153 23.9486L14.9009 24.4991L14.9008 24.4989L16.1153 23.9486ZM17.0447 23.9776L16.7154 25.2696L16.714 25.2692L17.0447 23.9776ZM18.5738 24.5029L18.9328 23.2188L18.9468 23.2228L18.9607 23.227L18.5738 24.5029ZM20.0159 24.8733L20.2638 23.5633L20.2642 23.5633L20.0159 24.8733ZM23.3727 25.0114L23.233 23.6854L23.2332 23.6854L23.3727 25.0114ZM23.7776 24.9616L23.5913 23.6413L23.5914 23.6413L23.7776 24.9616ZM29.539 22.9444L28.9138 21.7667L28.9139 21.7667L29.539 22.9444ZM33.8282 20.9943L33.3484 19.7502L33.3484 19.7502L33.8282 20.9943ZM40.5919 21.2697L40.1237 22.5181L40.1236 22.5181L40.5919 21.2697ZM41.0345 22.5647L39.8834 21.8919L39.8834 21.8918L41.0345 22.5647ZM39.0299 23.5391L38.7467 24.842L38.7467 24.842L39.0299 23.5391ZM31.7859 24.6235L32.3297 25.8409L32.3297 25.8409L31.7859 24.6235ZM25.258 27.3948L25.5714 28.6908L25.5714 28.6908L25.258 27.3948ZM17.9203 29.6968L18.1966 31.0012L18.1966 31.0012L17.9203 29.6968ZM5.28435 26.5659L4.43507 27.5938L4.43506 27.5938L5.28435 26.5659ZM3.30361 5.57751L4.33605 6.42122L4.33604 6.42123L3.30361 5.57751ZM17.4037 0.316734L17.1718 1.62975L17.1718 1.62975L17.4037 0.316734ZM20.4603 1.205L19.9825 2.44979L19.9824 2.44973L20.4603 1.205ZM22.4195 1.1561L23.0148 2.34916L23.0147 2.34918L22.4195 1.1561ZM28.7448 0.00662994L28.7101 1.33951L28.7101 1.33951L28.7448 0.00662994ZM30.3309 0.129793L30.6553 -1.16347L30.656 -1.16328L30.3309 0.129793ZM31.8843 0.332277C31.8706 0.848255 31.591 1.18976 31.4866 1.30776C31.3519 1.46008 31.2068 1.57158 31.1072 1.6417C30.9033 1.78517 30.6872 1.89545 30.5466 1.95745L29.4707 -0.482542C29.4707 -0.482536 29.4722 -0.483227 29.4753 -0.484661C29.4783 -0.486073 29.4823 -0.487978 29.4871 -0.490358C29.4969 -0.495205 29.5084 -0.501186 29.5207 -0.50791C29.5477 -0.522715 29.5657 -0.534309 29.5725 -0.539101C29.5875 -0.549692 29.5472 -0.524588 29.4891 -0.458874C29.4583 -0.424049 29.4015 -0.354395 29.3477 -0.249767C29.294 -0.145195 29.2247 0.0307865 29.2186 0.261604L31.8843 0.332277ZM30.5471 1.95721C28.4922 2.8644 26.3791 3.84227 24.2367 4.69922L23.2463 2.22328C25.3306 1.3896 27.3568 0.450689 29.4702 -0.482307L30.5471 1.95721ZM24.2366 4.69926C22.3535 5.4523 20.4017 5.30128 18.671 4.66291L19.5938 2.16101C20.8487 2.62385 22.104 2.68009 23.2464 2.22324L24.2366 4.69926ZM18.671 4.66293C13.4655 2.7431 8.65069 4.85502 6.10315 8.41352L3.93485 6.86123C7.10757 2.42946 13.1469 -0.216656 19.5938 2.16099L18.671 4.66293ZM6.10315 8.41351C3.54315 11.9895 3.08099 15.8094 4.97332 19.7552L2.56887 20.9083C0.224429 16.0198 0.851925 11.1676 3.93484 6.86124L6.10315 8.41351ZM4.97331 19.7551C6.01425 21.9256 7.39008 23.4974 9.04431 24.5329C10.6991 25.5688 12.7099 26.1165 15.0963 26.1159L15.0969 28.7826C12.2915 28.7832 9.77274 28.135 7.62937 26.7932C5.48541 25.4511 3.79439 23.4636 2.56888 20.9083L4.97331 19.7551ZM15.0963 26.1159C15.5509 26.1158 16.033 26.0505 16.6205 25.9444C17.17 25.8451 17.8886 25.6939 18.6136 25.5817L19.0216 28.2169C18.3292 28.3241 17.7632 28.4478 17.0946 28.5686C16.4639 28.6825 15.7942 28.7824 15.0969 28.7826L15.0963 26.1159ZM17.8285 27.7934C16.86 26.7221 16.1142 25.8972 15.3686 25.0723L17.3469 23.2842C18.0925 24.109 18.838 24.9336 19.8067 26.0052L17.8285 27.7934ZM15.3689 25.0727C15.4017 25.1088 15.4297 25.1348 15.4466 25.1498C15.4637 25.1648 15.4756 25.1741 15.4774 25.1755C15.4786 25.1764 15.4774 25.1754 15.4649 25.1662C15.4559 25.1594 15.4349 25.1438 15.4134 25.1272C15.3723 25.0955 15.2895 25.0304 15.2026 24.9404C15.1142 24.8488 14.9935 24.7032 14.9009 24.4991L17.3297 23.3981C17.259 23.2421 17.1709 23.1398 17.1213 23.0884C17.0953 23.0615 17.0737 23.0422 17.061 23.0313C17.0544 23.0257 17.0492 23.0214 17.046 23.0188C17.0443 23.0175 17.043 23.0165 17.0422 23.0158C17.0414 23.0152 17.0409 23.0148 17.0409 23.0148C17.0409 23.0148 17.0413 23.0151 17.042 23.0157C17.0429 23.0163 17.044 23.0172 17.0456 23.0184C17.0493 23.0211 17.0529 23.0239 17.0598 23.029C17.0708 23.0372 17.093 23.0537 17.1167 23.0722C17.141 23.0912 17.1747 23.1182 17.2122 23.1512C17.2496 23.1843 17.2967 23.2286 17.3466 23.2838L15.3689 25.0727ZM14.9008 24.4989C14.8281 24.3383 14.7452 24.0761 14.784 23.7527C14.826 23.4025 14.9945 23.1156 15.205 22.9161C15.5469 22.5921 15.9458 22.5434 16.0341 22.532C16.3016 22.4975 16.5672 22.5316 16.6919 22.549C17.002 22.5923 17.3185 22.6713 17.3754 22.6859L16.714 25.2692C16.6805 25.2607 16.481 25.2121 16.3234 25.1901C16.2142 25.1748 16.258 25.1919 16.375 25.1768C16.4155 25.1716 16.4957 25.1587 16.5958 25.1237C16.6898 25.0908 16.8657 25.0161 17.0392 24.8517C17.2336 24.6675 17.3923 24.3988 17.4317 24.0701C17.4679 23.7681 17.3897 23.5306 17.3298 23.3983L14.9008 24.4989ZM17.374 22.6855C17.722 22.7742 18.0419 22.8964 18.2889 22.9911C18.5578 23.0941 18.7456 23.1665 18.9328 23.2188L18.2149 25.7871C17.8829 25.6942 17.569 25.5709 17.3346 25.4811C17.0783 25.3829 16.8933 25.3149 16.7154 25.2696L17.374 22.6855ZM18.9607 23.227C19.4232 23.3672 19.8451 23.484 20.2638 23.5633L19.768 26.1834C19.2076 26.0774 18.6778 25.9277 18.187 25.7789L18.9607 23.227ZM20.2642 23.5633C21.2412 23.7485 22.2442 23.7896 23.233 23.6854L23.5125 26.3374C22.2652 26.4689 21.0007 26.4171 19.7676 26.1833L20.2642 23.5633ZM23.2332 23.6854C23.3532 23.6727 23.4725 23.6581 23.5913 23.6413L23.964 26.2818C23.8133 26.3031 23.6627 26.3216 23.5123 26.3374L23.2332 23.6854ZM23.5914 23.6413C25.4097 23.3848 27.1865 22.6837 28.9138 21.7667L30.1642 24.1221C28.2816 25.1214 26.1987 25.9665 23.9639 26.2818L23.5914 23.6413ZM28.9139 21.7667C30.3504 21.0042 31.8395 20.3322 33.3484 19.7502L34.308 22.2383C32.8919 22.7844 31.5004 23.4129 30.1641 24.1221L28.9139 21.7667ZM33.3484 19.7502C36.0375 18.7132 38.6632 19.1221 41.0602 20.0213L40.1236 22.5181C38.0663 21.7463 36.162 21.5233 34.3079 22.2383L33.3484 19.7502ZM41.0602 20.0213C41.4752 20.1769 42.181 20.5116 42.4693 21.295C42.7611 22.0877 42.4344 22.8119 42.1856 23.2376L39.8834 21.8918C39.944 21.7882 39.94 21.7682 39.9296 21.8138C39.9161 21.8732 39.8971 22.0268 39.9668 22.2161C40.0359 22.404 40.1486 22.5076 40.1954 22.5433C40.2319 22.5711 40.2253 22.5562 40.1237 22.5181L41.0602 20.0213ZM42.1856 23.2375C42.0287 23.506 41.8622 23.7993 41.7083 24.0227C41.5501 24.2524 41.2951 24.579 40.8812 24.7947C40.4441 25.0225 40.0139 25.0338 39.6917 25.0067C39.3938 24.9817 39.0584 24.9098 38.7467 24.842L39.3132 22.2362C39.4781 22.2721 39.6054 22.2989 39.7112 22.3186C39.8181 22.3384 39.88 22.3465 39.915 22.3494C39.9828 22.3551 39.8386 22.331 39.6488 22.4299C39.4822 22.5167 39.4357 22.6211 39.5123 22.5099C39.5459 22.4612 39.5901 22.3909 39.6548 22.2824C39.7204 22.1721 39.7901 22.0515 39.8834 21.8919L42.1856 23.2375ZM38.7467 24.842C36.5848 24.372 34.5244 24.8605 32.3297 25.8409L31.2421 23.4061C33.6881 22.3135 36.3651 21.5952 39.3132 22.2362L38.7467 24.842ZM32.3297 25.8409C31.2304 26.332 30.3047 26.8229 29.1239 27.3743C28.0169 27.8911 26.8318 28.3859 25.5714 28.6908L24.9445 26.0988C25.9483 25.856 26.9455 25.4483 27.9957 24.958C28.972 24.5022 30.1782 23.8814 31.2421 23.4061L32.3297 25.8409ZM25.5714 28.6908C24.3984 28.9745 23.2634 29.3894 22.0367 29.8296C20.8357 30.2606 19.5501 30.7144 18.1966 31.0012L17.6439 28.3925C18.7967 28.1482 19.9231 27.7549 21.136 27.3197C22.3232 26.8936 23.6039 26.4231 24.9445 26.0988L25.5714 28.6908ZM18.1966 31.0012C13.115 32.0779 8.46636 30.9247 4.43507 27.5938L6.13364 25.5381C9.54399 28.3559 13.3653 29.299 17.6439 28.3925L18.1966 31.0012ZM4.43506 27.5938C-2.11862 22.1786 -3.42856 11.7085 2.27117 4.7338L4.33604 6.42123C-0.415844 12.236 0.687084 21.0377 6.13365 25.5381L4.43506 27.5938ZM2.27116 4.73381C6.21891 -0.0970879 11.472 -2.08487 17.6356 -0.996277L17.1718 1.62975C11.9699 0.71101 7.68009 2.32908 4.33605 6.42122L2.27116 4.73381ZM17.6355 -0.996281C18.7878 -0.792795 19.9025 -0.437408 20.9383 -0.0397301L19.9824 2.44973C19.0403 2.088 18.0986 1.79342 17.1718 1.62975L17.6355 -0.996281ZM20.9381 -0.0397816C21.3463 0.116894 21.5635 0.0931015 21.8242 -0.0369759L23.0147 2.34918C21.9779 2.86648 20.9691 2.82845 19.9825 2.44979L20.9381 -0.0397816ZM21.8242 -0.0369606C24.0708 -1.15796 26.5175 -1.38523 28.7796 -1.32625L28.7101 1.33951C26.6453 1.28568 24.7014 1.50759 23.0148 2.34916L21.8242 -0.0369606ZM28.7796 -1.32625C29.1861 -1.31567 29.9544 -1.3393 30.6553 -1.16347L30.0064 1.42305C29.678 1.34066 29.3569 1.35635 28.7101 1.33951L28.7796 -1.32625ZM30.656 -1.16328C30.821 -1.1218 31.0895 -1.03618 31.3402 -0.833775C31.6382 -0.593193 31.8982 -0.188007 31.8843 0.332499L29.2186 0.261383C29.2133 0.459831 29.2562 0.664232 29.3518 0.852394C29.4443 1.03434 29.5649 1.1602 29.665 1.241C29.8454 1.38672 30.0028 1.42214 30.0057 1.42287L30.656 -1.16328Z" fill="black" mask="url(#path-1-inside-1_5728_41496)"/>
<path d="M33.9131 11.9204C31.8394 12.785 29.7825 13.6633 27.7801 14.6415L27.4875 14.0424L27.7801 14.6415C24.5239 16.2321 21.1777 16.5636 17.7154 15.3566C16.7386 15.0161 15.7626 14.6683 14.7922 14.3225C14.5568 14.2386 14.3217 14.1549 14.087 14.0713C13.9742 14.4465 13.9875 14.7119 14.0527 14.8955C14.1402 15.1419 14.3844 15.4147 14.9943 15.6339L14.9943 15.6339C15.4919 15.8128 15.9673 15.9911 16.4378 16.1676C17.0357 16.3919 17.6257 16.6132 18.2432 16.8289C20.5883 17.6478 22.8221 18.0086 25.0389 17.0643C26.3615 16.5009 27.6646 15.9016 28.9775 15.2977C29.4932 15.0606 30.0103 14.8227 30.5308 14.5861L30.5308 14.5861C30.5565 14.5744 30.5823 14.5626 30.6081 14.5509C32.4551 13.7109 34.5469 12.7596 36.8358 13.0167C37.7573 13.1201 38.6553 13.3326 39.5223 13.564C39.8291 13.6458 40.128 13.7289 40.4231 13.8109C40.9791 13.9654 41.5215 14.1161 42.0774 14.248L42.0774 14.2481C42.1692 14.2699 42.2534 14.2894 42.3293 14.3036C42.3413 14.1494 42.3289 13.9479 42.2887 13.7347C42.2464 13.5107 42.1802 13.3101 42.1094 13.1702C42.0803 13.1128 42.0577 13.0792 42.0444 13.0615C41.8569 12.9938 41.6707 12.926 41.4853 12.8585C40.3224 12.4351 39.1954 12.0248 38.0389 11.7382C36.625 11.3878 35.2154 11.3776 33.9131 11.9204ZM33.9131 11.9204L33.6566 11.3051M33.9131 11.9204L33.6566 11.3051M33.6566 11.3051C35.1271 10.6921 36.6903 10.7172 38.1993 11.0911C39.3932 11.387 40.558 11.8112 41.7197 12.2343C41.9229 12.3083 42.126 12.3823 42.3292 12.4556L33.6566 11.3051Z" fill="black" stroke="black" stroke-width="1.33333"/>
<path d="M14.568 18.964C14.6003 19.1659 14.6339 19.3404 14.6714 19.4938C14.7535 19.8296 14.8445 20.0215 14.9455 20.1539C15.1517 20.4244 15.5147 20.6131 16.6012 20.9636L16.6012 20.9636C16.9253 21.0682 17.2547 21.2022 17.5552 21.3244C17.6697 21.371 17.7801 21.4159 17.8843 21.4568M14.568 18.964L22.9492 20.9248C24.4165 20.8054 25.7915 20.3783 27.0972 19.8329L27.1074 19.8287L27.1074 19.8286C28.5418 19.2014 30.0095 18.5574 31.4176 17.7951L31.4176 17.7951C34.1095 16.3376 36.8406 15.9894 39.7203 16.9368L39.9287 16.3035L39.7203 16.9368C40.0491 17.0449 40.3763 17.1606 40.7116 17.2792L40.7567 17.2951C41.1053 17.4183 41.4625 17.5442 41.8242 17.6614L41.8243 17.6615C41.9327 17.6965 42.0027 17.7363 42.0402 17.768C42.0568 17.782 42.0627 17.7908 42.0639 17.7928L42.064 17.793C42.0645 17.7937 42.0651 17.7947 42.0659 17.7991L42.066 17.7993C42.0919 17.9431 42.0628 18.134 41.9742 18.4113L41.9741 18.4114C41.9574 18.4638 41.9399 18.5225 41.9241 18.5755C41.9191 18.5924 41.9142 18.6087 41.9096 18.624C41.889 18.6929 41.8697 18.7548 41.8495 18.8123C41.8368 18.8485 41.8247 18.8799 41.8133 18.9069C41.7622 18.8996 41.7012 18.8861 41.6292 18.8667C41.5729 18.8515 41.5321 18.8392 41.487 18.8256C41.4551 18.8159 41.421 18.8057 41.3778 18.7933L41.3777 18.7932C40.0184 18.4032 38.5821 18.0176 37.1199 17.8665C34.6699 17.6132 32.4984 18.6127 30.5355 19.5161C30.3568 19.5984 30.1798 19.6798 30.0045 19.7595L30.0045 19.7595C29.4717 20.0015 28.9534 20.2483 28.4416 20.4921C27.3005 21.0354 26.1915 21.5635 25.0267 21.9895C22.6691 22.8516 20.3079 22.4072 17.8843 21.4568M14.568 18.964C14.5914 18.9715 14.6156 18.9794 14.6409 18.9877L14.6443 18.9888C14.7058 19.0089 14.7755 19.0318 14.8448 19.0525L14.845 19.0526C15.3382 19.2 15.8282 19.3746 16.3278 19.5598L16.3279 19.5598C16.4975 19.6227 16.6692 19.6873 16.8428 19.7526C17.7339 20.088 18.6749 20.4421 19.6458 20.6724L19.6458 20.6724C20.7271 20.9287 21.8403 21.0152 22.9492 20.9248L14.568 18.964ZM17.8843 21.4568L17.6409 22.0774L17.8843 21.4568Z" fill="black" stroke="black" stroke-width="1.33333"/>
<path d="M41.1161 9.14544C40.9629 9.10389 40.8097 9.06238 40.6567 9.02088C39.9854 8.83892 39.3151 8.6572 38.6436 8.47336C37.4847 8.15609 36.3164 8.04148 35.0976 8.19474C34.0582 8.32539 33.0562 8.62494 32.1129 9.02031C30.1702 9.83453 28.2623 10.7327 26.3711 11.6231C26.2545 11.678 26.1379 11.7329 26.0215 11.7877C24.1615 12.663 22.0419 13.0118 20.068 12.5962L41.1161 9.14544ZM41.1161 9.14544C41.0477 8.90641 40.9529 8.6754 40.8366 8.46349C40.5732 7.98359 40.2392 7.66955 39.9421 7.54476C37.684 6.59648 35.3944 6.36842 33.1782 7.21615L32.94 6.59348L33.1781 7.21616C31.9879 7.67139 30.8219 8.20526 29.6398 8.75608C29.5087 8.81714 29.3774 8.87844 29.2458 8.93986C28.1969 9.42953 27.1316 9.92683 26.0466 10.3742L26.0465 10.3743C24.4044 11.0513 22.5318 11.6304 20.5454 11.1796M41.1161 9.14544L14.8934 10.069C14.9567 9.87731 15.0047 9.76239 15.0415 9.69339C15.1387 9.70725 15.28 9.74355 15.508 9.81378L15.508 9.81379C17.1654 10.3242 18.8457 10.794 20.5454 11.1796M20.5454 11.1796L20.693 10.5295L20.5454 11.1796ZM15.0088 10.8942L15.0087 10.8942C14.9423 10.8705 14.8726 10.8496 14.8221 10.8346C14.815 10.8325 14.8083 10.8305 14.8021 10.8286C14.7705 10.8191 14.7452 10.8113 14.7238 10.8042C14.7242 10.7991 14.7247 10.7937 14.7252 10.7879C14.7282 10.7545 14.7322 10.7104 14.7348 10.6599C14.7599 10.5703 14.7818 10.4827 14.8011 10.4054C14.8042 10.393 14.8072 10.3808 14.8102 10.369C14.8394 10.2524 14.8642 10.1573 14.8933 10.0692L15.0088 10.8942ZM15.0088 10.8942L17.3356 11.7254C17.3356 11.7254 17.3356 11.7254 17.3356 11.7255M15.0088 10.8942L17.3356 11.7255M17.3356 11.7255C17.4749 11.7752 17.6127 11.825 17.7492 11.8744M17.3356 11.7255L17.7492 11.8744M17.7492 11.8744C18.544 12.1616 19.2966 12.4336 20.068 12.5961L17.7492 11.8744Z" fill="black" stroke="black" stroke-width="1.33333"/>
<path d="M36.496 3.37347C35.7546 3.34494 34.9986 3.35208 34.2087 3.48685L34.2087 3.48686C33.2368 3.65273 32.3576 3.98569 31.5165 4.30654L31.5001 4.3128L31.484 4.3199C30.3955 4.80214 29.2832 5.32148 28.1782 5.83746C27.2485 6.27156 26.3239 6.70327 25.4229 7.10848L25.4229 7.10849C24.4928 7.52678 23.4941 7.78326 22.4795 7.8681C20.91 7.9993 19.3308 7.70909 17.7536 7.24861M36.496 3.37347L16.6246 6.80125C16.8537 6.98924 17.1405 7.07181 17.5803 7.19846C17.6356 7.21438 17.6933 7.231 17.7536 7.24861M36.496 3.37347C36.3792 3.26856 36.2612 3.16733 36.1411 3.07035C35.5576 2.59914 34.9534 2.25392 34.3207 2.15711C33.6693 2.05751 32.9826 2.23404 32.3119 2.58105C30.3426 3.59988 28.3204 4.50813 26.3038 5.38189L26.3038 5.3819C23.7902 6.47088 21.1205 6.98498 18.3034 5.96176L18.3033 5.96175C17.7093 5.74596 17.4608 5.7756 17.3175 5.83928C17.1453 5.91582 16.9233 6.12634 16.5771 6.73376L16.577 6.73393C16.5743 6.7387 16.5721 6.74284 16.5704 6.74637C16.5789 6.75814 16.595 6.77694 16.6245 6.80116L36.496 3.37347ZM17.7536 7.24861L17.5667 7.88856M17.7536 7.24861L17.5667 7.88856M17.5667 7.88856C17.5098 7.87194 17.4525 7.85568 17.3949 7.83935C16.9749 7.72022 16.5448 7.59821 16.2015 7.31648L28.476 6.43422C27.5514 6.86613 26.6268 7.29804 25.6963 7.71649C24.6967 8.16606 23.6242 8.44137 22.5351 8.53244C20.8497 8.67333 19.181 8.35986 17.5667 7.88856Z" fill="black" stroke="black" stroke-width="1.33333"/>
<path d="M37.3011 25.9859C36.4157 25.9153 35.5712 26.0287 34.7789 26.351C32.6545 27.2151 30.5547 28.1303 28.3903 29.0735C28.1659 29.1713 27.9407 29.2694 27.7148 29.3678C29.2414 29.4419 30.9554 29.1798 32.5842 28.6557C34.5357 28.0277 36.2425 27.0638 37.3011 25.9859Z" fill="black" stroke="black" stroke-width="1.33333"/>
<path d="M4.93744 34.3312C4.54304 34.0703 4.11114 33.945 3.55216 33.945C2.09504 33.945 0.904948 35.139 0.904948 36.6486C0.904948 38.1533 2.0902 39.3333 3.55216 39.3333C4.05434 39.3333 4.53472 39.1986 4.95289 38.9167L4.88068 38.8386C4.48605 39.0604 4.03265 39.1731 3.60724 39.1731C2.16117 39.1731 1.1322 37.9737 1.1322 36.6112C1.1322 35.2549 2.1376 34.0213 3.59809 34.0213C4.04924 34.0213 4.49983 34.145 4.89193 34.3793L4.93744 34.3312Z" fill="black" stroke="black" stroke-width="1.33333"/>
<path d="M7.65741 34.7063V34.0396H8.32407H9.68265C10.432 34.0396 11.0469 34.6603 11.0469 35.4158C11.0469 35.7316 10.9339 36.046 10.7387 36.2978C10.9962 36.0484 11.1364 35.73 11.1364 35.3878C11.1364 34.6403 10.5307 34.0378 9.80197 34.0378H7.54948V39.2396H7.65741V37.3482V36.8293V36.6815V36.1626V34.7063ZM9.51051 36.926L9.75133 36.8275C9.72863 36.8287 9.70573 36.8293 9.68265 36.8293H9.44492L9.5554 37.0532L10.6344 39.2396H10.7375L9.85554 37.5766L9.51051 36.926Z" fill="black" stroke="black" stroke-width="1.33333"/>
<path d="M13.7967 34.7437V34.077H14.4634H16.5138V34.038H13.6979V39.2396H16.5138V39.2005H14.4634H13.7967V38.5339V37.2737V36.607H14.4634H16.0639V36.5679H14.4634H13.7967V35.9013V34.7437Z" fill="black" stroke="black" stroke-width="1.33333"/>
<path d="M19.1757 34.7435V34.0769H19.8424H20.7236C22.1698 34.0769 23.1802 35.2486 23.1802 36.6294C23.1802 38.0173 22.1718 39.1912 20.7236 39.1912H19.8424H19.1757V38.5246V34.7435ZM19.0768 34.0378V39.2396H20.8153C22.2095 39.2396 23.3706 38.0816 23.3706 36.6294C23.3706 35.1982 22.2119 34.0378 20.8153 34.0378H19.0768Z" fill="black" stroke="black" stroke-width="1.33333"/>
<path d="M25.9256 34.7437V34.077H26.5923H28.6427V34.038H25.8268V39.2396H28.6427V39.2005H26.5923H25.9256V38.5339V37.2737V36.607H26.5923H28.1928V36.5679H26.5923H25.9256V35.9013V34.7437Z" fill="black" stroke="black" stroke-width="1.33333"/>
<path d="M32.4635 35.781L35.3867 38.7689V34.0383H35.2699V36.8632V37.5299H34.6032H34.5938H34.3218L34.1275 37.3397L31.1955 34.4699L31.2025 39.2401H31.3111V36.2472V35.5805H31.9778H31.9869H32.2673L32.4635 35.781Z" fill="black" stroke="black" stroke-width="1.33333"/>
<path d="M41.8594 34.3311C41.4649 34.0703 41.0331 33.945 40.474 33.945C39.0169 33.945 37.8268 35.139 37.8268 36.6486C37.8268 38.1533 39.0121 39.3333 40.474 39.3333C40.9762 39.3333 41.4566 39.1986 41.8748 38.9167L41.8026 38.8386C41.4079 39.0604 40.9545 39.1731 40.5291 39.1731C39.083 39.1731 38.0541 37.9737 38.0541 36.6112C38.0541 35.2549 39.0595 34.0213 40.52 34.0213C40.9711 34.0213 41.4217 34.145 41.8138 34.3793L41.8594 34.3311Z" fill="black" stroke="black" stroke-width="1.33333"/>
</svg>
