<svg width="21" height="21" viewBox="0 0 21 21" fill="none" xmlns="http://www.w3.org/2000/svg">
<path d="M4.69922 14.375V5.625" stroke="black" stroke-width="1.5" stroke-linecap="round" stroke-linejoin="round"/>
<path d="M17.1992 5.625V14.375" stroke="black" stroke-width="1.5" stroke-linecap="round" stroke-linejoin="round"/>
<path d="M8.44922 10V11.25" stroke="black" stroke-width="1.5" stroke-linecap="round" stroke-linejoin="round"/>
<path d="M10.9492 9.375V11.25" stroke="black" stroke-width="1.5" stroke-linecap="round" stroke-linejoin="round"/>
<path d="M13.4492 8.75V11.25" stroke="black" stroke-width="1.5" stroke-linecap="round" stroke-linejoin="round"/>
<path d="M17.8242 3.125H4.07422C3.72904 3.125 3.44922 3.40482 3.44922 3.75V5C3.44922 5.34518 3.72904 5.625 4.07422 5.625H17.8242C18.1694 5.625 18.4492 5.34518 18.4492 5V3.75C18.4492 3.40482 18.1694 3.125 17.8242 3.125Z" stroke="black" stroke-width="1.5" stroke-linecap="round" stroke-linejoin="round"/>
<path d="M10.9492 14.375V16.875" stroke="black" stroke-width="1.5" stroke-linecap="round" stroke-linejoin="round"/>
<path d="M10.9492 19.375C11.6396 19.375 12.1992 18.8154 12.1992 18.125C12.1992 17.4346 11.6396 16.875 10.9492 16.875C10.2589 16.875 9.69922 17.4346 9.69922 18.125C9.69922 18.8154 10.2589 19.375 10.9492 19.375Z" stroke="black" stroke-width="1.5" stroke-linecap="round" stroke-linejoin="round"/>
<path d="M3.44922 14.375H18.4492" stroke="black" stroke-width="1.5" stroke-linecap="round" stroke-linejoin="round"/>
</svg>
