<svg width="20" height="13" viewBox="0 0 20 13" fill="none" xmlns="http://www.w3.org/2000/svg">
<path d="M14.0103 10.2281C13.7109 10.2173 13.5392 10.1935 13.3671 10.205C11.4115 10.391 9.46121 10.5949 7.50551 10.7898C5.54994 10.9758 3.59449 11.153 1.63917 11.3214C1.42253 11.3401 1.19568 11.2966 0.980285 11.227C0.676545 11.1277 0.498552 10.7678 0.526361 10.3711C0.554421 9.95676 0.740166 9.76901 0.968649 9.69768C1.18592 9.63478 1.40798 9.62508 1.63029 9.59772C5.16977 9.22113 8.70383 8.83552 12.2432 8.46777C12.9822 8.38827 13.7211 8.3176 14.4581 8.37943C15.4058 8.45767 16.1944 8.00876 16.853 6.94538C17.0289 6.6689 17.2157 6.41047 17.4309 6.10005C17.0265 5.27245 16.5872 4.95618 15.9706 5.00473C12.7602 5.26057 9.55051 5.46341 6.34058 5.68391C5.04665 5.76999 3.75814 5.8651 2.46458 5.92468C2.13704 5.93942 1.80519 5.86564 1.47902 5.78322C1.40164 5.76276 1.28831 5.53774 1.29006 5.41408C1.29849 5.21111 1.35882 4.86861 1.44262 4.82743C1.75554 4.67076 2.08433 4.56768 2.40671 4.52623C3.36238 4.428 4.32309 4.36531 5.28393 4.29378C7.82767 4.10236 10.3771 3.90231 12.9207 3.71973C13.6093 3.67377 14.2932 3.57461 15.1046 3.4712C14.7693 2.85818 14.52 2.44269 14.3046 1.98422C14.1536 1.67832 14.1475 1.32459 14.3293 1.0218C14.4998 0.736278 14.7063 0.646485 14.925 0.875285C15.2367 1.19581 15.5314 1.54223 15.8431 1.86275C16.401 2.43073 16.976 2.96398 17.5281 3.54943C18.1074 4.17121 18.6696 4.81889 19.2205 5.49268C19.526 5.85716 19.4758 6.65959 19.1271 6.99174C18.8458 7.26444 18.5377 7.47431 18.2566 7.73818C18.0992 7.88277 17.9685 8.09902 17.8163 8.2703C17.3311 8.83617 17.2301 10.0963 16.4584 10.1305C15.967 10.7491 15.4808 11.3857 14.9785 11.9863C14.7753 12.2352 14.5555 12.4748 14.3205 12.6166C14.0742 12.7668 13.8028 12.7394 13.6138 12.3703C13.4303 12.0102 13.4471 11.6042 13.5968 11.2208C13.7061 10.9419 13.8209 10.672 14.0103 10.2281Z" fill="#8F14CC"/>
</svg>
