<svg width="18" height="21" viewBox="0 0 18 21" fill="none" xmlns="http://www.w3.org/2000/svg">
<path d="M11.2859 2.06232C11.2019 4.58369 12.1579 6.45369 13.1665 8.2922C13.5342 8.95406 14.154 9.24824 14.9209 9.20622C15.4777 9.1747 16.0345 9.14318 16.5913 9.17469C17.2006 9.21672 17.6839 9.64745 17.7995 10.1727C17.9045 10.635 17.5789 11.2968 17.0431 11.549C16.6754 11.7276 16.2551 11.9377 15.8559 11.9377C14.4797 11.9482 13.7022 12.7992 13.0194 13.8077C12.2104 14.9738 11.7692 16.2976 11.3805 17.6423C11.2229 18.1781 11.0863 18.7139 10.8972 19.2392C10.7186 19.733 10.3719 20.0796 9.81512 20.1007C9.26882 20.1217 8.89062 19.775 8.63848 19.3442C8.47039 19.0501 8.36532 18.7034 8.3128 18.3672C8.18673 17.6108 8.13422 16.8439 8.01865 16.077C7.71399 14.0914 5.87548 12.3999 3.9109 12.2634C3.28056 12.2213 2.65023 12.2214 2.03039 12.1373C1.42106 12.0533 0.958787 11.5805 0.885247 11.0762C0.801201 10.5089 1.24244 9.86807 1.9043 9.66846C2.57667 9.47936 3.27006 9.3848 3.94243 9.1957C6.63189 8.4603 8.05016 6.77937 8.32331 3.98485C8.39685 3.29147 8.37584 2.58759 8.42837 1.89422C8.47039 1.23236 8.76456 0.696574 9.33187 0.328873C10.1303 -0.185908 11.1178 0.213295 11.2544 1.12729C11.3384 1.54752 11.2859 1.96777 11.2859 2.06232Z" fill="#8F14CC"/>
</svg>
