<svg width="24" height="22" viewBox="0 0 24 22" fill="none" xmlns="http://www.w3.org/2000/svg">
<path d="M11.9489 20.1671C11.8481 20.1671 11.7472 20.1671 11.6463 20.0635H11.5455C9.32655 18.9241 4.08182 15.7132 2.26634 10.6379C1.96376 9.70568 1.25774 5.87329 3.47666 3.49099C4.78784 2.0409 5.99817 1.83374 6.80505 1.83374C8.72139 1.83374 10.7386 2.9731 11.9489 4.63035C13.1592 2.86952 14.9747 1.83374 17.0928 1.83374C17.8997 1.83374 19.11 2.0409 20.522 3.49099C22.741 5.87329 22.0349 9.80926 21.7324 10.6379C19.9169 15.8168 14.5713 18.9241 12.4532 20.0635C12.2515 20.1671 12.0498 20.1671 11.9489 20.1671Z" stroke="#034FE2" stroke-width="2.2" stroke-linecap="round" stroke-linejoin="round"/>
</svg>
