<svg width="19" height="19" viewBox="0 0 19 19" fill="none" xmlns="http://www.w3.org/2000/svg">
<path d="M13.4375 2.32812H5.5625C5.26413 2.32813 4.97798 2.44665 4.767 2.65763C4.55603 2.86861 4.4375 3.15476 4.4375 3.45312V15.8281C4.43804 15.9283 4.46497 16.0265 4.51558 16.1129C4.5662 16.1993 4.6387 16.2709 4.72578 16.3203C4.8092 16.368 4.90393 16.3923 5 16.3906C5.10441 16.3908 5.20676 16.3616 5.29531 16.3063L9.5 13.6766L13.6977 16.3063C13.7843 16.3583 13.883 16.387 13.9841 16.3895C14.0852 16.3919 14.1851 16.3681 14.2742 16.3203C14.3613 16.2709 14.4338 16.1993 14.4844 16.1129C14.535 16.0265 14.562 15.9283 14.5625 15.8281V3.45312C14.5625 3.15476 14.444 2.86861 14.233 2.65763C14.022 2.44665 13.7359 2.32813 13.4375 2.32812Z" fill="black"/>
</svg>
