<svg width="44" height="44" viewBox="0 0 44 44" fill="none" xmlns="http://www.w3.org/2000/svg">
<path d="M21.9489 31.1666C21.8481 31.1666 21.7472 31.1666 21.6463 31.063H21.5455C19.3266 29.9236 14.0818 26.7127 12.2663 21.6374C11.9638 20.7052 11.2577 16.8728 13.4767 14.4905C14.7878 13.0404 15.9982 12.8333 16.805 12.8333C18.7214 12.8333 20.7386 13.9726 21.9489 15.6299C23.1592 13.869 24.9747 12.8333 27.0928 12.8333C27.8997 12.8333 29.11 13.0404 30.522 14.4905C32.741 16.8728 32.0349 20.8088 31.7324 21.6374C29.9169 26.8163 24.5713 29.9236 22.4532 31.063C22.2515 31.1666 22.0498 31.1666 21.9489 31.1666Z" stroke="#034FE2" stroke-width="2.2" stroke-linecap="round" stroke-linejoin="round"/>
</svg>
