<svg width="22" height="21" viewBox="0 0 22 21" fill="none" xmlns="http://www.w3.org/2000/svg">
<path d="M13.7734 3.28125C14.8866 3.57999 15.9015 4.16625 16.7165 4.98119C17.5314 5.79614 18.1177 6.8111 18.4164 7.92422" stroke="#717171" stroke-width="1.5" stroke-linecap="round" stroke-linejoin="round"/>
<path d="M13.0898 5.81641C13.7593 5.99421 14.3699 6.34582 14.8597 6.83562C15.3495 7.32542 15.7011 7.936 15.8789 8.60547" stroke="#717171" stroke-width="1.5" stroke-linecap="round" stroke-linejoin="round"/>
<path d="M8.2832 10.2373C8.9585 11.6319 10.0862 12.7566 11.4824 13.4283C11.5854 13.4771 11.6993 13.4982 11.813 13.4896C11.9266 13.4809 12.036 13.4429 12.1305 13.3791L14.1812 12.0092C14.2719 11.9477 14.3766 11.9102 14.4856 11.9002C14.5946 11.8902 14.7044 11.9079 14.8047 11.9518L18.6438 13.6006C18.775 13.6552 18.8846 13.7514 18.9557 13.8745C19.0269 13.9975 19.0556 14.1405 19.0375 14.2815C18.9158 15.2312 18.4523 16.104 17.7336 16.7366C17.0149 17.3693 16.0903 17.7183 15.1328 17.7186C12.174 17.7186 9.33636 16.5432 7.24415 14.451C5.15195 12.3588 3.97656 9.52113 3.97656 6.56231C3.97678 5.60484 4.32586 4.68025 4.9585 3.96156C5.59113 3.24286 6.46396 2.7793 7.41367 2.65763C7.55463 2.63952 7.69764 2.66825 7.82067 2.7394C7.94369 2.81055 8.03992 2.92017 8.09453 3.05138L9.74336 6.89864C9.78624 6.99736 9.80417 7.10512 9.79559 7.21241C9.78701 7.3197 9.75217 7.42323 9.69414 7.51388L8.32422 9.59747C8.26323 9.69171 8.22743 9.80002 8.22025 9.91204C8.21307 10.0241 8.23475 10.1361 8.2832 10.2373V10.2373Z" stroke="#717171" stroke-width="1.5" stroke-linecap="round" stroke-linejoin="round"/>
</svg>
