<svg width="25" height="27" viewBox="0 0 25 27" fill="none" xmlns="http://www.w3.org/2000/svg">
<g filter="url(#filter0_d_8119_50286)">
<path d="M14.7734 3.28125C15.8866 3.57999 16.9015 4.16625 17.7165 4.98119C18.5314 5.79614 19.1177 6.8111 19.4164 7.92422" stroke="#717171" stroke-width="1.5" stroke-linecap="round" stroke-linejoin="round"/>
<path d="M14.0898 5.81641C14.7593 5.99421 15.3699 6.34582 15.8597 6.83562C16.3495 7.32542 16.7011 7.936 16.8789 8.60547" stroke="#717171" stroke-width="1.5" stroke-linecap="round" stroke-linejoin="round"/>
<path d="M9.2832 10.2373C9.9585 11.6319 11.0862 12.7566 12.4824 13.4283C12.5854 13.4771 12.6993 13.4982 12.813 13.4896C12.9266 13.4809 13.036 13.4429 13.1305 13.3791L15.1812 12.0092C15.2719 11.9477 15.3766 11.9102 15.4856 11.9002C15.5946 11.8902 15.7044 11.9079 15.8047 11.9518L19.6438 13.6006C19.775 13.6552 19.8846 13.7514 19.9557 13.8745C20.0269 13.9975 20.0556 14.1405 20.0375 14.2815C19.9158 15.2312 19.4523 16.104 18.7336 16.7366C18.0149 17.3693 17.0903 17.7183 16.1328 17.7186C13.174 17.7186 10.3364 16.5432 8.24415 14.451C6.15195 12.3588 4.97656 9.52113 4.97656 6.56231C4.97678 5.60484 5.32586 4.68025 5.9585 3.96156C6.59113 3.24286 7.46396 2.7793 8.41367 2.65763C8.55463 2.63952 8.69764 2.66825 8.82067 2.7394C8.94369 2.81055 9.03992 2.92017 9.09453 3.05138L10.7434 6.89864C10.7862 6.99736 10.8042 7.10512 10.7956 7.21241C10.787 7.3197 10.7522 7.42323 10.6941 7.51388L9.32422 9.59747C9.26323 9.69171 9.22743 9.80002 9.22025 9.91204C9.21307 10.0241 9.23475 10.1361 9.2832 10.2373V10.2373Z" stroke="#717171" stroke-width="1.5" stroke-linecap="round" stroke-linejoin="round"/>
</g>
<defs>
<filter id="filter0_d_8119_50286" x="0.226562" y="1.90234" width="24.5664" height="24.5664" filterUnits="userSpaceOnUse" color-interpolation-filters="sRGB">
<feFlood flood-opacity="0" result="BackgroundImageFix"/>
<feColorMatrix in="SourceAlpha" type="matrix" values="0 0 0 0 0 0 0 0 0 0 0 0 0 0 0 0 0 0 127 0" result="hardAlpha"/>
<feOffset dy="4"/>
<feGaussianBlur stdDeviation="2"/>
<feComposite in2="hardAlpha" operator="out"/>
<feColorMatrix type="matrix" values="0 0 0 0 0 0 0 0 0 0 0 0 0 0 0 0 0 0 0.25 0"/>
<feBlend mode="normal" in2="BackgroundImageFix" result="effect1_dropShadow_8119_50286"/>
<feBlend mode="normal" in="SourceGraphic" in2="effect1_dropShadow_8119_50286" result="shape"/>
</filter>
</defs>
</svg>
