<svg width="22" height="23" viewBox="0 0 22 23" fill="none" xmlns="http://www.w3.org/2000/svg">
<path d="M4.68359 17.5156C3.89297 16.725 4.41719 15.0664 4.01328 14.0953C3.60938 13.1242 2.0625 12.2734 2.0625 11.1992C2.0625 10.125 3.59219 9.30859 4.01328 8.30313C4.43438 7.29766 3.89297 5.67344 4.68359 4.88281C5.47422 4.09219 7.13281 4.61641 8.10391 4.2125C9.075 3.80859 9.92578 2.26172 11 2.26172C12.0742 2.26172 12.8906 3.79141 13.8961 4.2125C14.9016 4.63359 16.5258 4.09219 17.3164 4.88281C18.107 5.67344 17.5828 7.33203 17.9867 8.30313C18.3906 9.27422 19.9375 10.125 19.9375 11.1992C19.9375 12.2734 18.4078 13.0898 17.9867 14.0953C17.5656 15.1008 18.107 16.725 17.3164 17.5156C16.5258 18.3062 14.8672 17.782 13.8961 18.1859C12.925 18.5898 12.0742 20.1367 11 20.1367C9.92578 20.1367 9.10938 18.607 8.10391 18.1859C7.09844 17.7648 5.47422 18.3062 4.68359 17.5156Z" stroke="#222222" stroke-linecap="round" stroke-linejoin="round"/>
<path d="M14.7812 9.13672L9.73672 13.9492L7.21875 11.543" stroke="black" stroke-linecap="round" stroke-linejoin="round"/>
</svg>
