<svg width="20" height="20" viewBox="0 0 20 20" fill="none" xmlns="http://www.w3.org/2000/svg">
<path d="M18.1231 4.99949V3.74962C18.1231 3.41814 17.9914 3.10023 17.757 2.86583C17.5226 2.63144 17.2047 2.49976 16.8732 2.49976H3.12467C2.79318 2.49976 2.47527 2.63144 2.24088 2.86583C2.00648 3.10023 1.8748 3.41814 1.8748 3.74962V4.99949C1.8748 5.33097 2.00648 5.64888 2.24088 5.88328C2.47527 6.11767 2.79318 6.24935 3.12467 6.24935V13.7486H2.49973C2.33399 13.7486 2.17504 13.8144 2.05784 13.9316C1.94064 14.0488 1.8748 14.2077 1.8748 14.3735C1.8748 14.5392 1.94064 14.6982 2.05784 14.8154C2.17504 14.9326 2.33399 14.9984 2.49973 14.9984H9.374V16.3576C8.95704 16.5051 8.60561 16.7951 8.38184 17.1766C8.15806 17.5581 8.07635 18.0064 8.15113 18.4423C8.22592 18.8781 8.45239 19.2736 8.79052 19.5586C9.12866 19.8437 9.55667 20 9.99893 20C10.4412 20 10.8692 19.8437 11.2073 19.5586C11.5455 19.2736 11.7719 18.8781 11.8467 18.4423C11.9215 18.0064 11.8398 17.5581 11.616 17.1766C11.3923 16.7951 11.0408 16.5051 10.6239 16.3576V14.9984H17.4981C17.6639 14.9984 17.8228 14.9326 17.94 14.8154C18.0572 14.6982 18.1231 14.5392 18.1231 14.3735C18.1231 14.2077 18.0572 14.0488 17.94 13.9316C17.8228 13.8144 17.6639 13.7486 17.4981 13.7486H16.8732V6.24935C17.2047 6.24935 17.5226 6.11767 17.757 5.88328C17.9914 5.64888 18.1231 5.33097 18.1231 4.99949ZM8.12413 11.2488C8.12413 11.4146 8.05829 11.5735 7.94109 11.6907C7.8239 11.8079 7.66494 11.8738 7.4992 11.8738C7.33346 11.8738 7.1745 11.8079 7.05731 11.6907C6.94011 11.5735 6.87427 11.4146 6.87427 11.2488V9.99895C6.87427 9.83321 6.94011 9.67426 7.05731 9.55706C7.1745 9.43986 7.33346 9.37402 7.4992 9.37402C7.66494 9.37402 7.8239 9.43986 7.94109 9.55706C8.05829 9.67426 8.12413 9.83321 8.12413 9.99895V11.2488ZM9.99893 18.748C9.87533 18.748 9.75451 18.7114 9.65174 18.6427C9.54897 18.574 9.46887 18.4764 9.42157 18.3622C9.37427 18.248 9.36189 18.1224 9.38601 18.0012C9.41012 17.8799 9.46964 17.7686 9.55704 17.6812C9.64444 17.5938 9.75579 17.5343 9.87701 17.5102C9.99824 17.486 10.1239 17.4984 10.2381 17.5457C10.3523 17.593 10.4499 17.6731 10.5185 17.7759C10.5872 17.8787 10.6239 17.9995 10.6239 18.1231C10.6239 18.2888 10.558 18.4478 10.4408 18.565C10.3236 18.6822 10.1647 18.748 9.99893 18.748ZM10.6239 11.2488C10.6239 11.4146 10.558 11.5735 10.4408 11.6907C10.3236 11.8079 10.1647 11.8738 9.99893 11.8738C9.83319 11.8738 9.67424 11.8079 9.55704 11.6907C9.43984 11.5735 9.374 11.4146 9.374 11.2488V9.37402C9.374 9.20828 9.43984 9.04932 9.55704 8.93213C9.67424 8.81493 9.83319 8.74909 9.99893 8.74909C10.1647 8.74909 10.3236 8.81493 10.4408 8.93213C10.558 9.04932 10.6239 9.20828 10.6239 9.37402V11.2488ZM13.1236 11.2488C13.1236 11.4146 13.0578 11.5735 12.9406 11.6907C12.8234 11.8079 12.6644 11.8738 12.4987 11.8738C12.3329 11.8738 12.174 11.8079 12.0568 11.6907C11.9396 11.5735 11.8737 11.4146 11.8737 11.2488V8.74909C11.8737 8.58334 11.9396 8.42439 12.0568 8.30719C12.174 8.18999 12.3329 8.12415 12.4987 8.12415C12.6644 8.12415 12.8234 8.18999 12.9406 8.30719C13.0578 8.42439 13.1236 8.58334 13.1236 8.74909V11.2488ZM3.12467 4.99949V3.74962H16.8732V4.99949H3.12467Z" fill="white"/>
</svg>
