<svg width="29" height="29" viewBox="0 0 29 29" fill="none" xmlns="http://www.w3.org/2000/svg">
<path d="M25.875 7.07031H3.125C2.64175 7.07031 2.25 7.46206 2.25 7.94531V20.1953C2.25 20.6786 2.64175 21.0703 3.125 21.0703H25.875C26.3582 21.0703 26.75 20.6786 26.75 20.1953V7.94531C26.75 7.46206 26.3582 7.07031 25.875 7.07031Z" stroke="#222222" stroke-width="1.5" stroke-linecap="round" stroke-linejoin="round"/>
<path d="M14.5 17.5703C16.433 17.5703 18 16.0033 18 14.0703C18 12.1373 16.433 10.5703 14.5 10.5703C12.567 10.5703 11 12.1373 11 14.0703C11 16.0033 12.567 17.5703 14.5 17.5703Z" stroke="#222222" stroke-width="1.5" stroke-linecap="round" stroke-linejoin="round"/>
<path d="M19.75 7.07031L26.75 13.1953" stroke="#222222" stroke-width="1.5" stroke-linecap="round" stroke-linejoin="round"/>
<path d="M19.75 21.0703L26.75 14.9453" stroke="#222222" stroke-width="1.5" stroke-linecap="round" stroke-linejoin="round"/>
<path d="M9.25 7.07031L2.25 13.1953" stroke="#222222" stroke-width="1.5" stroke-linecap="round" stroke-linejoin="round"/>
<path d="M9.25 21.0703L2.25 14.9453" stroke="#222222" stroke-width="1.5" stroke-linecap="round" stroke-linejoin="round"/>
</svg>
