<svg width="286" height="212" viewBox="0 0 286 212" fill="none" xmlns="http://www.w3.org/2000/svg">
<path d="M83.5966 35.1635C83.5966 35.1635 115.765 59.5749 164.669 13.93C208.101 -26.6062 243.563 37.3508 243.812 67.9787C244.133 107.654 200.38 139.4 221.613 165.459C242.847 191.518 179.504 234.551 145.366 197.309C102.899 150.982 91.3948 188.623 67.189 188.623C49.8162 188.623 14.1481 145.456 38.2344 113.341C58.5027 86.3165 47.4487 77.3477 42.0957 67.9787C34.3738 54.4665 52.7118 17.7908 83.5966 35.1635Z" fill="#1C1E21"/>
<path d="M212.742 89.1088C214.471 89.7513 216.361 89.794 218.158 89.3814C225.691 87.6525 251.59 83.0748 247.09 103.144C246.11 107.126 230.941 129.426 252.543 137.566C254.126 138.17 255.8 138.5 257.494 138.541C264.145 138.678 277.325 137.108 282.841 131.493C289.504 124.71 282.224 127.927 282.224 127.927C282.224 127.927 256.891 138.982 247.943 127.253C246.947 125.948 246.313 124.053 246.132 122.421C245.817 119.592 247.073 115.853 248.723 112.599C250.956 108.194 261.679 88.3807 238.399 82.6087C233.036 81.3316 225.247 80.1844 215.204 84.4129C209.345 86.8792 210.643 88.329 212.742 89.1088Z" fill="#BDD6F9"/>
<path d="M217.926 81.7121L211.183 84.2357C208.856 85.1068 207.675 87.6999 208.546 90.0275L208.88 90.9205C209.751 93.2481 212.345 94.4288 214.672 93.5577L221.415 91.0341C223.743 90.163 224.923 87.5699 224.052 85.2423L223.718 84.3493C222.847 82.0217 220.254 80.841 217.926 81.7121Z" fill="#0E84E5"/>
<path d="M176.537 89.0143L154.3 97.3368C153.136 97.7724 152.545 99.0689 152.981 100.233L153.069 100.467C153.504 101.631 154.801 102.221 155.965 101.785L178.202 93.4628C179.366 93.0272 179.956 91.7307 179.52 90.5669L179.433 90.3328C178.997 89.169 177.701 88.5787 176.537 89.0143Z" fill="white"/>
<path d="M182.743 105.597L160.506 113.919C159.342 114.355 158.752 115.651 159.187 116.815L159.275 117.049C159.71 118.213 161.007 118.803 162.171 118.368L184.408 110.045C185.572 109.61 186.162 108.313 185.727 107.149L185.639 106.915C185.203 105.751 183.907 105.161 182.743 105.597Z" fill="white"/>
<path d="M203.274 77.6978L185.251 84.4431C182.923 85.3142 181.742 87.9073 182.613 90.2349L188.767 106.676C189.638 109.004 192.231 110.184 194.559 109.313L212.582 102.568C214.909 101.697 216.09 99.1037 215.219 96.7761L209.065 80.3349C208.194 78.0073 205.601 76.8266 203.274 77.6978Z" fill="#5895F9"/>
<path d="M187.112 82.011L169.09 88.7563C166.762 89.6274 165.581 92.2205 166.452 94.5481L173.793 114.163C174.665 116.491 177.258 117.671 179.585 116.8L197.608 110.055C199.936 109.184 201.117 106.591 200.245 104.263L192.904 84.6482C192.033 82.3206 189.44 81.1399 187.112 82.011Z" fill="#699CFF"/>
<path d="M189.934 78.0302L189.793 78.0831C188.241 78.6638 187.454 80.3926 188.035 81.9443L198.319 109.423C198.9 110.975 200.629 111.762 202.18 111.181L202.322 111.128C203.873 110.547 204.661 108.819 204.08 107.267L193.796 79.7883C193.215 78.2366 191.486 77.4494 189.934 78.0302Z" fill="#208AF2"/>
<path d="M6.15924 95.5989C6.15924 95.5989 42.3554 85.4268 37.1003 108.862C36.1877 112.571 23.0509 131.664 38.6989 140.831C42.0589 142.8 45.9364 143.672 49.8302 143.651C56.8117 143.615 67.8794 142.271 72.8515 137.21C79.5151 130.427 72.2353 133.644 72.2353 133.644C72.2353 133.644 51.4472 142.195 40.7525 135.379C37.1008 133.051 35.4455 128.545 36.4372 124.329C36.944 122.235 37.7159 120.215 38.734 118.316C41.0599 113.96 51.6898 94.0979 28.4098 88.3259C23.047 87.0488 15.2579 85.9016 5.21469 90.1301C-4.82856 94.3586 6.15924 95.5989 6.15924 95.5989Z" fill="#BDD6F9"/>
<path d="M77.719 128.4L70.9762 130.923C68.6486 131.794 67.4679 134.387 68.339 136.715L68.6733 137.608C69.5444 139.936 72.1375 141.116 74.4651 140.245L81.2079 137.722C83.5355 136.851 84.7162 134.257 83.8451 131.93L83.5108 131.037C82.6397 128.709 80.0466 127.528 77.719 128.4Z" fill="#0E84E5"/>
<path d="M89.111 117.306L79.1178 121.046C76.7902 121.917 75.6095 124.51 76.4806 126.838L81.2993 139.713C82.1704 142.04 84.7635 143.221 87.0911 142.35L97.0843 138.61C99.4119 137.739 100.593 135.146 99.7214 132.818L94.9028 119.943C94.0316 117.615 91.4386 116.435 89.111 117.306Z" fill="#5895F9"/>
<path d="M105.747 107.393L90.8444 112.971C88.5168 113.842 87.3361 116.435 88.2072 118.762L95.5484 138.378C96.4195 140.705 99.0126 141.886 101.34 141.015L116.243 135.437C118.57 134.566 119.751 131.973 118.88 129.645L111.539 110.03C110.668 107.703 108.075 106.522 105.747 107.393Z" fill="#699CFF"/>
<path d="M108.904 103.331L108.763 103.384C107.211 103.965 106.424 105.693 107.005 107.245L117.289 134.724C117.87 136.275 119.598 137.062 121.15 136.482L121.291 136.429C122.843 135.848 123.63 134.119 123.05 132.568L112.765 105.089C112.185 103.537 110.456 102.75 108.904 103.331Z" fill="#208AF2"/>
<path d="M146.959 85.8249C146.422 85.7654 145.929 85.4999 145.584 85.0844C145.239 84.669 145.069 84.1359 145.109 83.5974L146.221 63.2874C146.288 62.0742 147.312 61.1525 148.475 61.2597L150.095 61.4097C151.257 61.517 152.09 62.6097 151.927 63.8144L149.195 83.9744C149.132 84.5114 148.864 85.0035 148.448 85.3482C148.031 85.6929 147.498 85.8637 146.959 85.8249Z" fill="#418DF9"/>
<path d="M137.356 87.5761C137.19 87.6252 137.015 87.6409 136.842 87.6223C136.669 87.6037 136.501 87.5513 136.348 87.4679C136.196 87.3845 136.061 87.2719 135.952 87.1364C135.842 87.001 135.761 86.8453 135.712 86.6784L131.741 74.0445C131.626 73.6852 131.657 73.2947 131.83 72.9588C132.002 72.6229 132.3 72.369 132.659 72.2527L133.687 71.9425C133.863 71.891 134.049 71.8767 134.231 71.9004C134.413 71.924 134.588 71.9853 134.746 72.0801C134.903 72.175 135.039 72.3014 135.145 72.4515C135.251 72.6016 135.325 72.772 135.362 72.952L138.305 85.8963C138.387 86.2442 138.335 86.6103 138.159 86.9216C137.983 87.2329 137.697 87.4666 137.356 87.5761Z" fill="#418DF9"/>
<path d="M131.999 94.8618C131.287 95.7433 129.857 95.7328 128.755 94.8379L109.2 78.9497C108.031 78.0006 107.687 76.4297 108.442 75.4952L109.494 74.192C110.248 73.257 111.799 73.3337 112.904 74.3606L131.408 91.5522C132.45 92.5203 132.71 93.9802 131.999 94.8618Z" fill="#418DF9"/>
<path d="M141.038 135.899C141.542 136.094 141.95 136.476 142.178 136.966C142.405 137.456 142.433 138.015 142.257 138.525L135.995 157.877C135.621 159.033 134.395 159.662 133.298 159.262L131.77 158.704C130.673 158.303 130.147 157.033 130.612 155.911L138.403 137.117C138.6 136.614 138.985 136.206 139.476 135.979C139.967 135.752 140.526 135.724 141.038 135.899Z" fill="#418DF9"/>
<path d="M150.768 136.658C150.942 136.654 151.115 136.683 151.278 136.745C151.441 136.807 151.589 136.901 151.716 137.021C151.842 137.14 151.944 137.283 152.014 137.442C152.085 137.601 152.124 137.772 152.129 137.946L152.742 151.176C152.762 151.552 152.631 151.922 152.379 152.203C152.127 152.483 151.774 152.653 151.397 152.674L150.323 152.711C150.14 152.716 149.957 152.682 149.787 152.613C149.617 152.543 149.463 152.439 149.335 152.307C149.207 152.176 149.108 152.019 149.044 151.846C148.98 151.674 148.952 151.491 148.962 151.307L149.423 138.041C149.433 137.683 149.576 137.343 149.826 137.087C150.075 136.83 150.412 136.678 150.768 136.658Z" fill="#418DF9"/>
<path d="M157.809 130.983C158.722 130.312 160.103 130.688 160.939 131.834L175.789 152.189C176.676 153.405 176.608 155.012 175.639 155.723L174.289 156.714C173.32 157.425 171.841 156.955 171.035 155.68L157.535 134.333C156.776 133.131 156.896 131.653 157.809 130.983Z" fill="#418DF9"/>
</svg>
