<svg width="144" height="50" viewBox="0 0 144 50" fill="none" xmlns="http://www.w3.org/2000/svg">
<rect x="0.695312" width="142.959" height="49.4478" rx="8" fill="white"/>
<path d="M25.2291 37.2206C25.014 37.2206 24.7966 37.2136 24.5815 37.202C24.3688 37.1903 24.1537 37.174 23.9433 37.1531C23.733 37.1321 23.5226 37.1042 23.3146 37.0716C23.109 37.039 22.901 37.0017 22.6954 36.9598C22.4921 36.9179 22.2889 36.8713 22.088 36.8201C21.8894 36.7689 21.6885 36.713 21.4923 36.6502C21.2962 36.5896 21.1 36.5244 20.9086 36.4546C20.7171 36.3848 20.5257 36.3102 20.3389 36.2311C20.1522 36.1519 19.9655 36.0681 19.7835 35.982C19.6015 35.8935 19.4195 35.819 19.2423 35.7212C19.065 35.6258 18.8807 35.5396 18.7081 35.4372C18.5356 35.3324 18.3654 35.2253 18.2 35.1136C18.0345 35.0018 17.8691 34.8854 17.7083 34.7667C17.5476 34.6479 17.3893 34.5245 17.2356 34.3965C17.082 34.2707 16.9284 34.138 16.7795 34.0053C16.6306 33.8726 16.4864 33.7329 16.3446 33.5932C16.2028 33.4535 16.0633 33.3092 15.931 33.1625C15.7963 33.0158 15.6639 32.8645 15.5386 32.7108C15.4134 32.5572 15.2857 32.4012 15.1676 32.2429C15.0494 32.0846 14.9312 31.9216 14.8178 31.7563C14.7067 31.591 14.5956 31.4234 14.4916 31.2534C14.3876 31.0834 14.286 30.9088 14.1914 30.7342C14.0969 30.5596 14.0023 30.378 13.9149 30.1987C13.8274 30.0194 13.7424 29.8332 13.6644 29.6493C13.5864 29.4653 13.5107 29.2744 13.4422 29.0858C13.3736 28.8973 13.3075 28.7017 13.246 28.5108C13.1846 28.3175 13.1302 28.1196 13.0782 27.9217C13.0286 27.7238 12.9813 27.5213 12.9411 27.3234C12.9009 27.1232 12.8631 26.9159 12.8324 26.7134C12.8017 26.5085 12.7757 26.299 12.7544 26.0941C12.7331 25.8869 12.7189 25.675 12.7095 25.4655C12.7 25.2536 12.6953 25.0394 12.6953 24.8276C12.6953 24.6157 12.7024 24.4015 12.7142 24.1896C12.726 23.9801 12.7426 23.7682 12.7639 23.561C12.7875 23.3538 12.8135 23.1466 12.8466 22.9417C12.8797 22.7392 12.9175 22.5343 12.96 22.3317C13.0026 22.1315 13.0498 21.9313 13.1018 21.7334C13.1538 21.5378 13.2106 21.3399 13.2744 21.1467C13.3358 20.9534 13.4044 20.7602 13.4729 20.5716C13.5438 20.383 13.6195 20.1944 13.6998 20.0105C13.7802 19.8266 13.8653 19.6426 13.9527 19.4634C14.0402 19.2841 14.1347 19.1048 14.2316 18.9302C14.3285 18.7556 14.4301 18.581 14.5365 18.4133C14.6405 18.2457 14.7516 18.0758 14.865 17.9128C14.9785 17.7498 15.0966 17.5868 15.2172 17.4285C15.3377 17.2702 15.463 17.1142 15.593 16.9629C15.723 16.8115 15.8553 16.6602 15.9901 16.5135C16.1248 16.3669 16.2666 16.2248 16.4084 16.0851C16.5502 15.9455 16.6968 15.8081 16.8457 15.6777C16.9946 15.545 17.1482 15.4146 17.3042 15.2912C17.4602 15.1678 17.6185 15.0421 17.7793 14.9257C17.94 14.807 18.1054 14.6929 18.2732 14.5811C18.4387 14.4717 18.6112 14.3623 18.7838 14.2598C18.9563 14.1574 19.1335 14.0573 19.3108 13.9642C19.4881 13.871 19.6701 13.7779 19.8544 13.6918C20.0364 13.6056 20.2255 13.5218 20.4122 13.445C20.5989 13.3681 20.7927 13.2936 20.9842 13.2261C21.178 13.1563 21.3742 13.0934 21.568 13.0329C21.7642 12.9723 21.9651 12.9188 22.166 12.8676C22.3669 12.8163 22.5725 12.7721 22.7734 12.7325C22.979 12.693 23.187 12.6557 23.3926 12.6254C23.6006 12.5952 23.8133 12.5696 24.0213 12.5486C24.2317 12.5277 24.4468 12.5137 24.6595 12.502C24.8745 12.4927 25.092 12.4881 25.3071 12.4881C25.6096 12.4881 25.9121 12.4997 26.2123 12.523C26.5077 12.5439 26.8079 12.5765 27.0986 12.6185C27.3893 12.6604 27.68 12.7139 27.966 12.7744C28.2497 12.835 28.5286 12.8955 28.8074 12.9747C29.923 13.3099 30.7526 13.7546 31.3506 14.0759C31.5728 14.1946 31.8493 14.3436 31.9438 14.3693L32.0431 14.3995C33.518 14.9094 34.8652 14.2901 36.1698 13.6918C36.4818 13.5474 36.7867 13.4077 37.0869 13.289C38.5381 12.6417 40.1027 12.2832 41.6957 12.2296C41.7123 12.2296 41.7288 12.2296 41.7454 12.2273C41.7477 12.2273 41.7501 12.2273 41.7501 12.2273C41.7832 12.2273 41.8139 12.225 41.847 12.225C41.8494 12.225 41.8517 12.225 41.8565 12.225C41.873 12.225 41.8872 12.225 41.9037 12.2227H41.9486C41.951 12.2227 41.9557 12.2227 41.9581 12.2227C41.9723 12.2227 41.9888 12.2227 42.003 12.2227C42.0054 12.2227 42.0101 12.2227 42.0125 12.2227C42.0266 12.2227 42.0408 12.2227 42.0526 12.2227C42.055 12.2227 42.0574 12.2227 42.0597 12.2227C42.0763 12.2227 42.0905 12.2227 42.107 12.2227H42.1165C42.133 12.2227 42.1472 12.2227 42.1637 12.2227C42.1803 12.2227 42.1968 12.2227 42.2157 12.2227H42.2275C42.2441 12.2227 42.2606 12.2227 42.2795 12.2227H42.2843C42.3008 12.2227 42.3174 12.2227 42.3339 12.2227C42.3386 12.2227 42.341 12.2227 42.3457 12.2227C42.3623 12.2227 42.3812 12.2227 42.3977 12.2227H42.4024C42.419 12.2227 42.4355 12.2227 42.4497 12.225C42.4521 12.225 42.4568 12.225 42.4592 12.225C42.4757 12.225 42.4946 12.225 42.5112 12.2273C42.5135 12.2273 42.5159 12.2273 42.5183 12.2273C42.5348 12.2273 42.549 12.2273 42.5632 12.2296C42.5655 12.2296 42.5703 12.2296 42.5726 12.2296C42.5892 12.2296 42.6057 12.2296 42.6246 12.232C42.627 12.232 42.6293 12.232 42.6317 12.232C42.6459 12.232 42.6624 12.232 42.6766 12.2343C42.679 12.2343 42.6837 12.2343 42.6861 12.2343C42.7026 12.2343 42.7192 12.2366 42.7381 12.2366C42.7404 12.2366 42.7428 12.2366 42.7452 12.2366C42.7617 12.2366 42.7759 12.239 42.7924 12.239C42.7948 12.239 42.7971 12.239 42.7995 12.239C42.8161 12.239 42.835 12.2413 42.8515 12.2413C42.8539 12.2413 42.8586 12.2413 42.861 12.2413C42.8775 12.2413 42.8917 12.2436 42.9082 12.2436C42.9106 12.2436 42.9106 12.2436 42.913 12.2436C42.9295 12.2436 42.9484 12.2459 42.965 12.2459H42.9744C42.991 12.2483 43.0075 12.2483 43.024 12.2483H43.0264C43.043 12.2506 43.0619 12.2506 43.0784 12.2529H43.0879C43.1044 12.2553 43.121 12.2553 43.1375 12.2576C43.154 12.2599 43.173 12.2599 43.1895 12.2622C43.1919 12.2622 43.1942 12.2622 43.1989 12.2622C43.2344 12.2646 43.2699 12.2692 43.3029 12.2715H43.31C43.3455 12.2739 43.3786 12.2785 43.414 12.2809H43.4211C43.4566 12.2855 43.4897 12.2878 43.5251 12.2925C43.5275 12.2925 43.5322 12.2925 43.5346 12.2925C43.5511 12.2948 43.57 12.2972 43.5866 12.2995H43.5889C43.6055 12.3018 43.622 12.3041 43.6386 12.3065C43.6409 12.3065 43.6433 12.3065 43.648 12.3065C43.6646 12.3088 43.6811 12.3111 43.7 12.3135H43.7047C43.7213 12.3158 43.7355 12.3181 43.7497 12.3204C43.752 12.3204 43.7567 12.3204 43.7591 12.3228L43.8087 12.3298H43.8158C43.83 12.3321 43.8466 12.3344 43.8607 12.3367C43.8631 12.3367 43.8678 12.3367 43.8702 12.3391L43.9198 12.3461C43.9222 12.3461 43.9246 12.3461 43.9269 12.3484C43.9411 12.3507 43.9576 12.353 43.9718 12.3554C43.9742 12.3554 43.9765 12.3554 43.9813 12.3577C43.9978 12.36 44.0144 12.3623 44.0309 12.3647C44.0333 12.3647 44.038 12.3647 44.0427 12.367C44.0569 12.3693 44.0711 12.3717 44.0853 12.374C44.0876 12.374 44.09 12.374 44.0947 12.3763C44.1113 12.3786 44.1278 12.381 44.142 12.3833C44.1467 12.3833 44.1514 12.3856 44.1538 12.3856C44.168 12.388 44.1798 12.3903 44.194 12.3926C44.1964 12.3926 44.2011 12.3926 44.2034 12.3949C44.22 12.3973 44.2342 12.3996 44.2507 12.4043C44.2554 12.4043 44.2602 12.4066 44.2649 12.4066L44.3051 12.4136C44.3074 12.4136 44.3122 12.4136 44.3145 12.4159C44.3311 12.4182 44.3453 12.4206 44.3594 12.4252C44.3642 12.4252 44.3713 12.4275 44.376 12.4275L44.4138 12.4345C44.4209 12.4345 44.4256 12.4369 44.4327 12.4369C44.4445 12.4392 44.4563 12.4415 44.4705 12.4438L44.4894 12.4485C44.5013 12.4508 44.5131 12.4531 44.5272 12.4555L44.5462 12.4601C44.558 12.4625 44.5698 12.4648 44.5792 12.4671C44.5863 12.4694 44.5934 12.4694 44.5982 12.4718L44.6312 12.4788C44.6407 12.4811 44.6502 12.4834 44.6572 12.4834C44.6667 12.4857 44.6738 12.4857 44.6832 12.4881C44.6903 12.4904 44.6974 12.4904 44.7069 12.4927C44.714 12.4951 44.7234 12.4951 44.7329 12.4974C44.7447 12.4997 44.7589 12.502 44.7707 12.5044C44.7778 12.5067 44.7825 12.5067 44.7896 12.509C44.7991 12.5114 44.8061 12.5137 44.8156 12.5137C44.8203 12.516 44.8251 12.516 44.8298 12.516L44.8818 12.5277C44.8865 12.5277 44.8912 12.53 44.8936 12.53C44.9267 12.537 44.9574 12.5439 44.9905 12.5533C44.9929 12.5533 44.9952 12.5556 44.9976 12.5556C45.0307 12.5626 45.0638 12.5719 45.0992 12.5789H45.1016C46.4346 12.9071 47.7015 13.4566 48.8478 14.2016C49.4457 14.5904 50.0083 15.0305 50.5306 15.5147C50.637 15.6148 50.9348 15.9431 50.8284 16.0851C50.7693 16.162 50.5826 16.1806 50.4195 16.1806C50.2919 16.1806 50.1808 16.169 50.1572 16.1666C49.2094 16.0665 48.2876 15.7964 47.4367 15.3727C46.7702 15.0561 46.0801 14.7278 45.3947 14.4554C44.3287 14.0293 43.1777 13.8477 42.029 13.9269C40.9252 14.0317 39.8451 14.3157 38.8335 14.7627C38.7862 14.7814 38.7366 14.8023 38.6893 14.8186C38.1457 15.0491 37.413 15.3657 37.042 15.5357C35.9926 16.0176 34.6619 16.6276 33.1398 16.623C32.5465 16.6206 31.958 16.5228 31.3979 16.3343C31.0764 16.2481 30.755 16.0758 30.3556 15.864C30.1996 15.7802 30.0318 15.6894 29.8474 15.5962C29.6772 15.5147 29.4929 15.4216 29.318 15.3471C29.1407 15.2726 28.9611 15.2051 28.7791 15.1399C28.5971 15.077 28.4127 15.0165 28.226 14.963C28.0393 14.9094 27.8502 14.8582 27.6611 14.8163C27.4721 14.772 27.2759 14.7325 27.0844 14.6999C26.8906 14.6673 26.6921 14.637 26.4959 14.6137C26.2974 14.5904 26.0965 14.5741 25.898 14.5602C25.6971 14.5485 25.4938 14.5415 25.2905 14.5415C19.5141 14.5206 14.7965 19.1351 14.7776 24.8252C14.7587 30.4152 19.5117 35.0507 25.879 35.1671V35.1624C28.2709 35.202 30.8684 34.7224 33.1303 33.7585L34.1112 33.3627C34.8179 33.074 35.4206 32.8203 35.9524 32.5968C37.5525 31.9216 39.396 31.2837 40.8591 30.9321C41.1072 30.8599 41.3601 30.7994 41.613 30.7528C41.9179 30.7016 42.8019 30.5456 43.3549 30.5456C43.4164 30.5456 43.4731 30.5479 43.5275 30.5503C43.6078 30.5479 43.6882 30.5479 43.7709 30.5503C44.2696 30.5736 44.7636 30.6574 45.2434 30.7994C45.8626 30.9996 46.4653 31.2511 47.0444 31.5491C47.7795 31.9169 48.5381 32.2359 49.3181 32.5013C49.5828 32.5921 49.8546 32.6643 50.1288 32.7178C50.2281 32.7365 50.4242 32.7807 50.4762 32.8855C50.5306 32.9995 50.4195 33.1811 50.3226 33.265C49.9492 33.5979 49.5545 33.9075 49.1432 34.1916C49.0109 34.2801 48.8572 34.3313 48.6989 34.3359C48.5192 34.3359 48.342 34.301 48.1765 34.2335C48.1174 34.2079 48.0536 34.1753 47.9874 34.1427C47.3209 33.8261 46.6308 33.4955 45.9454 33.2254C44.8794 32.7993 43.7284 32.6177 42.5797 32.6969C41.9156 32.7574 40.5967 33.0973 40.5967 33.0973C40.5731 33.1043 40.5494 33.1113 40.5258 33.1183C40.5069 33.1229 40.488 33.1276 40.4667 33.1323C39.2306 33.4372 38.2923 33.833 36.7702 34.4733C36.002 34.7969 35.0921 35.1787 33.9363 35.6397C31.639 36.6176 28.8405 37.1531 26.3612 37.2113C26.2903 37.2159 26.1438 37.2182 25.9783 37.2159C25.6852 37.2276 25.3213 37.2206 25.2291 37.2206Z" fill="#8F14CC"/>
<path d="M38.0973 36.2472C38.0925 36.2449 38.0004 36.1983 37.9815 36.189C37.7569 36.0796 37.6813 35.7793 37.9956 35.6256C38.8441 35.3369 39.9574 34.9341 40.7822 34.6454C41.8978 34.2729 43.0938 34.1984 44.2472 34.4312C45.0768 34.6035 45.9654 34.9318 46.8659 35.2903C46.9014 35.3043 47.3788 35.5674 46.8659 35.8933C46.4547 36.1331 44.5473 37.0155 42.4509 37.0644C42.3374 37.0667 42.2216 37.0667 42.1058 37.0644C40.5293 37.0365 38.8796 36.5499 38.0973 36.2472ZM32.5808 31.6001C32.439 31.5722 32.3043 31.521 32.1837 31.4465C32.075 31.3603 31.9828 31.2579 31.9096 31.1415C31.5527 30.6083 31.2383 30.0472 30.9712 29.4652C30.924 29.3441 30.9263 29.2091 30.9783 29.088C31.0516 28.9553 31.2289 28.9297 31.3754 28.9809C31.737 29.1066 32.1081 29.223 32.4792 29.3301C33.4104 29.5769 34.396 29.5443 35.3107 29.2417C36.1828 28.9669 37.0455 28.641 37.9082 28.3243C39.0214 27.9053 40.1086 27.5816 41.2218 27.1952C42.0633 26.9181 43.1741 26.8762 44.0321 27.0485C45.0768 27.265 45.8804 27.5351 46.8825 28.0706C47.6105 28.4501 48.3644 28.7807 49.1397 29.0624C50.3025 29.4931 51.5788 29.521 52.7582 29.1439C52.8953 29.0996 53.1695 29.0414 53.2711 29.1555C53.3538 29.2486 53.2758 29.5071 53.2191 29.6281C52.9875 30.1147 52.7228 30.5827 52.4273 31.0344C52.3564 31.1624 52.2571 31.2718 52.139 31.358C51.9877 31.4558 51.7655 31.4977 51.6781 31.514C51.3779 31.5652 51.0707 31.5792 50.7658 31.5536C49.7211 31.4651 48.7048 31.1694 47.7806 30.6851C47.1212 30.3569 46.4334 30.0146 45.7551 29.7329C44.6962 29.2882 43.5476 29.088 42.3989 29.1462C41.2928 29.2323 40.2079 29.4978 39.1892 29.9261C37.7475 30.4872 36.2986 31.0041 34.8474 31.507C34.1171 31.7445 33.33 31.7794 32.5808 31.6001ZM32.5383 27.8447C31.8505 27.6678 31.1792 27.4326 30.5293 27.1463C30.4016 27.0927 30.2858 27.0136 30.1936 26.9111C30.1086 26.804 30.0802 26.6457 30.0707 26.5828C29.9951 26.1614 29.9455 25.7377 29.9148 25.3116C29.9124 25.2884 29.9124 25.0788 29.9786 24.988C30.0802 24.853 30.3 24.8297 30.4962 24.9019C31.0989 25.1254 31.997 25.4467 32.4366 25.5724C33.3679 25.8192 34.3535 25.7866 35.2681 25.4816C36.1403 25.2092 37.003 24.8809 37.8656 24.5643C38.6834 24.257 39.4965 23.9473 40.3213 23.6493C40.4821 23.5911 42.0254 23.1138 43.5357 23.314C44.786 23.4794 46.4807 24.229 46.8069 24.4036C47.549 24.7831 48.329 25.0323 49.0948 25.3023C50.2576 25.7331 51.5315 25.761 52.7133 25.3838C53.1458 25.2418 53.5784 25.0881 54.0156 24.9275C54.0912 24.9042 54.174 24.9042 54.2496 24.9321C54.3205 24.9717 54.363 25.0486 54.3607 25.13C54.3347 25.6283 54.2756 26.1265 54.1881 26.6178C54.174 26.7156 54.1385 26.8064 54.0818 26.8878C54.0109 26.9577 53.9258 27.0089 53.8336 27.0438C53.7036 27.0904 53.2782 27.3092 52.796 27.4513C52.328 27.5886 51.8483 27.6841 51.3637 27.7353C51.1085 27.7446 50.8556 27.7376 50.6003 27.7167C49.5864 27.6352 48.7048 27.414 47.7357 26.9181C47.0763 26.5898 46.3909 26.2476 45.7102 25.9659C44.6513 25.5212 43.5027 25.321 42.354 25.3792C41.2479 25.4653 40.1654 25.7307 39.1443 26.1591C37.7026 26.7202 36.2537 27.2371 34.8025 27.74C34.0722 27.9891 33.2875 28.024 32.5383 27.8447ZM32.4934 24.0893C31.7725 23.9031 31.0682 23.654 30.3898 23.349C30.2598 23.2884 30.1511 23.1907 30.0826 23.0649C30.0282 22.9322 30.0093 22.7879 30.0282 22.6482C30.0849 22.2873 30.1582 21.9218 30.2504 21.5586C30.2669 21.498 30.326 21.3514 30.4347 21.2955C30.5576 21.2326 30.7396 21.2699 30.8271 21.3025C31.3423 21.4934 31.867 21.6657 32.3941 21.817C33.3253 22.0638 34.3109 22.0312 35.2256 21.7262C36.0977 21.4538 36.9604 21.1255 37.8231 20.8089C38.7732 20.4504 39.6619 20.1919 40.6002 19.8799C40.7515 19.8287 41.8269 19.561 42.2311 19.5214C42.6494 19.4795 43.8832 19.2979 45.4147 19.9195C45.8662 20.0848 47.0952 20.7088 47.2512 20.7856C47.835 21.0743 48.4377 21.3281 49.0522 21.5493C50.2458 21.98 51.3874 22.1825 52.6708 21.6308C52.9567 21.5353 53.2404 21.4375 53.5334 21.3327C53.5973 21.3095 53.7556 21.2559 53.8643 21.3002C53.9494 21.3351 53.992 21.4678 54.0062 21.5237C54.1149 21.952 54.2 22.3851 54.2614 22.8228C54.2756 22.902 54.2614 22.9858 54.2189 23.0556C54.174 23.1231 54.0605 23.172 54.0132 23.1907C53.4011 23.4211 52.8268 23.6633 52.1106 23.8682C51.6497 24.0195 51.1605 24.0777 50.6759 24.0358C49.6313 23.9473 48.615 23.6516 47.6885 23.1674C47.029 22.8391 46.3436 22.4968 45.6605 22.2151C44.6017 21.7704 43.453 21.5702 42.3043 21.6284C41.1982 21.7146 40.1157 21.9777 39.0947 22.4084C37.6529 22.9695 36.2041 23.4863 34.7529 23.9892C34.0296 24.2337 33.2426 24.2663 32.4934 24.0893ZM32.4508 20.3339C32.075 20.2362 31.6992 20.1221 31.3211 19.987C31.236 19.9568 31.0516 19.8799 30.9902 19.7356C30.9429 19.6285 31.0067 19.4585 31.0611 19.3514C31.2407 18.9906 31.5243 18.4644 31.6779 18.213C31.7465 18.1198 31.8458 18.0523 31.9592 18.0244C32.0986 17.9964 32.2405 17.9988 32.3775 18.0337C33.3206 18.2805 34.2518 18.2758 35.1807 17.9708C36.0528 17.6984 36.9155 17.3701 37.7782 17.0535C38.6858 16.7136 39.4965 16.4482 40.3733 16.1525C41.002 15.9732 41.652 15.8778 42.3067 15.8685C42.5643 15.8661 43.3987 15.8522 44.2424 16.0198C45.3391 16.2363 46.4618 16.7508 46.7218 16.8905C47.4639 17.27 48.3644 17.5983 49.1278 17.8684C50.1158 18.2246 51.0352 18.2479 52.0137 18.036C52.1295 18.0104 52.2501 18.0127 52.3659 18.043C52.4628 18.0779 52.5455 18.1408 52.6046 18.2269C52.8386 18.6064 53.0513 18.9999 53.2404 19.4027C53.2782 19.4679 53.2829 19.547 53.2545 19.6169C53.2144 19.6751 53.16 19.7193 53.0938 19.7449C52.7558 19.866 52.4108 19.9894 52.0657 20.1128C51.6048 20.2641 51.1156 20.3223 50.631 20.2804C49.5864 20.1919 48.57 19.8962 47.6459 19.412C46.9865 19.0837 46.2987 18.7415 45.618 18.4597C44.5591 18.0151 43.4105 17.8148 42.2618 17.873C41.1557 17.9592 40.0708 18.2223 39.0521 18.653C37.6104 19.2141 36.1615 19.7309 34.7103 20.2338C33.9847 20.4783 33.2001 20.5109 32.4508 20.3339Z" fill="url(#paint0_linear_8119_50211)"/>
<path d="M67.973 23.2163C66.856 23.2187 65.7651 22.8836 64.8382 22.2585C63.9375 21.6501 63.2316 20.7921 62.8062 19.7915C62.067 18.0471 62.2619 16.0459 63.3243 14.4749C63.9327 13.5742 64.7907 12.8683 65.7913 12.4429C67.5381 11.7038 69.5369 11.8987 71.1078 12.961C71.4049 13.163 71.683 13.3912 71.9373 13.6455C71.9539 13.6621 71.9729 13.6811 71.9943 13.7025L70.2546 15.3947C70.2451 15.3828 70.2332 15.3733 70.2237 15.3614C68.9807 14.1184 66.9677 14.1184 65.7247 15.3591C64.4817 16.5997 64.4817 18.6151 65.7223 19.8581C66.9653 21.1011 68.9784 21.1011 70.2213 19.8605L70.2237 19.8581C70.2356 19.8486 70.2451 19.8367 70.2546 19.8248L71.9943 21.5146C71.9729 21.536 71.9539 21.555 71.9373 21.5716C71.4263 22.0826 70.8203 22.4914 70.1548 22.7742C69.4656 23.0665 68.7217 23.2163 67.973 23.2163Z" fill="#8F14CC"/>
<path d="M73.332 12.0234H78.4181C80.3289 12.0187 81.7383 13.4471 81.7715 15.0299C81.7953 16.5462 81.7121 17.2925 80.1103 18.5117C81.7739 23.1961 81.8571 23.1961 81.8571 23.1961C81.8571 23.1961 81.5529 23.2032 79.3188 23.1961C79.2737 23.1961 79.1121 23.1961 79.1121 23.1961L77.61 18.6567H75.8394V22.8943C75.837 22.9798 75.8394 23.1985 75.8394 23.1985C75.8394 23.1985 75.616 23.1961 75.5352 23.1985H73.332V12.0234ZM78.064 16.8053C78.7009 16.8053 79.4163 16.1493 79.4091 15.3959C79.402 14.6402 78.7128 14.0555 78.064 14.0507H75.7729V16.8053H78.064Z" fill="#8F14CC"/>
<path d="M83.2227 12.043H90.412V14.3792H85.7039V16.0999C89.402 16.1023 89.6325 16.0999 89.6325 16.0999V18.4362H85.7039V20.8342H90.412V23.1728H83.2227V12.043Z" fill="#8F14CC"/>
<path d="M91.8945 12.4034C91.8945 12.3369 91.8945 12.1016 91.8945 12.1016C91.8945 12.1016 92.087 12.1063 92.1797 12.1016H96.0466C99.1053 12.1016 101.61 14.5899 101.61 17.632C101.606 20.7027 99.1172 23.191 96.0466 23.1958H92.1797C92.1108 23.1934 91.8945 23.1958 91.8945 23.1958C91.8945 23.1958 91.8945 22.9866 91.8945 22.8939V12.4034ZM95.8018 20.9C97.5557 20.9 98.8272 19.5191 98.8272 17.7485C98.8272 15.9803 97.5581 14.6137 95.8018 14.6137H94.3187V20.8976H95.8018V20.9Z" fill="#8F14CC"/>
<path d="M127.633 23.2163C126.516 23.2187 125.425 22.8836 124.498 22.2585C123.598 21.6501 122.892 20.7921 122.466 19.7915C121.727 18.0471 121.922 16.0459 122.984 14.4749C123.593 13.5742 124.451 12.8683 125.451 12.4429C127.198 11.7038 129.197 11.8987 130.768 12.961C131.065 13.163 131.343 13.3912 131.597 13.6455C131.614 13.6621 131.633 13.6811 131.654 13.7025L129.915 15.3947C129.905 15.3828 129.893 15.3733 129.884 15.3614C128.641 14.1184 126.628 14.1184 125.385 15.3591C124.142 16.5997 124.142 18.6151 125.383 19.8581C126.623 21.1011 128.639 21.1011 129.882 19.8605L129.884 19.8581C129.893 19.8462 129.905 19.8367 129.915 19.8248L131.654 21.5146C131.633 21.536 131.614 21.555 131.597 21.5716C131.086 22.0826 130.48 22.4914 129.815 22.7742C129.126 23.0665 128.382 23.2163 127.633 23.2163Z" fill="#8F14CC"/>
<path d="M102.766 12.043H109.955V14.3792H105.247V16.0999C108.945 16.1023 109.175 16.0999 109.175 16.0999V18.4362H105.247V20.8342H109.955V23.1728H102.766V12.043Z" fill="#8F14CC"/>
<path d="M113.842 16.608V23.1533H111.332V12.0234H113.842L118.277 18.6923V12.0234H120.786V23.1533H118.317L113.842 16.608Z" fill="#8F14CC"/>
<path d="M66.6508 27.2852H67.6561L72.1361 37.3313H70.6721L69.3411 34.37H65.0798L63.8321 37.3313H62.3633L66.6508 27.2852ZM68.7517 33.0985L67.1404 29.4812L65.6454 33.0985H68.7517Z" fill="#590484"/>
<path d="M81.398 35.015V36.5884C80.3499 37.1612 79.1378 37.4464 77.7641 37.4464C76.6494 37.4464 75.7035 37.2229 74.9264 36.7738C74.1492 36.3269 73.5336 35.709 73.0821 34.9223C72.6281 34.1357 72.4023 33.2848 72.4023 32.3698C72.4023 30.9153 72.9205 29.6937 73.9591 28.7026C74.9953 27.7116 76.2739 27.2148 77.795 27.2148C78.8431 27.2148 80.01 27.4882 81.291 28.0372V29.5749C80.1217 28.907 78.9809 28.5743 77.8663 28.5743C76.7231 28.5743 75.7724 28.9355 75.0167 29.658C74.2609 30.3805 73.883 31.2837 73.883 32.3722C73.883 33.4678 74.2538 34.3686 74.9976 35.0744C75.7415 35.7803 76.6922 36.1321 77.8496 36.1321C79.0617 36.1321 80.2453 35.7589 81.398 35.015Z" fill="#590484"/>
<path d="M86.8578 27.2852H87.8631L92.3431 37.3313H90.8791L89.5482 34.37H85.2868L84.0391 37.3313H82.5703L86.8578 27.2852ZM88.9611 33.0985L87.3498 29.4812L85.8549 33.0985H88.9611Z" fill="#590484"/>
<path d="M93.5977 37.3186V27.3438H96.9654C98.3248 27.3438 99.3991 27.5481 100.19 27.9546C100.982 28.361 101.612 28.9623 102.078 29.7537C102.543 30.5451 102.779 31.4078 102.779 32.3419C102.779 33.0097 102.65 33.649 102.394 34.2574C102.137 34.8682 101.769 35.403 101.293 35.8664C100.808 36.3441 100.243 36.703 99.5987 36.9454C99.2232 37.0928 98.8762 37.1926 98.5625 37.2425C98.2488 37.2924 97.6475 37.3186 96.761 37.3186H93.5977ZM96.8157 28.6176H95.0284V36.0471H96.8584C97.5738 36.0471 98.1299 35.9972 98.5245 35.8997C98.9214 35.8023 99.2493 35.6787 99.5155 35.529C99.7793 35.3792 100.022 35.1938 100.24 34.9752C100.946 34.2598 101.298 33.3567 101.298 32.2658C101.298 31.1939 100.934 30.3193 100.212 29.642C99.9457 29.3901 99.6391 29.1809 99.2921 29.0193C98.9475 28.8577 98.6195 28.7507 98.3082 28.6984C97.9968 28.6462 97.5025 28.6176 96.8157 28.6176Z" fill="#590484"/>
<path d="M104.715 27.3438H110.378V28.6176H106.146V31.6645H110.236V32.9455H106.146V36.0494H110.514V37.3233H104.715V27.3438Z" fill="#590484"/>
<path d="M120.124 27.3438H121.462V37.3328H120.024V29.5612L116.953 33.4232H116.689L113.583 29.5612V37.3328H112.152V27.3438H113.507L116.825 31.4459L120.124 27.3438Z" fill="#590484"/>
<path d="M129.771 27.3438H131.506L127.818 32.0495V37.3328H126.351V32.0495L122.66 27.3438H124.386L127.059 30.7875L129.771 27.3438Z" fill="#590484"/>
<defs>
<linearGradient id="paint0_linear_8119_50211" x1="30.843" y1="26.0427" x2="53.236" y2="25.9017" gradientUnits="userSpaceOnUse">
<stop stop-color="#8F14CC"/>
<stop offset="1" stop-color="#00B1BB"/>
</linearGradient>
</defs>
</svg>
