<svg width="119" height="40" viewBox="0 0 119 40" fill="none" xmlns="http://www.w3.org/2000/svg">
<path d="M12.5338 32.4979C12.3187 32.4979 12.1012 32.4909 11.8862 32.4793C11.6734 32.4677 11.4584 32.4514 11.248 32.4304C11.0377 32.4095 10.8273 32.3815 10.6193 32.3489C10.4137 32.3163 10.2057 32.2791 10.0001 32.2372C9.79681 32.1953 9.59354 32.1487 9.39264 32.0975C9.19411 32.0462 8.99321 31.9904 8.79704 31.9275C8.60086 31.867 8.40469 31.8018 8.21324 31.7319C8.0218 31.6621 7.83035 31.5876 7.64363 31.5084C7.45692 31.4293 7.2702 31.3455 7.08821 31.2593C6.90621 31.1708 6.72423 31.0963 6.54696 30.9986C6.3697 30.9031 6.18534 30.817 6.0128 30.7145C5.84027 30.6097 5.6701 30.5027 5.50465 30.3909C5.3392 30.2791 5.17375 30.1627 5.01303 30.044C4.85231 29.9253 4.69396 29.8019 4.54033 29.6738C4.3867 29.5481 4.23307 29.4154 4.08417 29.2827C3.93527 29.15 3.79109 29.0103 3.64928 28.8706C3.50747 28.7309 3.36802 28.5865 3.23566 28.4399C3.10094 28.2932 2.96859 28.1419 2.84332 27.9882C2.71805 27.8345 2.59042 27.6785 2.47224 27.5202C2.35407 27.3619 2.2359 27.1989 2.12245 27.0336C2.01136 26.8683 1.90027 26.7007 1.79628 26.5307C1.69228 26.3608 1.59065 26.1862 1.49611 26.0115C1.40157 25.8369 1.30703 25.6553 1.21958 25.4761C1.13213 25.2968 1.04704 25.1105 0.969046 24.9266C0.89105 24.7427 0.815417 24.5518 0.746874 24.3632C0.678332 24.1746 0.612149 23.979 0.550698 23.7881C0.489246 23.5949 0.434887 23.397 0.38289 23.1991C0.333256 23.0012 0.285988 22.7986 0.245808 22.6007C0.205629 22.4005 0.167807 22.1933 0.137081 21.9907C0.106355 21.7859 0.0803598 21.5763 0.0590881 21.3714C0.0378164 21.1642 0.0236347 20.9524 0.0141806 20.7428C0.00472647 20.531 0 20.3168 0 20.1049C0 19.893 0.0070874 19.6788 0.018905 19.467C0.0307226 19.2574 0.0472725 19.0456 0.0685442 18.8384C0.0921794 18.6311 0.118172 18.4239 0.151262 18.219C0.184351 18.0165 0.22217 17.8116 0.264713 17.6091C0.307257 17.4088 0.354529 17.2086 0.406526 17.0107C0.458524 16.8151 0.515251 16.6172 0.579066 16.424C0.640518 16.2308 0.709059 16.0375 0.777601 15.8489C0.848507 15.6604 0.924138 15.4718 1.0045 15.2878C1.08486 15.1039 1.16995 14.92 1.2574 14.7407C1.34485 14.5614 1.43939 14.3822 1.53629 14.2076C1.63319 14.0329 1.73483 13.8583 1.84119 13.6907C1.94518 13.5231 2.05626 13.3531 2.16971 13.1901C2.28316 13.0272 2.40134 12.8642 2.52188 12.7059C2.64242 12.5475 2.76769 12.3916 2.89768 12.2402C3.02768 12.0889 3.16003 11.9376 3.29475 11.7909C3.42947 11.6442 3.57128 11.5022 3.71309 11.3625C3.85491 11.2228 4.00144 11.0854 4.15035 10.9551C4.29925 10.8223 4.45288 10.692 4.60887 10.5686C4.76486 10.4452 4.92322 10.3195 5.08394 10.203C5.24466 10.0843 5.41011 9.97022 5.57792 9.85847C5.74336 9.74904 5.9159 9.63962 6.08844 9.53718C6.26098 9.43474 6.43824 9.33462 6.6155 9.2415C6.79276 9.14837 6.97476 9.05524 7.15912 8.9691C7.34111 8.88295 7.53019 8.79914 7.7169 8.72231C7.90362 8.64548 8.09743 8.57097 8.28888 8.50346C8.48269 8.43361 8.67886 8.37075 8.87267 8.31021C9.06884 8.24968 9.26974 8.19613 9.47064 8.14491C9.67154 8.09369 9.87716 8.04946 10.0781 8.00988C10.2837 7.9703 10.4917 7.93305 10.6973 7.90278C10.9053 7.87251 11.118 7.8469 11.326 7.82595C11.5364 7.80499 11.7514 7.79103 11.9642 7.77938C12.1792 7.77007 12.3967 7.76542 12.6118 7.76542C12.9143 7.76542 13.2168 7.77706 13.517 7.80034C13.8124 7.82129 14.1126 7.85389 14.4033 7.89579C14.694 7.9377 14.9847 7.99125 15.2707 8.05178C15.5543 8.11232 15.8332 8.17285 16.1121 8.25201C17.2277 8.58727 18.0573 9.03196 18.6553 9.35325C18.8775 9.47199 19.154 9.62099 19.2485 9.6466L19.3478 9.67687C20.8226 10.1867 22.1699 9.56744 23.4745 8.9691C23.7865 8.82475 24.0914 8.68506 24.3916 8.56632C25.8428 7.91908 27.4074 7.56053 29.0004 7.50698C29.017 7.50698 29.0335 7.50698 29.0501 7.50466C29.0524 7.50466 29.0548 7.50466 29.0548 7.50466C29.0879 7.50466 29.1186 7.50233 29.1517 7.50233C29.1541 7.50233 29.1564 7.50233 29.1612 7.50233C29.1777 7.50233 29.1919 7.50233 29.2084 7.5H29.2533C29.2557 7.5 29.2604 7.5 29.2628 7.5C29.277 7.5 29.2935 7.5 29.3077 7.5C29.3101 7.5 29.3148 7.5 29.3171 7.5C29.3313 7.5 29.3455 7.5 29.3573 7.5C29.3597 7.5 29.3621 7.5 29.3644 7.5C29.381 7.5 29.3951 7.5 29.4117 7.5H29.4211C29.4377 7.5 29.4519 7.5 29.4684 7.5C29.485 7.5 29.5015 7.5 29.5204 7.5H29.5322C29.5488 7.5 29.5653 7.5 29.5842 7.5H29.589C29.6055 7.5 29.622 7.5 29.6386 7.5C29.6433 7.5 29.6457 7.5 29.6504 7.5C29.6669 7.5 29.6859 7.5 29.7024 7.5H29.7071C29.7237 7.5 29.7402 7.5 29.7544 7.50233C29.7568 7.50233 29.7615 7.50233 29.7639 7.50233C29.7804 7.50233 29.7993 7.50233 29.8158 7.50466C29.8182 7.50466 29.8206 7.50466 29.8229 7.50466C29.8395 7.50466 29.8537 7.50466 29.8678 7.50698C29.8702 7.50698 29.8749 7.50698 29.8773 7.50698C29.8938 7.50698 29.9104 7.50698 29.9293 7.50931C29.9317 7.50931 29.934 7.50931 29.9364 7.50931C29.9506 7.50931 29.9671 7.50931 29.9813 7.51164C29.9837 7.51164 29.9884 7.51164 29.9908 7.51164C30.0073 7.51164 30.0238 7.51397 30.0427 7.51397C30.0451 7.51397 30.0475 7.51397 30.0498 7.51397C30.0664 7.51397 30.0806 7.5163 30.0971 7.5163C30.0995 7.5163 30.1018 7.5163 30.1042 7.5163C30.1207 7.5163 30.1397 7.51863 30.1562 7.51863C30.1586 7.51863 30.1633 7.51863 30.1657 7.51863C30.1822 7.51863 30.1964 7.52095 30.2129 7.52095C30.2153 7.52095 30.2153 7.52095 30.2176 7.52095C30.2342 7.52095 30.2531 7.52328 30.2696 7.52328H30.2791C30.2956 7.52561 30.3122 7.52561 30.3287 7.52561H30.3311C30.3476 7.52794 30.3666 7.52794 30.3831 7.53027H30.3925C30.4091 7.53259 30.4256 7.53259 30.4422 7.53492C30.4587 7.53725 30.4776 7.53725 30.4942 7.53958C30.4965 7.53958 30.4989 7.53958 30.5036 7.53958C30.5391 7.54191 30.5745 7.54656 30.6076 7.54889H30.6147C30.6502 7.55122 30.6833 7.55588 30.7187 7.55821H30.7258C30.7613 7.56286 30.7944 7.56519 30.8298 7.56985C30.8322 7.56985 30.8369 7.56985 30.8393 7.56985C30.8558 7.57217 30.8747 7.5745 30.8913 7.57683H30.8936C30.9102 7.57916 30.9267 7.58149 30.9433 7.58382C30.9456 7.58382 30.948 7.58382 30.9527 7.58382C30.9692 7.58614 30.9858 7.58847 31.0047 7.5908H31.0094C31.026 7.59313 31.0402 7.59546 31.0543 7.59778C31.0567 7.59778 31.0614 7.59778 31.0638 7.60011L31.1134 7.6071H31.1205C31.1347 7.60943 31.1512 7.61175 31.1654 7.61408C31.1678 7.61408 31.1725 7.61408 31.1749 7.61641L31.2245 7.62339C31.2269 7.62339 31.2292 7.62339 31.2316 7.62572C31.2458 7.62805 31.2623 7.63038 31.2765 7.63271C31.2789 7.63271 31.2812 7.63271 31.286 7.63504C31.3025 7.63736 31.3191 7.63969 31.3356 7.64202C31.338 7.64202 31.3427 7.64202 31.3474 7.64435C31.3616 7.64668 31.3758 7.649 31.39 7.65133C31.3923 7.65133 31.3947 7.65133 31.3994 7.65366C31.416 7.65599 31.4325 7.65832 31.4467 7.66065C31.4514 7.66065 31.4561 7.66297 31.4585 7.66297C31.4727 7.6653 31.4845 7.66763 31.4987 7.66996C31.501 7.66996 31.5058 7.66996 31.5081 7.67229C31.5247 7.67462 31.5389 7.67694 31.5554 7.6816C31.5601 7.6816 31.5649 7.68393 31.5696 7.68393L31.6098 7.69091C31.6121 7.69091 31.6169 7.69091 31.6192 7.69324C31.6358 7.69557 31.6499 7.6979 31.6641 7.70255C31.6689 7.70255 31.6759 7.70488 31.6807 7.70488L31.7185 7.71187C31.7256 7.71187 31.7303 7.71419 31.7374 7.71419C31.7492 7.71652 31.761 7.71885 31.7752 7.72118L31.7941 7.72584C31.8059 7.72816 31.8178 7.73049 31.8319 7.73282L31.8508 7.73748C31.8627 7.7398 31.8745 7.74213 31.8839 7.74446C31.891 7.74679 31.8981 7.74679 31.9028 7.74912L31.9359 7.7561C31.9454 7.75843 31.9548 7.76076 31.9619 7.76076C31.9714 7.76309 31.9785 7.76309 31.9879 7.76542C31.995 7.76774 32.0021 7.76774 32.0116 7.77007C32.0187 7.7724 32.0281 7.7724 32.0376 7.77473C32.0494 7.77706 32.0636 7.77938 32.0754 7.78171C32.0825 7.78404 32.0872 7.78404 32.0943 7.78637C32.1037 7.7887 32.1108 7.79103 32.1203 7.79103C32.125 7.79335 32.1297 7.79335 32.1345 7.79335L32.1865 7.80499C32.1912 7.80499 32.1959 7.80732 32.1983 7.80732C32.2314 7.81431 32.2621 7.82129 32.2952 7.8306C32.2976 7.8306 32.2999 7.83293 32.3023 7.83293C32.3354 7.83992 32.3685 7.84923 32.4039 7.85621H32.4063C33.7393 8.18449 35.0061 8.73395 36.1525 9.47897C36.7504 9.86778 37.313 10.3078 37.8353 10.7921C37.9416 10.8922 38.2394 11.2205 38.1331 11.3625C38.074 11.4393 37.8873 11.4579 37.7242 11.4579C37.5966 11.4579 37.4855 11.4463 37.4618 11.444C36.5141 11.3439 35.5923 11.0738 34.7414 10.6501C34.0749 10.3334 33.3848 10.0051 32.6993 9.73275C31.6334 9.30669 30.4824 9.12509 29.3337 9.20424C28.2299 9.30901 27.1498 9.59305 26.1382 10.0401C26.0909 10.0587 26.0413 10.0796 25.994 10.0959C25.4504 10.3264 24.7177 10.6431 24.3467 10.813C23.2973 11.295 21.9666 11.905 20.4445 11.9003C19.8512 11.898 19.2627 11.8002 18.7026 11.6116C18.3811 11.5255 18.0597 11.3532 17.6602 11.1413C17.5043 11.0575 17.3364 10.9667 17.1521 10.8736C16.9819 10.7921 16.7976 10.699 16.6227 10.6244C16.4454 10.5499 16.2658 10.4824 16.0838 10.4172C15.9018 10.3544 15.7174 10.2938 15.5307 10.2403C15.344 10.1867 15.1549 10.1355 14.9658 10.0936C14.7768 10.0494 14.5806 10.0098 14.3891 9.97721C14.1953 9.94461 13.9968 9.91435 13.8006 9.89106C13.6021 9.86778 13.4012 9.85149 13.2026 9.83752C13.0017 9.82588 12.7985 9.81889 12.5952 9.81889C6.81877 9.79794 2.10117 14.4124 2.08226 20.1026C2.06336 25.6926 6.8164 30.328 13.1837 30.4444V30.4398C15.5756 30.4794 18.1731 29.9998 20.435 29.0359L21.4159 28.6401C22.1226 28.3514 22.7253 28.0976 23.2571 27.8741C24.8572 27.1989 26.7007 26.561 28.1637 26.2094C28.4119 26.1373 28.6648 26.0767 28.9177 26.0302C29.2226 25.979 30.1066 25.823 30.6596 25.823C30.7211 25.823 30.7778 25.8253 30.8322 25.8276C30.9125 25.8253 30.9929 25.8253 31.0756 25.8276C31.5743 25.8509 32.0683 25.9347 32.5481 26.0767C33.1673 26.277 33.77 26.5284 34.3491 26.8264C35.0841 27.1943 35.8428 27.5132 36.6228 27.7787C36.8875 27.8695 37.1593 27.9416 37.4335 27.9952C37.5328 28.0138 37.7289 28.058 37.7809 28.1628C37.8353 28.2769 37.7242 28.4585 37.6273 28.5423C37.2539 28.8752 36.8591 29.1849 36.4479 29.4689C36.3155 29.5574 36.1619 29.6086 36.0036 29.6133C35.8239 29.6133 35.6467 29.5784 35.4812 29.5108C35.4221 29.4852 35.3583 29.4526 35.2921 29.42C34.6256 29.1034 33.9355 28.7728 33.25 28.5027C32.1841 28.0767 31.0331 27.8951 29.8844 27.9742C29.2202 28.0348 27.9014 28.3747 27.9014 28.3747C27.8778 28.3817 27.8541 28.3886 27.8305 28.3956C27.8116 28.4003 27.7927 28.4049 27.7714 28.4096C26.5353 28.7146 25.597 29.1104 24.0749 29.7506C23.3067 30.0743 22.3967 30.4561 21.241 30.9171C18.9436 31.8949 16.1452 32.4304 13.6659 32.4886C13.595 32.4933 13.4485 32.4956 13.283 32.4933C12.9899 32.5049 12.6259 32.4979 12.5338 32.4979Z" fill="#8F14CC"/>
<path d="M25.402 31.5246C25.3972 31.5222 25.3051 31.4757 25.2861 31.4664C25.0616 31.3569 24.986 31.0566 25.3003 30.9029C26.1488 30.6142 27.2621 30.2115 28.0869 29.9228C29.2025 29.5502 30.3984 29.4757 31.5518 29.7086C32.3814 29.8809 33.2701 30.2091 34.1706 30.5677C34.2061 30.5816 34.6835 30.8447 34.1706 31.1707C33.7594 31.4105 31.852 32.2929 29.7556 32.3418C29.6421 32.3441 29.5263 32.3441 29.4105 32.3418C27.834 32.3138 26.1843 31.8272 25.402 31.5246ZM19.8855 26.8775C19.7437 26.8495 19.609 26.7983 19.4884 26.7238C19.3797 26.6377 19.2875 26.5352 19.2143 26.4188C18.8574 25.8857 18.543 25.3246 18.2759 24.7425C18.2287 24.6214 18.231 24.4864 18.283 24.3653C18.3563 24.2326 18.5336 24.207 18.6801 24.2582C19.0417 24.384 19.4128 24.5004 19.7839 24.6075C20.7151 24.8543 21.7007 24.8217 22.6154 24.519C23.4875 24.2443 24.3502 23.9183 25.2129 23.6017C26.3261 23.1826 27.4133 22.859 28.5265 22.4725C29.368 22.1955 30.4788 22.1535 31.3368 22.3258C32.3814 22.5424 33.185 22.8124 34.1872 23.3479C34.9151 23.7274 35.6691 24.058 36.4443 24.3397C37.6072 24.7704 38.8835 24.7984 40.0629 24.4212C40.2 24.377 40.4742 24.3188 40.5758 24.4329C40.6585 24.526 40.5805 24.7844 40.5238 24.9055C40.2922 25.3921 40.0274 25.86 39.732 26.3117C39.6611 26.4398 39.5618 26.5492 39.4437 26.6353C39.2924 26.7331 39.0702 26.775 38.9828 26.7913C38.6826 26.8425 38.3753 26.8565 38.0704 26.8309C37.0258 26.7424 36.0095 26.4467 35.0853 25.9625C34.4259 25.6342 33.7381 25.292 33.0598 25.0102C32.0009 24.5656 30.8522 24.3653 29.7036 24.4235C28.5974 24.5097 27.5126 24.7751 26.4939 25.2035C25.0522 25.7646 23.6033 26.2814 22.1521 26.7843C21.4218 27.0218 20.6347 27.0567 19.8855 26.8775ZM19.843 23.1221C19.1552 22.9451 18.4839 22.71 17.834 22.4236C17.7063 22.3701 17.5905 22.2909 17.4983 22.1885C17.4132 22.0814 17.3849 21.9231 17.3754 21.8602C17.2998 21.4388 17.2502 21.0151 17.2194 20.589C17.2171 20.5657 17.2171 20.3562 17.2833 20.2654C17.3849 20.1303 17.6047 20.1071 17.8009 20.1792C18.4036 20.4027 19.3017 20.724 19.7413 20.8497C20.6726 21.0965 21.6581 21.0639 22.5728 20.7589C23.445 20.4865 24.3076 20.1583 25.1703 19.8416C25.9881 19.5343 26.8012 19.2247 27.626 18.9267C27.7868 18.8684 29.3301 18.3912 30.8404 18.5914C32.0907 18.7567 33.7854 19.5064 34.1115 19.681C34.8537 20.0605 35.6337 20.3096 36.3994 20.5797C37.5623 21.0104 38.8362 21.0383 40.018 20.6612C40.4505 20.5191 40.883 20.3655 41.3203 20.2048C41.3959 20.1816 41.4786 20.1816 41.5543 20.2095C41.6252 20.2491 41.6677 20.3259 41.6654 20.4074C41.6394 20.9056 41.5803 21.4039 41.4928 21.8951C41.4786 21.9929 41.4432 22.0837 41.3865 22.1652C41.3156 22.235 41.2305 22.2863 41.1383 22.3212C41.0083 22.3677 40.5829 22.5866 40.1007 22.7286C39.6327 22.866 39.1529 22.9614 38.6684 23.0126C38.4132 23.022 38.1603 23.015 37.905 22.994C36.8911 22.9125 36.0095 22.6914 35.0404 22.1954C34.381 21.8672 33.6956 21.5249 33.0149 21.2432C31.956 20.7985 30.8073 20.5983 29.6587 20.6565C28.5525 20.7427 27.47 21.0081 26.449 21.4365C25.0073 21.9976 23.5584 22.5144 22.1072 23.0173C21.3769 23.2664 20.5922 23.3013 19.843 23.1221ZM19.798 19.3667C19.0772 19.1804 18.3728 18.9313 17.6945 18.6263C17.5645 18.5658 17.4558 18.468 17.3872 18.3423C17.3329 18.2096 17.314 18.0652 17.3329 17.9255C17.3896 17.5647 17.4629 17.1991 17.5551 16.8359C17.5716 16.7754 17.6307 16.6287 17.7394 16.5728C17.8623 16.51 18.0443 16.5472 18.1318 16.5798C18.647 16.7707 19.1717 16.943 19.6988 17.0944C20.63 17.3411 21.6156 17.3086 22.5303 17.0036C23.4024 16.7312 24.2651 16.4029 25.1278 16.0862C26.0779 15.7277 26.9666 15.4693 27.9049 15.1573C28.0562 15.1061 29.1316 14.8383 29.5358 14.7987C29.9541 14.7568 31.1879 14.5752 32.7194 15.1969C33.1709 15.3622 34.3999 15.9861 34.5559 16.063C35.1397 16.3517 35.7424 16.6054 36.3569 16.8266C37.5505 17.2573 38.6921 17.4599 39.9754 16.9081C40.2614 16.8126 40.5451 16.7149 40.8381 16.6101C40.902 16.5868 41.0603 16.5333 41.169 16.5775C41.2541 16.6124 41.2967 16.7451 41.3108 16.801C41.4196 17.2294 41.5046 17.6624 41.5661 18.1001C41.5803 18.1793 41.5661 18.2631 41.5236 18.333C41.4786 18.4005 41.3652 18.4494 41.3179 18.468C40.7058 18.6985 40.1314 18.9406 39.4153 19.1455C38.9544 19.2968 38.4652 19.355 37.9806 19.3131C36.936 19.2247 35.9196 18.929 34.9931 18.4447C34.3337 18.1164 33.6483 17.7742 32.9652 17.4925C31.9064 17.0478 30.7577 16.8476 29.609 16.9058C28.5029 16.9919 27.4204 17.255 26.3994 17.6857C24.9576 18.2468 23.5088 18.7637 22.0576 19.2666C21.3343 19.511 20.5473 19.5436 19.798 19.3667ZM19.7555 15.6113C19.3797 15.5135 19.0039 15.3994 18.6257 15.2644C18.5407 15.2341 18.3563 15.1573 18.2948 15.0129C18.2476 14.9058 18.3114 14.7359 18.3658 14.6288C18.5454 14.2679 18.829 13.7417 18.9826 13.4903C19.0512 13.3972 19.1504 13.3297 19.2639 13.3017C19.4033 13.2738 19.5452 13.2761 19.6822 13.311C20.6253 13.5578 21.5565 13.5532 22.4854 13.2482C23.3575 12.9758 24.2202 12.6475 25.0829 12.3309C25.9905 11.9909 26.8012 11.7255 27.678 11.4298C28.3067 11.2506 28.9567 11.1551 29.6114 11.1458C29.869 11.1435 30.7033 11.1295 31.5471 11.2971C32.6438 11.5137 33.7665 12.0282 34.0265 12.1679C34.7686 12.5474 35.6691 12.8757 36.4325 13.1457C37.4205 13.5019 38.3399 13.5252 39.3184 13.3134C39.4342 13.2877 39.5547 13.2901 39.6706 13.3203C39.7675 13.3553 39.8502 13.4181 39.9093 13.5043C40.1433 13.8838 40.356 14.2772 40.5451 14.68C40.5829 14.7452 40.5876 14.8244 40.5592 14.8942C40.5191 14.9524 40.4647 14.9966 40.3985 15.0223C40.0605 15.1433 39.7155 15.2667 39.3704 15.3901C38.9095 15.5414 38.4202 15.5996 37.9357 15.5577C36.8911 15.4693 35.8747 15.1736 34.9506 14.6893C34.2912 14.361 33.6034 14.0188 32.9227 13.7371C31.8638 13.2924 30.7152 13.0922 29.5665 13.1504C28.4604 13.2365 27.3755 13.4996 26.3568 13.9303C24.9151 14.4914 23.4662 15.0083 22.015 15.5112C21.2894 15.7556 20.5047 15.7882 19.7555 15.6113Z" fill="url(#paint0_linear_8210_40700)"/>
<path d="M55.2777 18.4936C54.1607 18.496 53.0698 18.1609 52.1429 17.5358C51.2422 16.9274 50.5363 16.0694 50.1109 15.0689C49.3717 13.3244 49.5666 11.3233 50.629 9.75229C51.2374 8.85154 52.0954 8.14566 53.0959 7.72024C54.8428 6.9811 56.8416 7.176 58.4125 8.23836C58.7096 8.44038 58.9877 8.66854 59.242 8.92284C59.2586 8.93948 59.2776 8.95849 59.299 8.97988L57.5593 10.6721C57.5498 10.6602 57.5379 10.6507 57.5284 10.6388C56.2854 9.39579 54.2724 9.39579 53.0294 10.6364C51.7864 11.877 51.7864 13.8924 53.027 15.1354C54.27 16.3784 56.283 16.3784 57.526 15.1378L57.5284 15.1354C57.5403 15.1259 57.5498 15.114 57.5593 15.1021L59.299 16.7919C59.2776 16.8133 59.2586 16.8323 59.242 16.849C58.731 17.36 58.125 17.7687 57.4595 18.0516C56.7703 18.3439 56.0264 18.4936 55.2777 18.4936Z" fill="#8F14CC"/>
<path d="M60.6367 7.30079H65.7228C67.6336 7.29604 69.043 8.72442 69.0762 10.3073C69.1 11.8236 69.0168 12.5699 67.4149 13.7891C69.0786 18.4735 69.1618 18.4735 69.1618 18.4735C69.1618 18.4735 68.8576 18.4806 66.6235 18.4735C66.5784 18.4735 66.4167 18.4735 66.4167 18.4735L64.9147 13.9341H63.1441V18.1716C63.1417 18.2572 63.1441 18.4758 63.1441 18.4758C63.1441 18.4758 62.9207 18.4735 62.8399 18.4758H60.6367V7.30079ZM65.3686 12.0826C66.0056 12.0826 66.721 11.4267 66.7138 10.6733C66.7067 9.91751 66.0175 9.33284 65.3686 9.32809H63.0775V12.0826H65.3686Z" fill="#8F14CC"/>
<path d="M70.5273 7.32031H77.7167V9.65656H73.0086V11.3773C76.7067 11.3796 76.9372 11.3773 76.9372 11.3773V13.7135H73.0086V16.1116H77.7167V18.4502H70.5273V7.32031Z" fill="#8F14CC"/>
<path d="M79.1992 7.68075C79.1992 7.6142 79.1992 7.37891 79.1992 7.37891C79.1992 7.37891 79.3917 7.38366 79.4844 7.37891H83.3512C86.41 7.37891 88.915 9.86727 88.915 12.9094C88.9102 15.98 86.4219 18.4684 83.3512 18.4731H79.4844C79.4155 18.4707 79.1992 18.4731 79.1992 18.4731C79.1992 18.4731 79.1992 18.264 79.1992 18.1713V7.68075ZM83.1064 16.1773C84.8604 16.1773 86.1319 14.7965 86.1319 13.0258C86.1319 11.2576 84.8628 9.89102 83.1064 9.89102H81.6234V16.1749H83.1064V16.1773Z" fill="#8F14CC"/>
<path d="M114.938 18.4936C113.821 18.496 112.73 18.1609 111.803 17.5358C110.902 16.9274 110.196 16.0694 109.771 15.0689C109.032 13.3244 109.227 11.3233 110.289 9.75229C110.898 8.85154 111.756 8.14566 112.756 7.72024C114.503 6.9811 116.502 7.176 118.073 8.23836C118.37 8.44038 118.648 8.66854 118.902 8.92284C118.919 8.93948 118.938 8.95849 118.959 8.97988L117.219 10.6721C117.21 10.6602 117.198 10.6507 117.189 10.6388C115.946 9.39579 113.933 9.39579 112.69 10.6364C111.447 11.877 111.447 13.8924 112.687 15.1354C113.928 16.3784 115.943 16.3784 117.186 15.1378L117.189 15.1354C117.198 15.1235 117.21 15.114 117.219 15.1021L118.959 16.7919C118.938 16.8133 118.919 16.8323 118.902 16.849C118.391 17.36 117.785 17.7687 117.12 18.0516C116.43 18.3439 115.687 18.4936 114.938 18.4936Z" fill="#8F14CC"/>
<path d="M90.0703 7.32031H97.2597V9.65656H92.5515V11.3773C96.2496 11.3796 96.4802 11.3773 96.4802 11.3773V13.7135H92.5515V16.1116H97.2597V18.4502H90.0703V7.32031Z" fill="#8F14CC"/>
<path d="M101.146 11.8854V18.4307H98.6367V7.30078H101.146L105.581 13.9697V7.30078H108.091V18.4307H105.622L101.146 11.8854Z" fill="#8F14CC"/>
<path d="M53.9555 22.5625H54.9608L59.4408 32.6086H57.9768L56.6458 29.6473H52.3845L51.1367 32.6086H49.668L53.9555 22.5625ZM56.0564 28.3758L54.445 24.7585L52.9501 28.3758H56.0564Z" fill="#590484"/>
<path d="M68.7027 30.2924V31.8657C67.6546 32.4385 66.4425 32.7237 65.0688 32.7237C63.9541 32.7237 63.0082 32.5003 62.231 32.0511C61.4539 31.6043 60.8383 30.9864 60.3868 30.1997C59.9328 29.413 59.707 28.5622 59.707 27.6472C59.707 26.1926 60.2251 24.971 61.2637 23.98C62.3 22.9889 63.5786 22.4922 65.0997 22.4922C66.1478 22.4922 67.3147 22.7655 68.5957 23.3145V24.8522C67.4264 24.1844 66.2856 23.8516 65.171 23.8516C64.0278 23.8516 63.0771 24.2129 62.3214 24.9354C61.5656 25.6579 61.1877 26.561 61.1877 27.6495C61.1877 28.7452 61.5584 29.6459 62.3023 30.3518C63.0462 31.0577 63.9969 31.4094 65.1543 31.4094C66.3664 31.4094 67.55 31.0363 68.7027 30.2924Z" fill="#590484"/>
<path d="M74.1625 22.5625H75.1678L79.6478 32.6086H78.1838L76.8529 29.6473H72.5915L71.3438 32.6086H69.875L74.1625 22.5625ZM76.2658 28.3758L74.6545 24.7585L73.1595 28.3758H76.2658Z" fill="#590484"/>
<path d="M80.9023 32.5959V22.6211H84.2701C85.6295 22.6211 86.7038 22.8255 87.4952 23.2319C88.2866 23.6383 88.9164 24.2396 89.3823 25.031C89.8481 25.8225 90.0834 26.6852 90.0834 27.6192C90.0834 28.287 89.955 28.9264 89.6984 29.5348C89.4417 30.1456 89.0733 30.6803 88.598 31.1438C88.1131 31.6215 87.5475 31.9804 86.9034 32.2228C86.5279 32.3701 86.1809 32.47 85.8672 32.5199C85.5535 32.5698 84.9522 32.5959 84.0657 32.5959H80.9023ZM84.1203 23.895H82.3331V31.3244H84.1631C84.8785 31.3244 85.4346 31.2745 85.8292 31.1771C86.2261 31.0796 86.554 30.956 86.8202 30.8063C87.084 30.6566 87.3264 30.4712 87.5451 30.2525C88.251 29.5372 88.6027 28.634 88.6027 27.5431C88.6027 26.4713 88.2391 25.5967 87.5166 24.9193C87.2504 24.6674 86.9438 24.4583 86.5968 24.2966C86.2522 24.135 85.9242 24.0281 85.6129 23.9758C85.3015 23.9235 84.8072 23.895 84.1203 23.895Z" fill="#590484"/>
<path d="M92.0195 22.6211H97.6831V23.895H93.4503V26.9419H97.5405V28.2229H93.4503V31.3268H97.8186V32.6007H92.0195V22.6211Z" fill="#590484"/>
<path d="M107.428 22.6211H108.766V32.6102H107.329V24.8385L104.258 28.7006H103.994L100.888 24.8385V32.6102H99.457V22.6211H100.812L104.13 26.7232L107.428 22.6211Z" fill="#590484"/>
<path d="M117.076 22.6211H118.811L115.122 27.3269V32.6102H113.656V27.3269L109.965 22.6211H111.69L114.364 26.0649L117.076 22.6211Z" fill="#590484"/>
<defs>
<linearGradient id="paint0_linear_8210_40700" x1="18.1477" y1="21.32" x2="40.5407" y2="21.1791" gradientUnits="userSpaceOnUse">
<stop stop-color="#8F14CC"/>
<stop offset="1" stop-color="#00B1BB"/>
</linearGradient>
</defs>
</svg>
