<svg width="108" height="37" viewBox="0 0 108 37" fill="none" xmlns="http://www.w3.org/2000/svg">
<path d="M11.2804 29.5255C11.0868 29.5255 10.8911 29.5192 10.6975 29.5087C10.5061 29.4982 10.3125 29.4836 10.1232 29.4647C9.93389 29.4459 9.74457 29.4207 9.55738 29.3914C9.37232 29.362 9.18513 29.3285 9.00006 29.2908C8.81713 29.2531 8.63419 29.2112 8.45338 29.1651C8.27469 29.119 8.09389 29.0687 7.91733 29.0121C7.74078 28.9576 7.56422 28.899 7.39192 28.8361C7.21962 28.7732 7.04732 28.7062 6.87927 28.6349C6.71123 28.5637 6.54318 28.4883 6.37938 28.4107C6.21559 28.3311 6.05181 28.2641 5.89227 28.176C5.73273 28.0901 5.56681 28.0126 5.41152 27.9204C5.25624 27.8261 5.10309 27.7297 4.95418 27.6292C4.80528 27.5286 4.65638 27.4238 4.51173 27.3169C4.36708 27.2101 4.22456 27.099 4.08629 26.9838C3.94803 26.8706 3.80976 26.7512 3.67575 26.6317C3.54174 26.5123 3.41198 26.3866 3.28435 26.2609C3.15672 26.1351 3.03122 26.0052 2.9121 25.8732C2.79085 25.7412 2.67173 25.605 2.55899 25.4667C2.44625 25.3284 2.33138 25.188 2.22502 25.0455C2.11866 24.9031 2.01231 24.7564 1.9102 24.6076C1.81023 24.4588 1.71025 24.308 1.61665 24.155C1.52306 24.002 1.43158 23.8449 1.3465 23.6877C1.26141 23.5306 1.17633 23.3671 1.09762 23.2058C1.01892 23.0445 0.942338 22.8768 0.872142 22.7113C0.801945 22.5458 0.733875 22.3739 0.672187 22.2042C0.610499 22.0345 0.550935 21.8585 0.495628 21.6866C0.440322 21.5127 0.391399 21.3346 0.344601 21.1565C0.29993 20.9784 0.25739 20.7961 0.221228 20.618C0.185066 20.4378 0.151026 20.2513 0.123373 20.069C0.0957199 19.8846 0.0723238 19.696 0.0531793 19.5116C0.0340347 19.3251 0.0212712 19.1345 0.0127625 18.9459C0.00425382 18.7552 0 18.5624 0 18.3717C0 18.1811 0.00637866 17.9883 0.0170145 17.7976C0.0276504 17.609 0.0425452 17.4183 0.0616898 17.2319C0.0829615 17.0454 0.106355 16.8589 0.136136 16.6745C0.165916 16.4922 0.199953 16.3078 0.238242 16.1255C0.276531 15.9453 0.319076 15.7651 0.365874 15.587C0.412672 15.411 0.463726 15.2329 0.52116 15.0589C0.576466 14.885 0.638153 14.7111 0.699841 14.5414C0.763656 14.3717 0.831724 14.2019 0.904048 14.0364C0.976372 13.8709 1.05295 13.7053 1.13166 13.544C1.21036 13.3826 1.29545 13.2213 1.38266 13.0641C1.46988 12.907 1.56135 12.7498 1.65707 12.599C1.75066 12.4481 1.85064 12.2951 1.95274 12.1485C2.05485 12.0018 2.1612 11.8551 2.26969 11.7126C2.37817 11.5701 2.49092 11.4297 2.60791 11.2935C2.72491 11.1573 2.84403 11.0211 2.96528 10.8891C3.08653 10.7571 3.21415 10.6293 3.34178 10.5036C3.46941 10.3779 3.6013 10.2542 3.73531 10.1369C3.86932 10.0175 4.00759 9.90011 4.14798 9.78906C4.28838 9.678 4.4309 9.56485 4.57555 9.46008C4.7202 9.35322 4.8691 9.25055 5.02013 9.14997C5.16903 9.05148 5.32431 8.953 5.4796 8.8608C5.63488 8.76861 5.79441 8.67851 5.95395 8.59469C6.11349 8.51087 6.27728 8.42706 6.4432 8.34953C6.607 8.272 6.77717 8.19657 6.94521 8.12742C7.11326 8.05827 7.28769 7.99122 7.45999 7.93045C7.63442 7.86759 7.81098 7.81102 7.9854 7.75654C8.16196 7.70206 8.34277 7.65386 8.52358 7.60776C8.70439 7.56167 8.88945 7.52185 9.07026 7.48623C9.25532 7.45061 9.44252 7.41708 9.62758 7.38984C9.81477 7.3626 10.0062 7.33956 10.1934 7.3207C10.3827 7.30184 10.5763 7.28927 10.7677 7.27879C10.9613 7.27041 11.157 7.26622 11.3506 7.26622C11.6229 7.26622 11.8951 7.27669 12.1653 7.29765C12.4312 7.31651 12.7013 7.34584 12.963 7.38356C13.2246 7.42128 13.4863 7.46947 13.7437 7.52395C13.9989 7.57843 14.2499 7.63291 14.5009 7.70415C15.5049 8.00589 16.2516 8.40611 16.7898 8.69527C16.9897 8.80213 17.2386 8.93624 17.3237 8.95929L17.413 8.98653C18.7404 9.44542 19.9529 8.88804 21.1271 8.34953C21.4079 8.21962 21.6823 8.09389 21.9524 7.98703C23.2585 7.40451 24.6667 7.08182 26.1004 7.03363C26.1153 7.03363 26.1302 7.03363 26.1451 7.03153C26.1472 7.03153 26.1493 7.03153 26.1493 7.03153C26.1791 7.03153 26.2068 7.02944 26.2365 7.02944C26.2387 7.02944 26.2408 7.02944 26.245 7.02944C26.2599 7.02944 26.2727 7.02944 26.2876 7.02734H26.328C26.3301 7.02734 26.3344 7.02734 26.3365 7.02734C26.3493 7.02734 26.3642 7.02734 26.3769 7.02734C26.3791 7.02734 26.3833 7.02734 26.3854 7.02734C26.3982 7.02734 26.411 7.02734 26.4216 7.02734C26.4237 7.02734 26.4258 7.02734 26.428 7.02734C26.4429 7.02734 26.4556 7.02734 26.4705 7.02734H26.479C26.4939 7.02734 26.5067 7.02734 26.5216 7.02734C26.5365 7.02734 26.5514 7.02734 26.5684 7.02734H26.579C26.5939 7.02734 26.6088 7.02734 26.6258 7.02734H26.6301C26.645 7.02734 26.6598 7.02734 26.6747 7.02734C26.679 7.02734 26.6811 7.02734 26.6854 7.02734C26.7003 7.02734 26.7173 7.02734 26.7322 7.02734H26.7364C26.7513 7.02734 26.7662 7.02734 26.779 7.02944C26.7811 7.02944 26.7853 7.02944 26.7875 7.02944C26.8024 7.02944 26.8194 7.02944 26.8343 7.03153C26.8364 7.03153 26.8385 7.03153 26.8406 7.03153C26.8555 7.03153 26.8683 7.03153 26.8811 7.03363C26.8832 7.03363 26.8874 7.03363 26.8896 7.03363C26.9045 7.03363 26.9194 7.03363 26.9364 7.03573C26.9385 7.03573 26.9406 7.03573 26.9428 7.03573C26.9555 7.03573 26.9704 7.03573 26.9832 7.03782C26.9853 7.03782 26.9896 7.03782 26.9917 7.03782C27.0066 7.03782 27.0215 7.03992 27.0385 7.03992C27.0406 7.03992 27.0427 7.03992 27.0449 7.03992C27.0597 7.03992 27.0725 7.04201 27.0874 7.04201C27.0895 7.04201 27.0917 7.04201 27.0938 7.04201C27.1087 7.04201 27.1257 7.04411 27.1406 7.04411C27.1427 7.04411 27.147 7.04411 27.1491 7.04411C27.164 7.04411 27.1767 7.0462 27.1916 7.0462C27.1938 7.0462 27.1938 7.0462 27.1959 7.0462C27.2108 7.0462 27.2278 7.0483 27.2427 7.0483H27.2512C27.2661 7.05039 27.281 7.05039 27.2959 7.05039H27.298C27.3129 7.05249 27.3299 7.05249 27.3448 7.05458H27.3533C27.3682 7.05668 27.3831 7.05668 27.398 7.05877C27.4129 7.06087 27.4299 7.06087 27.4448 7.06297C27.4469 7.06297 27.449 7.06297 27.4533 7.06297C27.4852 7.06506 27.5171 7.06925 27.5469 7.07135H27.5533C27.5852 7.07344 27.6149 7.07763 27.6468 7.07973H27.6532C27.6851 7.08392 27.7149 7.08601 27.7468 7.09021C27.749 7.09021 27.7532 7.09021 27.7553 7.09021C27.7702 7.0923 27.7872 7.0944 27.8021 7.09649H27.8043C27.8191 7.09859 27.834 7.10068 27.8489 7.10278C27.8511 7.10278 27.8532 7.10278 27.8574 7.10278C27.8723 7.10487 27.8872 7.10697 27.9042 7.10906H27.9085C27.9234 7.11116 27.9361 7.11325 27.9489 7.11535C27.951 7.11535 27.9553 7.11535 27.9574 7.11745L28.0021 7.12373H28.0085C28.0212 7.12583 28.0361 7.12792 28.0489 7.13002C28.051 7.13002 28.0553 7.13002 28.0574 7.13211L28.1021 7.1384C28.1042 7.1384 28.1063 7.1384 28.1084 7.14049C28.1212 7.14259 28.1361 7.14469 28.1489 7.14678C28.151 7.14678 28.1531 7.14678 28.1574 7.14888C28.1723 7.15097 28.1871 7.15307 28.202 7.15516C28.2042 7.15516 28.2084 7.15516 28.2127 7.15726C28.2254 7.15935 28.2382 7.16145 28.251 7.16354C28.2531 7.16354 28.2552 7.16354 28.2595 7.16564C28.2744 7.16773 28.2893 7.16983 28.302 7.17192C28.3063 7.17192 28.3105 7.17402 28.3127 7.17402C28.3254 7.17612 28.3361 7.17821 28.3488 7.18031C28.3509 7.18031 28.3552 7.18031 28.3573 7.1824C28.3722 7.1845 28.385 7.18659 28.3999 7.19078C28.4041 7.19078 28.4084 7.19288 28.4126 7.19288L28.4488 7.19917C28.4509 7.19917 28.4552 7.19917 28.4573 7.20126C28.4722 7.20336 28.485 7.20545 28.4977 7.20964C28.502 7.20964 28.5084 7.21174 28.5126 7.21174L28.5466 7.21802C28.553 7.21802 28.5573 7.22012 28.5637 7.22012C28.5743 7.22221 28.5849 7.22431 28.5977 7.2264L28.6147 7.2306C28.6253 7.23269 28.636 7.23479 28.6487 7.23688L28.6658 7.24107C28.6764 7.24317 28.687 7.24526 28.6955 7.24736C28.7019 7.24945 28.7083 7.24945 28.7126 7.25155L28.7423 7.25784C28.7508 7.25993 28.7594 7.26203 28.7657 7.26203C28.7742 7.26412 28.7806 7.26412 28.7891 7.26622C28.7955 7.26831 28.8019 7.26831 28.8104 7.27041C28.8168 7.2725 28.8253 7.2725 28.8338 7.2746C28.8444 7.27669 28.8572 7.27879 28.8678 7.28088C28.8742 7.28298 28.8785 7.28298 28.8849 7.28508C28.8934 7.28717 28.8997 7.28927 28.9083 7.28927C28.9125 7.29136 28.9168 7.29136 28.921 7.29136L28.9678 7.30184C28.9721 7.30184 28.9763 7.30393 28.9785 7.30393C29.0082 7.31022 29.0359 7.31651 29.0657 7.32489C29.0678 7.32489 29.0699 7.32698 29.0721 7.32698C29.1018 7.33327 29.1316 7.34165 29.1635 7.34794H29.1656C30.3654 7.64339 31.5055 8.1379 32.5372 8.80842C33.0754 9.15835 33.5817 9.55438 34.0518 9.99022C34.1475 10.0803 34.4155 10.3758 34.3198 10.5036C34.2666 10.5727 34.0986 10.5895 33.9518 10.5895C33.8369 10.5895 33.7369 10.579 33.7157 10.5769C32.8627 10.4868 32.0331 10.2438 31.2673 9.8624C30.6674 9.57743 30.0463 9.28198 29.4294 9.03682C28.4701 8.65336 27.4341 8.48992 26.4003 8.56116C25.4069 8.65546 24.4348 8.91109 23.5244 9.31341C23.4818 9.33017 23.4372 9.34903 23.3946 9.3637C22.9054 9.57114 22.246 9.85611 21.912 10.0091C20.9675 10.4428 19.7699 10.9918 18.4 10.9876C17.8661 10.9855 17.3364 10.8975 16.8323 10.7278C16.543 10.6503 16.2537 10.4952 15.8942 10.3045C15.7538 10.2291 15.6028 10.1474 15.4369 10.0636C15.2837 9.99022 15.1178 9.9064 14.9604 9.83935C14.8009 9.7723 14.6392 9.71153 14.4754 9.65286C14.3116 9.59628 14.1457 9.5418 13.9776 9.49361C13.8096 9.44542 13.6394 9.39932 13.4693 9.3616C13.2991 9.32179 13.1225 9.28617 12.9502 9.25683C12.7758 9.2275 12.5971 9.20026 12.4206 9.1793C12.2419 9.15835 12.0611 9.14368 11.8824 9.13111C11.7016 9.12063 11.5186 9.11435 11.3357 9.11435C6.13689 9.09549 1.89105 13.2485 1.87404 18.3697C1.85702 23.4007 6.13476 27.5726 11.8654 27.6773V27.6732C14.0181 27.7088 16.3558 27.2771 18.3915 26.4096L19.2743 26.0534C19.9103 25.7936 20.4528 25.5652 20.9314 25.364C22.3715 24.7564 24.0307 24.1822 25.3474 23.8658C25.5707 23.8009 25.7983 23.7464 26.0259 23.7045C26.3003 23.6584 27.0959 23.518 27.5937 23.518C27.649 23.518 27.7 23.5201 27.749 23.5222C27.8213 23.5201 27.8936 23.5201 27.9681 23.5222C28.4169 23.5432 28.8615 23.6186 29.2933 23.7464C29.8506 23.9266 30.393 24.1529 30.9142 24.4211C31.5757 24.7522 32.2586 25.0393 32.9605 25.2781C33.1988 25.3599 33.4434 25.4248 33.6901 25.473C33.7795 25.4898 33.956 25.5296 34.0028 25.6239C34.0518 25.7265 33.9518 25.89 33.8646 25.9654C33.5285 26.2651 33.1732 26.5437 32.8031 26.7994C32.684 26.879 32.5457 26.9251 32.4032 26.9293C32.2415 26.9293 32.082 26.8979 31.9331 26.8371C31.8799 26.814 31.8225 26.7847 31.7629 26.7554C31.1631 26.4704 30.5419 26.1729 29.925 25.9298C28.9657 25.5463 27.9298 25.3829 26.896 25.4541C26.2982 25.5086 25.1113 25.8145 25.1113 25.8145C25.09 25.8208 25.0687 25.8271 25.0474 25.8334C25.0304 25.8376 25.0134 25.8418 24.9943 25.846C23.8818 26.1205 23.0373 26.4767 21.6674 27.0529C20.976 27.3442 20.1571 27.6878 19.1169 28.1027C17.0493 28.9828 14.5307 29.4647 12.2993 29.5171C12.2355 29.5213 12.1036 29.5234 11.9547 29.5213C11.6909 29.5318 11.3633 29.5255 11.2804 29.5255Z" fill="url(#paint0_linear_313_37327)"/>
<path d="M22.8629 28.6506C22.8587 28.6485 22.7757 28.6066 22.7587 28.5982C22.5566 28.4998 22.4886 28.2295 22.7715 28.0912C23.5351 27.8313 24.537 27.4688 25.2794 27.209C26.2834 26.8737 27.3598 26.8067 28.3978 27.0162C29.1445 27.1713 29.9443 27.4667 30.7547 27.7894C30.7866 27.802 31.2163 28.0388 30.7547 28.3321C30.3846 28.5479 28.668 29.3421 26.7812 29.3861C26.6791 29.3882 26.5749 29.3882 26.4706 29.3861C25.0518 29.361 23.567 28.923 22.8629 28.6506ZM17.8981 24.4682C17.7705 24.4431 17.6492 24.397 17.5408 24.3299C17.4429 24.2524 17.3599 24.1602 17.294 24.0554C16.9728 23.5756 16.6899 23.0706 16.4495 22.5468C16.407 22.4378 16.4091 22.3163 16.4559 22.2073C16.5218 22.0879 16.6814 22.0648 16.8133 22.1109C17.1387 22.2241 17.4727 22.3289 17.8067 22.4252C18.6448 22.6473 19.5318 22.618 20.355 22.3456C21.1399 22.0984 21.9163 21.805 22.6928 21.52C23.6947 21.1429 24.6732 20.8516 25.6751 20.5038C26.4323 20.2544 27.4321 20.2167 28.2043 20.3718C29.1445 20.5666 29.8677 20.8097 30.7696 21.2916C31.4248 21.6332 32.1034 21.9307 32.8011 22.1843C33.8476 22.5719 34.9963 22.5971 36.0578 22.2576C36.1812 22.2178 36.4279 22.1654 36.5194 22.2681C36.5938 22.3519 36.5236 22.5845 36.4726 22.6934C36.2641 23.1314 36.0259 23.5526 35.76 23.9591C35.6962 24.0743 35.6068 24.1728 35.5005 24.2503C35.3643 24.3383 35.1644 24.376 35.0857 24.3907C34.8155 24.4368 34.539 24.4494 34.2646 24.4263C33.3244 24.3467 32.4097 24.0806 31.578 23.6448C30.9845 23.3493 30.3655 23.0413 29.755 22.7877C28.802 22.3875 27.7682 22.2073 26.7344 22.2597C25.7389 22.3372 24.7625 22.5761 23.8457 22.9617C22.5481 23.4666 21.2442 23.9318 19.9381 24.3844C19.2808 24.5982 18.5724 24.6296 17.8981 24.4682ZM17.8598 21.0884C17.2408 20.9291 16.6367 20.7175 16.0517 20.4598C15.9369 20.4116 15.8326 20.3403 15.7497 20.2481C15.6731 20.1517 15.6476 20.0093 15.6391 19.9527C15.571 19.5734 15.5263 19.1921 15.4987 18.8086C15.4965 18.7877 15.4965 18.5991 15.5561 18.5173C15.6476 18.3958 15.8454 18.3749 16.022 18.4398C16.5644 18.641 17.3727 18.9301 17.7684 19.0433C18.6065 19.2654 19.4935 19.2361 20.3167 18.9616C21.1016 18.7164 21.8781 18.421 22.6545 18.136C23.3905 17.8594 24.1222 17.5807 24.8646 17.3125C25.0093 17.2601 26.3983 16.8306 27.7576 17.0108C28.8828 17.1595 30.408 17.8343 30.7016 17.9914C31.3695 18.333 32.0715 18.5572 32.7607 18.8002C33.8072 19.1879 34.9538 19.213 36.0174 18.8736C36.4066 18.7457 36.7959 18.6075 37.1894 18.4629C37.2575 18.4419 37.332 18.4419 37.4 18.4671C37.4638 18.5027 37.5021 18.5718 37.5 18.6452C37.4766 19.0936 37.4234 19.542 37.3447 19.9841C37.332 20.0721 37.3 20.1538 37.249 20.2272C37.1852 20.29 37.1086 20.3361 37.0256 20.3676C36.9086 20.4095 36.5258 20.6064 36.0918 20.7343C35.6706 20.8579 35.2388 20.9438 34.8027 20.9899C34.573 20.9983 34.3454 20.992 34.1157 20.9731C33.2031 20.8998 32.4097 20.7007 31.5375 20.2544C30.9441 19.959 30.3272 19.651 29.7146 19.3974C28.7616 18.9972 27.7278 18.817 26.694 18.8694C25.6985 18.9469 24.7242 19.1858 23.8053 19.5713C22.5077 20.0763 21.2037 20.5415 19.8977 20.9941C19.2404 21.2183 18.5341 21.2497 17.8598 21.0884ZM17.8194 17.7085C17.1706 17.5409 16.5367 17.3167 15.9262 17.0422C15.8092 16.9877 15.7114 16.8997 15.6497 16.7866C15.6008 16.6671 15.5838 16.5372 15.6008 16.4115C15.6518 16.0867 15.7178 15.7577 15.8007 15.4308C15.8156 15.3764 15.8688 15.2444 15.9666 15.1941C16.0773 15.1375 16.2411 15.171 16.3198 15.2004C16.7835 15.3722 17.2557 15.5272 17.7301 15.6634C18.5682 15.8855 19.4552 15.8562 20.2784 15.5817C21.0633 15.3366 21.8398 15.0411 22.6162 14.7561C23.4713 14.4334 24.2711 14.2009 25.1156 13.9201C25.2517 13.874 26.2196 13.633 26.5834 13.5974C26.9599 13.5597 28.0703 13.3962 29.4487 13.9557C29.8549 14.1045 30.9611 14.666 31.1015 14.7352C31.6269 14.995 32.1693 15.2234 32.7224 15.4225C33.7966 15.8101 34.824 15.9924 35.9791 15.4958C36.2365 15.4099 36.4917 15.3219 36.7555 15.2276C36.8129 15.2066 36.9554 15.1584 37.0533 15.1983C37.1299 15.2297 37.1682 15.3491 37.1809 15.3994C37.2788 15.785 37.3554 16.1747 37.4107 16.5686C37.4234 16.6399 37.4107 16.7153 37.3724 16.7782C37.332 16.8389 37.2299 16.8829 37.1873 16.8997C36.6364 17.1072 36.1195 17.3251 35.4749 17.5095C35.0601 17.6457 34.6198 17.6981 34.1837 17.6603C33.2435 17.5807 32.3288 17.3146 31.495 16.8788C30.9015 16.5833 30.2846 16.2753 29.6699 16.0217C28.7169 15.6215 27.6831 15.4413 26.6493 15.4937C25.6538 15.5712 24.6795 15.808 23.7606 16.1957C22.463 16.7007 21.1591 17.1658 19.853 17.6184C19.2021 17.8384 18.4937 17.8678 17.8194 17.7085ZM17.7811 14.3287C17.4429 14.2407 17.1047 14.138 16.7643 14.0165C16.6878 13.9892 16.5218 13.9201 16.4665 13.7902C16.424 13.6938 16.4814 13.5408 16.5303 13.4444C16.692 13.1196 16.9473 12.6461 17.0855 12.4198C17.1472 12.336 17.2366 12.2752 17.3387 12.2501C17.4642 12.2249 17.5918 12.227 17.7152 12.2584C18.5639 12.4805 19.402 12.4764 20.238 12.2019C21.0229 11.9567 21.7994 11.6613 22.5758 11.3763C23.3926 11.0704 24.1222 10.8315 24.9114 10.5654C25.4772 10.404 26.0622 10.3181 26.6514 10.3097C26.8833 10.3076 27.6342 10.2951 28.3936 10.4459C29.3806 10.6408 30.391 11.1039 30.625 11.2296C31.2929 11.5712 32.1034 11.8666 32.7904 12.1097C33.6796 12.4303 34.5071 12.4512 35.3877 12.2605C35.492 12.2375 35.6004 12.2396 35.7047 12.2668C35.7919 12.2983 35.8663 12.3548 35.9195 12.4324C36.1301 12.7739 36.3215 13.128 36.4917 13.4905C36.5258 13.5492 36.53 13.6204 36.5045 13.6833C36.4683 13.7357 36.4194 13.7755 36.3598 13.7985C36.0557 13.9075 35.7451 14.0186 35.4345 14.1296C35.0197 14.2658 34.5794 14.3182 34.1433 14.2805C33.2031 14.2009 32.2884 13.9347 31.4567 13.4989C30.8632 13.2035 30.2442 12.8954 29.6316 12.6419C28.6786 12.2417 27.6448 12.0615 26.611 12.1139C25.6155 12.1914 24.6391 12.4282 23.7223 12.8158C22.4247 13.3208 21.1208 13.786 19.8147 14.2386C19.1617 14.4586 18.4554 14.4879 17.7811 14.3287Z" fill="url(#paint1_linear_313_37327)"/>
<path d="M49.748 16.9205C48.7427 16.9226 47.7609 16.621 46.9267 16.0585C46.116 15.5109 45.4807 14.7387 45.0978 13.8382C44.4326 12.2682 44.608 10.4671 45.5641 9.05326C46.1117 8.24258 46.8839 7.60729 47.7844 7.22441C49.3566 6.55919 51.1555 6.73459 52.5693 7.69072C52.8367 7.87254 53.087 8.07788 53.3158 8.30675C53.3308 8.32173 53.3479 8.33884 53.3672 8.35809L51.8014 9.88105C51.7929 9.87035 51.7822 9.86179 51.7736 9.8511C50.6549 8.73241 48.8432 8.7324 47.7245 9.84896C46.6058 10.9655 46.6058 12.7794 47.7224 13.8981C48.8411 15.0168 50.6528 15.0168 51.7715 13.9002L51.7736 13.8981C51.7843 13.8895 51.7929 13.8788 51.8014 13.8681L53.3672 15.389C53.3479 15.4082 53.3308 15.4253 53.3158 15.4403C52.856 15.9002 52.3105 16.2681 51.7116 16.5226C51.0913 16.7857 50.4218 16.9205 49.748 16.9205Z" fill="#034FE2"/>
<path d="M54.5703 6.84584H59.1478C60.8675 6.84156 62.1359 8.1271 62.1659 9.55166C62.1873 10.9163 62.1124 11.588 60.6707 12.6853C62.168 16.9012 62.2429 16.9012 62.2429 16.9012C62.2429 16.9012 61.9691 16.9077 59.9584 16.9012C59.9178 16.9012 59.7723 16.9012 59.7723 16.9012L58.4205 12.8158H56.8269V16.6296C56.8248 16.7066 56.8269 16.9034 56.8269 16.9034C56.8269 16.9034 56.6259 16.9012 56.5532 16.9034H54.5703V6.84584ZM58.829 11.1495C59.4023 11.1495 60.0461 10.5591 60.0397 9.88108C60.0333 9.20088 59.413 8.67468 58.829 8.6704H56.7671V11.1495H58.829Z" fill="#034FE2"/>
<path d="M63.4727 6.86487H69.9431V8.96749H65.7058V10.5161C69.034 10.5183 69.2415 10.5161 69.2415 10.5161V12.6187H65.7058V14.777H69.9431V16.8818H63.4727V6.86487Z" fill="#034FE2"/>
<path d="M71.2773 7.18779C71.2773 7.1279 71.2773 6.91614 71.2773 6.91614C71.2773 6.91614 71.4506 6.92042 71.534 6.91614H75.0142C77.767 6.91614 80.0215 9.15567 80.0215 11.8936C80.0173 14.6572 77.7777 16.8967 75.0142 16.9009H71.534C71.472 16.8988 71.2773 16.9009 71.2773 16.9009C71.2773 16.9009 71.2773 16.7127 71.2773 16.6293V7.18779ZM74.7938 14.8347C76.3724 14.8347 77.5168 13.5919 77.5168 11.9984C77.5168 10.407 76.3746 9.17704 74.7938 9.17704H73.4591V14.8325H74.7938V14.8347Z" fill="#034FE2"/>
<path d="M103.443 16.9205C102.438 16.9226 101.456 16.621 100.622 16.0585C99.8113 15.5109 99.176 14.7387 98.7931 13.8382C98.1279 12.2682 98.3033 10.4671 99.2594 9.05326C99.807 8.24258 100.579 7.60729 101.48 7.22441C103.052 6.55919 104.851 6.73459 106.265 7.69072C106.532 7.87254 106.782 8.07788 107.011 8.30675C107.026 8.32173 107.043 8.33884 107.062 8.35809L105.497 9.88105C105.488 9.87035 105.477 9.86179 105.469 9.8511C104.35 8.73241 102.539 8.7324 101.42 9.84896C100.301 10.9655 100.301 12.7794 101.418 13.8981C102.534 15.0168 104.348 15.0168 105.467 13.9002L105.469 13.8981C105.477 13.8874 105.488 13.8788 105.497 13.8681L107.062 15.389C107.043 15.4082 107.026 15.4253 107.011 15.4403C106.551 15.9002 106.006 16.2681 105.407 16.5226C104.787 16.7857 104.117 16.9205 103.443 16.9205Z" fill="#034FE2"/>
<path d="M81.0625 6.86487H87.5329V8.96749H83.2956V10.5161C86.6239 10.5183 86.8314 10.5161 86.8314 10.5161V12.6187H83.2956V14.777H87.5329V16.8818H81.0625V6.86487Z" fill="#034FE2"/>
<path d="M91.0283 10.9719V16.8627H88.7695V6.84583H91.0283L95.0197 12.8478V6.84583H97.2784V16.8627H95.056L91.0283 10.9719Z" fill="#034FE2"/>
<path d="M48.558 20.5845H49.4628L53.4948 29.626H52.1771L50.9793 26.9608H47.1441L46.0211 29.626H44.6992L48.558 20.5845ZM50.4488 25.8164L48.9986 22.5609L47.6532 25.8164H50.4488Z" fill="#034FE2"/>
<path d="M61.8305 27.5407V28.9567C60.8872 29.4722 59.7963 29.7289 58.5599 29.7289C57.5568 29.7289 56.7054 29.5278 56.006 29.1235C55.3065 28.7214 54.7525 28.1653 54.3461 27.4573C53.9376 26.7492 53.7344 25.9835 53.7344 25.16C53.7344 23.8509 54.2007 22.7515 55.1354 21.8595C56.068 20.9676 57.2188 20.5205 58.5877 20.5205C59.531 20.5205 60.5813 20.7665 61.7342 21.2606V22.6445C60.6818 22.0435 59.6551 21.744 58.6519 21.744C57.6231 21.744 56.7675 22.0691 56.0873 22.7194C55.4071 23.3696 55.067 24.1825 55.067 25.1621C55.067 26.1482 55.4006 26.9589 56.0701 27.5942C56.7397 28.2294 57.5953 28.546 58.6369 28.546C59.7278 28.546 60.793 28.2102 61.8305 27.5407Z" fill="#034FE2"/>
<path d="M66.7435 20.5845H67.6483L71.6803 29.626H70.3627L69.1648 26.9608H65.3296L64.2067 29.626H62.8848L66.7435 20.5845ZM68.6365 25.8164L67.1863 22.5609L65.8409 25.8164H68.6365Z" fill="#034FE2"/>
<path d="M72.8105 29.6131V20.6357H75.8415C77.065 20.6357 78.0318 20.8197 78.7441 21.1855C79.4564 21.5512 80.0232 22.0924 80.4425 22.8047C80.8617 23.517 81.0735 24.2934 81.0735 25.134C81.0735 25.7351 80.958 26.3105 80.727 26.8581C80.4959 27.4078 80.1644 27.8891 79.7366 28.3062C79.3002 28.7361 78.7912 29.0591 78.2115 29.2773C77.8735 29.4099 77.5612 29.4997 77.2789 29.5446C76.9965 29.5896 76.4554 29.6131 75.6575 29.6131H72.8105ZM75.7067 21.7822H74.0982V28.4687H75.7452C76.3891 28.4687 76.8896 28.4238 77.2447 28.3361C77.6019 28.2484 77.8971 28.1372 78.1366 28.0024C78.3741 27.8677 78.5922 27.7008 78.789 27.504C79.4243 26.8602 79.7409 26.0474 79.7409 25.0656C79.7409 24.1009 79.4136 23.3138 78.7634 22.7041C78.5238 22.4774 78.2479 22.2892 77.9356 22.1437C77.6254 21.9983 77.3302 21.902 77.05 21.855C76.7698 21.8079 76.3249 21.7822 75.7067 21.7822Z" fill="#034FE2"/>
<path d="M82.8145 20.6355H87.9117V21.782H84.1021V24.5242H87.7833V25.6771H84.1021V28.4706H88.0336V29.6171H82.8145V20.6355Z" fill="#034FE2"/>
<path d="M96.6859 20.6355H97.8901V29.6257H96.5961V22.6312L93.8325 26.107H93.5951L90.7994 22.6312V29.6257H89.5117V20.6355H90.7309L93.717 24.3274L96.6859 20.6355Z" fill="#034FE2"/>
<path d="M105.365 20.6357H106.926L103.606 24.8709V29.6259H102.287V24.8709L98.9648 20.6357H100.518L102.924 23.7351L105.365 20.6357Z" fill="#034FE2"/>
<defs>
<linearGradient id="paint0_linear_313_37327" x1="0.824161" y1="18.7273" x2="32.5544" y2="18.7273" gradientUnits="userSpaceOnUse">
<stop offset="0.14561" stop-color="#8F14CC"/>
<stop offset="0.978952" stop-color="#034FE2"/>
</linearGradient>
<linearGradient id="paint1_linear_313_37327" x1="16.0261" y1="20.2297" x2="36.3559" y2="20.2297" gradientUnits="userSpaceOnUse">
<stop offset="0.14561" stop-color="#8F14CC"/>
<stop offset="0.978952" stop-color="#034FE2"/>
</linearGradient>
</defs>
</svg>
