<svg width="37" height="36" viewBox="0 0 37 36" fill="none" xmlns="http://www.w3.org/2000/svg">
<rect x="0.414062" width="36" height="36" rx="6" fill="#DDDDDD"/>
<path d="M18.4141 25.5C22.5562 25.5 25.9141 22.1421 25.9141 18C25.9141 13.8579 22.5562 10.5 18.4141 10.5C14.2719 10.5 10.9141 13.8579 10.9141 18C10.9141 22.1421 14.2719 25.5 18.4141 25.5Z" stroke="#B0B0B0" stroke-width="1.5" stroke-miterlimit="10"/>
<path d="M10.9141 18H25.9141" stroke="#B0B0B0" stroke-width="1.5" stroke-linecap="round" stroke-linejoin="round"/>
<path d="M18.4141 25.2969C20.14 25.2969 21.5391 22.03 21.5391 18C21.5391 13.97 20.14 10.7031 18.4141 10.7031C16.6882 10.7031 15.2891 13.97 15.2891 18C15.2891 22.03 16.6882 25.2969 18.4141 25.2969Z" stroke="#B0B0B0" stroke-width="1.5" stroke-miterlimit="10"/>
</svg>
