<svg width="122" height="91" viewBox="0 0 122 91" fill="none" xmlns="http://www.w3.org/2000/svg">
<g clip-path="url(#clip0_1818_1610)">
<path d="M61.0004 50.9869C74.822 50.9869 86.0266 39.9157 86.0266 26.2586C86.0266 12.6015 74.822 1.53027 61.0004 1.53027C47.1788 1.53027 35.9741 12.6015 35.9741 26.2586C35.9741 39.9157 47.1788 50.9869 61.0004 50.9869Z" fill="#EA4C89"/>
<path fill-rule="evenodd" clip-rule="evenodd" d="M61.0002 0.5C46.6085 0.5 34.9312 12.0383 34.9312 26.2587C34.9312 40.479 46.6085 52.0173 61.0002 52.0173C75.3636 52.0173 87.0692 40.479 87.0692 26.2587C87.0692 12.0383 75.3636 0.5 61.0002 0.5ZM78.2193 12.3736C81.3295 16.1172 83.1956 20.8946 83.2522 26.0631C82.517 25.9234 75.1657 24.4427 67.7578 25.3646C67.5881 25.0015 67.4467 24.6103 67.2771 24.2192C66.8247 23.1576 66.3158 22.068 65.8068 21.0343C74.0064 17.7377 77.7386 12.9882 78.2193 12.3736ZM61.0002 4.29954C66.6551 4.29954 71.8293 6.39487 75.7594 9.83123C75.3636 10.39 71.9989 14.8321 64.0821 17.7656C60.4347 11.1443 56.3914 5.72437 55.7694 4.88624C57.4376 4.49511 59.1906 4.29954 61.0002 4.29954ZM51.5283 6.36695C52.122 7.14919 56.0804 12.5971 59.7844 19.0787C49.3794 21.8165 40.1902 21.7607 39.2006 21.7607C40.6426 14.9439 45.3079 9.27248 51.5283 6.36695ZM38.7199 26.2866C38.7199 26.0631 38.7199 25.8396 38.7199 25.6161C39.6813 25.644 50.4821 25.7837 61.5939 22.4871C62.2442 23.7163 62.838 24.9735 63.4035 26.2308C63.1207 26.3146 62.8097 26.3984 62.527 26.4822C51.0476 30.1421 44.9403 40.1438 44.4314 40.9819C40.897 37.0985 38.7199 31.9301 38.7199 26.2866ZM61.0002 48.2737C55.8543 48.2737 51.1041 46.5415 47.3436 43.636C47.7395 42.8258 52.2634 34.2209 64.8172 29.8906C64.8738 29.8627 64.902 29.8627 64.9586 29.8347C68.0971 37.8529 69.3694 44.5859 69.7087 46.5136C67.0226 47.659 64.0821 48.2737 61.0002 48.2737ZM73.4127 44.5021C73.1865 43.1611 71.999 36.7353 69.0867 28.829C76.0705 27.7394 82.1777 29.5274 82.9411 29.7789C81.9798 35.8972 78.4172 41.1775 73.4127 44.5021Z" fill="#C32361"/>
</g>
<path fill-rule="evenodd" clip-rule="evenodd" d="M120.543 81.5299C120.166 81.2619 119.867 81.2237 119.62 81.734C115.382 90.7296 108.244 86.2382 108.959 86.6338C110.545 85.9192 114.706 82.6527 114.081 78.123C113.705 75.3542 111.286 74.1292 108.712 74.5758C104.227 75.3414 102.589 80.088 103.421 84.286C103.564 85.0133 103.824 85.6003 104.097 86.1872C99.0401 90.232 97.0252 82.5762 96.791 81.6575C96.7782 81.6064 100.704 78.4037 101.796 70.7607C102.94 62.7603 100.34 61.2929 97.6752 61.344C92.7481 61.4333 91.4219 71.5262 93.2029 79.9349C93.0599 79.9732 92.3579 80.356 91.24 80.3943C90.4339 77.9061 86.9888 75.7242 86.0917 76.5663C83.8426 78.6717 86.6377 82.7803 88.614 83.0993C87.4307 90.2576 80.0206 88.484 81.3985 79.5138C83.8037 75.1245 85.6498 68.5787 85.3118 64.636C85.1947 63.2452 84.1416 61.3695 81.7626 61.4588C77.1866 61.6374 76.6926 71.7304 77.2255 78.9014C77.1996 78.7227 76.9396 79.769 75.0673 80.2922C74.6254 77.8806 70.6604 75.4435 69.7244 76.6174C67.9824 78.7993 71.0114 82.691 72.4413 82.959C71.2584 90.1172 63.8482 88.3436 65.2262 79.3735C67.6444 74.9841 69.4774 68.4511 69.1522 64.5084C69.0354 63.1176 67.9824 61.2419 65.6031 61.3312C61.027 61.5098 60.533 71.6028 61.0662 78.7738C61.0401 78.5951 60.78 79.6797 58.8299 80.1901C58.7651 77.0512 54.787 75.6221 53.8249 76.6174C52.1218 78.4037 54.2149 82.0658 56.1519 82.959C54.9689 90.1172 47.5588 88.3436 48.9367 79.3735C51.3419 74.9841 53.1879 68.4384 52.85 64.4956C52.746 63.1176 51.6929 61.2419 49.3136 61.3312C44.7375 61.5098 44.3737 72.1132 44.9066 79.2842C43.3985 85.6258 38.3415 93.5369 39.0043 77.6764C39.0694 76.5663 39.1345 76.1453 38.5754 75.7242C38.1465 75.4052 37.1844 75.5583 36.6643 75.5711C36.0273 75.5966 35.8585 75.9666 35.7283 76.5153C35.4034 77.9444 35.3383 79.3352 35.2863 81.2364C35.2605 82.1296 35.1823 82.5379 34.8313 83.7501C34.4803 84.9623 32.5043 87.1697 31.4123 86.7997C29.9042 86.2893 30.3982 82.1168 30.6841 79.2459C30.9183 76.9747 30.1642 75.9666 28.2401 75.5966C27.1091 75.3669 26.4201 75.4052 25.2501 75.0352C24.132 74.6907 23.885 72.6236 21.519 73.3126C20.2189 73.6954 21.051 76.3877 20.7389 78.391C19.2049 88.2288 16.0198 88.4967 14.5378 83.7246C21.194 67.6983 16.4488 61.3822 13.6797 61.3822C10.7937 61.3822 7.49158 63.3345 8.8826 75.839C8.20659 75.6476 7.99859 75.5456 7.24456 75.5456C3.04544 75.5328 0.172363 78.8759 0.172363 82.9973C0.172363 87.1187 3.04544 90.4617 7.25757 90.4617C9.74063 90.4617 11.4827 89.3516 12.8087 87.6418C13.6667 88.854 14.7198 90.4873 16.6438 90.4107C22.364 90.1938 24.028 78.6717 24.223 78.021C24.8341 78.1103 25.4191 78.2889 25.9781 78.3782C26.9141 78.5186 26.9921 78.8886 26.9661 79.8073C26.7191 87.6418 28.1882 90.3852 31.5294 90.3852C33.3882 90.3852 35.0524 88.5861 36.1964 87.3101C37.0545 89.0454 38.4063 90.3341 40.2396 90.3852C44.6596 90.4873 46.3628 83.5714 46.2067 84.4774C46.0896 85.1919 47.6367 90.3341 52.2 90.3596C57.8419 90.3852 58.895 84.2988 59.0121 83.278C59.0379 83.0993 59.0252 83.0738 59.0121 83.278C59.0121 83.2907 59.0121 83.3163 59.0121 83.3418C60.8061 83.01 61.729 82.0786 61.729 82.0786C61.729 82.0786 63.1721 90.4617 68.4894 90.3724C74.0146 90.2703 75.0673 84.7709 75.1975 83.699C75.2234 83.4694 75.2106 83.4439 75.1975 83.699C75.1975 83.7118 75.1975 83.7246 75.1975 83.7246C77.3295 82.959 77.8886 82.2062 77.8886 82.2062C77.8886 82.2062 79.0326 90.4235 84.6487 90.5C89.654 90.5639 91.5128 85.5237 91.5259 83.4183C92.3709 83.4311 93.9311 82.9207 93.8921 82.8952C93.8921 82.8952 95.7251 90.079 100.847 90.449C103.252 90.6275 105.059 89.1219 106.086 88.4329C108.504 90.3596 116.552 92.8096 121.635 84.3498C122.363 83.1504 120.816 81.7085 120.543 81.5299ZM7.04955 87.6674C4.5925 87.6674 3.01945 85.4344 3.01945 83.0355C3.01945 80.6367 4.46249 78.4037 6.91957 78.4037C8.02459 78.4037 8.6356 78.5186 9.50662 79.2587C9.66264 79.8584 10.1046 81.2492 10.3257 81.8872C10.6116 82.7293 10.9627 83.4566 11.3007 84.235C10.7937 86.251 9.18161 87.6674 7.04955 87.6674ZM13.0297 79.3225C12.9257 79.1566 12.9517 79.2587 12.8347 79.1055C12.3927 77.9061 11.5217 75.2266 11.4177 72.177C11.3007 68.7319 11.8857 64.687 13.6147 64.687C14.7848 64.687 16.0328 72.8788 13.0297 79.3225ZM47.6236 75.737C47.3507 73.6954 47.3376 64.5722 49.5609 64.8274C50.7959 65.3122 48.7807 73.9123 47.6236 75.737ZM63.913 75.737C63.6402 73.6954 63.6271 64.5722 65.8504 64.8274C67.0853 65.3122 65.0701 73.9123 63.913 75.737ZM80.0726 75.8646C79.7995 73.823 79.7867 64.6998 82.0096 64.955C83.2446 65.4271 81.2297 74.0399 80.0726 75.8646ZM97.9091 64.2787C99.9502 64.0745 99.8592 72.815 95.7771 78.3272C95.2439 76.3367 94.4381 64.9677 97.9091 64.2787ZM106.489 83.0993C105.839 79.8456 107.529 77.7147 109.271 77.485C109.883 77.3957 110.767 77.7785 110.935 78.5058C111.222 79.8711 110.896 81.8999 106.983 84.4646C106.997 84.4774 106.632 83.8139 106.489 83.0993ZM37.3405 73.0702C38.7315 73.0702 39.8624 71.9601 39.8624 70.5948C39.8624 69.2295 38.7315 68.1194 37.3405 68.1194C35.9494 68.1194 34.8182 69.2295 34.8182 70.5948C34.8182 71.9601 35.9494 73.0702 37.3405 73.0702Z" fill="#444444"/>
<defs>
<clipPath id="clip0_1818_1610">
<rect width="52.138" height="51.5173" fill="white" transform="translate(34.9312 0.5)"/>
</clipPath>
</defs>
</svg>
