<svg width="18" height="19" viewBox="0 0 18 19" fill="none" xmlns="http://www.w3.org/2000/svg">
<path d="M10.4062 12.3242H2.8125" stroke="black" stroke-linecap="round" stroke-linejoin="round"/>
<path d="M15.1875 12.3242H13.2188" stroke="black" stroke-linecap="round" stroke-linejoin="round"/>
<path d="M11.8125 13.7305C12.5892 13.7305 13.2188 13.1009 13.2188 12.3242C13.2188 11.5476 12.5892 10.918 11.8125 10.918C11.0358 10.918 10.4062 11.5476 10.4062 12.3242C10.4062 13.1009 11.0358 13.7305 11.8125 13.7305Z" stroke="black" stroke-linecap="round" stroke-linejoin="round"/>
<path d="M5.90625 6.13672H2.8125" stroke="black" stroke-linecap="round" stroke-linejoin="round"/>
<path d="M15.1875 6.13672H8.71875" stroke="black" stroke-linecap="round" stroke-linejoin="round"/>
<path d="M7.3125 7.54297C8.08915 7.54297 8.71875 6.91337 8.71875 6.13672C8.71875 5.36007 8.08915 4.73047 7.3125 4.73047C6.53585 4.73047 5.90625 5.36007 5.90625 6.13672C5.90625 6.91337 6.53585 7.54297 7.3125 7.54297Z" stroke="black" stroke-linecap="round" stroke-linejoin="round"/>
</svg>
