<svg width="14" height="15" viewBox="0 0 14 15" fill="none" xmlns="http://www.w3.org/2000/svg">
<path d="M8.09375 9.63672H2.1875" stroke="white" stroke-linecap="round" stroke-linejoin="round"/>
<path d="M11.8125 9.63672H10.2812" stroke="white" stroke-linecap="round" stroke-linejoin="round"/>
<path d="M9.1875 10.7305C9.79156 10.7305 10.2812 10.2408 10.2812 9.63672C10.2812 9.03266 9.79156 8.54297 9.1875 8.54297C8.58344 8.54297 8.09375 9.03266 8.09375 9.63672C8.09375 10.2408 8.58344 10.7305 9.1875 10.7305Z" stroke="white" stroke-linecap="round" stroke-linejoin="round"/>
<path d="M4.59375 4.82422H2.1875" stroke="white" stroke-linecap="round" stroke-linejoin="round"/>
<path d="M11.8125 4.82422H6.78125" stroke="white" stroke-linecap="round" stroke-linejoin="round"/>
<path d="M5.6875 5.91797C6.29156 5.91797 6.78125 5.42828 6.78125 4.82422C6.78125 4.22016 6.29156 3.73047 5.6875 3.73047C5.08344 3.73047 4.59375 4.22016 4.59375 4.82422C4.59375 5.42828 5.08344 5.91797 5.6875 5.91797Z" stroke="white" stroke-linecap="round" stroke-linejoin="round"/>
</svg>
