<svg width="18" height="19" viewBox="0 0 18 19" fill="none" xmlns="http://www.w3.org/2000/svg">
<path d="M2.96076 3.83594H15.0404C15.1496 3.83597 15.2563 3.86774 15.3477 3.92737C15.439 3.98699 15.5111 4.07191 15.5551 4.17177C15.599 4.27163 15.613 4.38212 15.5953 4.48978C15.5776 4.59744 15.5289 4.69762 15.4553 4.77813L10.8358 9.86172C10.7396 9.96463 10.6867 10.1006 10.6881 10.2414V14.2211C10.689 14.3146 10.6662 14.4068 10.622 14.4891C10.5777 14.5715 10.5134 14.6413 10.435 14.6922L8.18498 16.1898C8.10058 16.2454 8.00276 16.2773 7.90181 16.282C7.80085 16.2867 7.7005 16.2641 7.61128 16.2166C7.52207 16.1691 7.4473 16.0985 7.39483 16.0121C7.34236 15.9258 7.31413 15.8268 7.3131 15.7258V10.2414C7.31446 10.1006 7.26159 9.96463 7.16545 9.86172L2.54592 4.77813C2.47227 4.69762 2.42362 4.59744 2.4059 4.48978C2.38819 4.38212 2.40216 4.27163 2.44613 4.17177C2.4901 4.07191 2.56216 3.98699 2.65353 3.92737C2.74491 3.86774 2.85165 3.83597 2.96076 3.83594V3.83594Z" stroke="white" stroke-linecap="round" stroke-linejoin="round"/>
</svg>
