<svg width="21" height="20" viewBox="0 0 21 20" fill="none" xmlns="http://www.w3.org/2000/svg">
<path d="M10.5 17.5C14.6421 17.5 18 14.1421 18 10C18 5.85786 14.6421 2.5 10.5 2.5C6.35786 2.5 3 5.85786 3 10C3 14.1421 6.35786 17.5 10.5 17.5Z" stroke="#222222" stroke-width="1.5" stroke-miterlimit="10"/>
<path d="M3.42969 7.5H17.5703" stroke="black" stroke-width="1.5" stroke-linecap="round" stroke-linejoin="round"/>
<path d="M3.42969 12.5H17.5703" stroke="black" stroke-width="1.5" stroke-linecap="round" stroke-linejoin="round"/>
<path d="M10.5 17.2969C12.2259 17.2969 13.625 14.03 13.625 10C13.625 5.97005 12.2259 2.70312 10.5 2.70312C8.77411 2.70312 7.375 5.97005 7.375 10C7.375 14.03 8.77411 17.2969 10.5 17.2969Z" stroke="black" stroke-width="1.5" stroke-miterlimit="10"/>
</svg>
