<svg width="15" height="15" viewBox="0 0 15 15" fill="none" xmlns="http://www.w3.org/2000/svg">
<path d="M13.9517 6.03672C13.8892 5.83983 13.7685 5.66645 13.6057 5.5393C13.4429 5.41216 13.2454 5.33719 13.0392 5.32422L9.32673 5.06797L7.95173 1.59922C7.87665 1.40822 7.74596 1.24416 7.57659 1.12827C7.40722 1.01238 7.20695 0.950008 7.00173 0.949219C6.79651 0.950008 6.59625 1.01238 6.42687 1.12827C6.2575 1.24416 6.12681 1.40822 6.05173 1.59922L4.65173 5.08672L0.964231 5.32422C0.758297 5.33803 0.561245 5.41332 0.398565 5.54034C0.235885 5.66736 0.115064 5.84028 0.0517314 6.03672C-0.0133057 6.23617 -0.0171055 6.45053 0.0408217 6.65216C0.098749 6.85379 0.215747 7.03345 0.376731 7.16797L3.21423 9.56797L2.37048 12.8867C2.3121 13.1112 2.32261 13.3481 2.40063 13.5666C2.47866 13.785 2.62059 13.975 2.80798 14.1117C2.98988 14.2423 3.20659 14.3156 3.43038 14.3223C3.65418 14.3289 3.87487 14.2687 4.06423 14.1492L6.99548 12.293H7.00798L10.1642 14.2867C10.3261 14.3919 10.5149 14.4483 10.708 14.4492C10.8656 14.448 11.0209 14.4106 11.1619 14.34C11.3028 14.2693 11.4257 14.1673 11.5211 14.0418C11.6164 13.9162 11.6817 13.7705 11.712 13.6158C11.7422 13.461 11.7366 13.3014 11.6955 13.1492L10.8017 9.51797L13.6267 7.16797C13.7877 7.03345 13.9047 6.85379 13.9626 6.65216C14.0206 6.45053 14.0168 6.23617 13.9517 6.03672Z" fill="#034FE2"/>
<defs>
<linearGradient id="paint0_linear_7383_49833" x1="0" y1="0.949219" x2="14.9641" y2="2.11459" gradientUnits="userSpaceOnUse">
<stop stop-color="#034FE2"/>
<stop offset="1" stop-color="#034FE2"/>
</linearGradient>
</defs>
</svg>
