<svg width="15" height="14" viewBox="0 0 15 14" fill="none" xmlns="http://www.w3.org/2000/svg">
<path d="M13.8845 5.52386L8.25953 0.412143C8.05214 0.222411 7.78123 0.117188 7.50015 0.117188C7.21907 0.117188 6.94816 0.222411 6.74078 0.412143L1.11578 5.52386C1.00061 5.62922 0.908624 5.7574 0.845678 5.90024C0.782732 6.04308 0.7502 6.19745 0.75015 6.35355V12.8293C0.745577 13.113 0.845709 13.3883 1.0314 13.6028C1.13679 13.7226 1.26662 13.8185 1.41215 13.884C1.55769 13.9495 1.71556 13.9831 1.87515 13.9825H5.25015C5.39933 13.9825 5.54241 13.9232 5.6479 13.8177C5.75339 13.7122 5.81265 13.5691 5.81265 13.42V10.045C5.81265 9.89577 5.87191 9.7527 5.9774 9.64721C6.08289 9.54172 6.22597 9.48246 6.37515 9.48246H8.62515C8.77433 9.48246 8.91741 9.54172 9.0229 9.64721C9.12839 9.7527 9.18765 9.89577 9.18765 10.045V13.42C9.18765 13.5691 9.24691 13.7122 9.3524 13.8177C9.45789 13.9232 9.60097 13.9825 9.75015 13.9825H13.1252C13.3117 13.9841 13.4957 13.9381 13.6595 13.8489C13.8378 13.7518 13.9867 13.6085 14.0907 13.4341C14.1946 13.2596 14.2497 13.0605 14.2502 12.8575V6.35355C14.2501 6.19745 14.2176 6.04308 14.1546 5.90024C14.0917 5.7574 13.9997 5.62922 13.8845 5.52386Z" fill="black"/>
</svg>
