<svg width="19" height="19" viewBox="0 0 19 19" fill="none" xmlns="http://www.w3.org/2000/svg">
<path d="M15.8845 7.75433L10.2595 2.64261C10.0521 2.45288 9.78123 2.34766 9.50015 2.34766C9.21907 2.34766 8.94816 2.45288 8.74078 2.64261L3.11578 7.75433C3.00061 7.85969 2.90862 7.98787 2.84568 8.13071C2.78273 8.27355 2.7502 8.42792 2.75015 8.58402V15.0598C2.74558 15.3434 2.84571 15.6188 3.0314 15.8332C3.13679 15.9531 3.26662 16.049 3.41215 16.1145C3.55769 16.18 3.71556 16.2135 3.87515 16.2129H7.25015C7.39933 16.2129 7.54241 16.1537 7.6479 16.0482C7.75339 15.9427 7.81265 15.7996 7.81265 15.6504V12.2754C7.81265 12.1262 7.87191 11.9832 7.9774 11.8777C8.08289 11.7722 8.22597 11.7129 8.37515 11.7129H10.6252C10.7743 11.7129 10.9174 11.7722 11.0229 11.8777C11.1284 11.9832 11.1877 12.1262 11.1877 12.2754V15.6504C11.1877 15.7996 11.2469 15.9427 11.3524 16.0482C11.4579 16.1537 11.601 16.2129 11.7502 16.2129H15.1252C15.3117 16.2146 15.4957 16.1686 15.6595 16.0793C15.8378 15.9822 15.9867 15.839 16.0907 15.6645C16.1946 15.4901 16.2497 15.291 16.2502 15.0879V8.58402C16.2501 8.42792 16.2176 8.27355 16.1546 8.13071C16.0917 7.98787 15.9997 7.85969 15.8845 7.75433Z" fill="white"/>
</svg>
