<svg width="19" height="19" viewBox="0 0 19 19" fill="none" xmlns="http://www.w3.org/2000/svg">
<path d="M11.1875 15.1701V11.7951C11.1875 11.6459 11.1282 11.5029 11.0227 11.3974C10.9173 11.2919 10.7742 11.2326 10.625 11.2326H8.375C8.22582 11.2326 8.08274 11.2919 7.97725 11.3974C7.87176 11.5029 7.8125 11.6459 7.8125 11.7951V15.1701C7.8125 15.3193 7.75324 15.4624 7.64775 15.5679C7.54226 15.6734 7.39918 15.7326 7.25 15.7326H3.875C3.72582 15.7326 3.58274 15.6734 3.47725 15.5679C3.37176 15.4624 3.3125 15.3193 3.3125 15.1701V8.66623C3.31376 8.58838 3.33058 8.51157 3.36198 8.44033C3.39337 8.36908 3.43871 8.30484 3.49531 8.25138L9.12031 3.13967C9.22401 3.0448 9.35946 2.99219 9.5 2.99219C9.64054 2.99219 9.77599 3.0448 9.87969 3.13967L15.5047 8.25138C15.5613 8.30484 15.6066 8.36908 15.638 8.44033C15.6694 8.51157 15.6862 8.58838 15.6875 8.66623V15.1701C15.6875 15.3193 15.6282 15.4624 15.5227 15.5679C15.4173 15.6734 15.2742 15.7326 15.125 15.7326H11.75C11.6008 15.7326 11.4577 15.6734 11.3523 15.5679C11.2468 15.4624 11.1875 15.3193 11.1875 15.1701Z" stroke="black" stroke-linecap="round" stroke-linejoin="round"/>
</svg>
