<svg width="25" height="25" viewBox="0 0 25 25" fill="none" xmlns="http://www.w3.org/2000/svg">
<path d="M12.6953 16.4766C14.7664 16.4766 16.4453 14.7976 16.4453 12.7266C16.4453 10.6555 14.7664 8.97656 12.6953 8.97656C10.6242 8.97656 8.94531 10.6555 8.94531 12.7266C8.94531 14.7976 10.6242 16.4766 12.6953 16.4766Z" stroke="#717171" stroke-width="1.5" stroke-miterlimit="10"/>
<path d="M16.8203 4.10156H8.57031C6.08503 4.10156 4.07031 6.11628 4.07031 8.60156V16.8516C4.07031 19.3368 6.08503 21.3516 8.57031 21.3516H16.8203C19.3056 21.3516 21.3203 19.3368 21.3203 16.8516V8.60156C21.3203 6.11628 19.3056 4.10156 16.8203 4.10156Z" stroke="#717171" stroke-width="1.5" stroke-linecap="round" stroke-linejoin="round"/>
<path d="M17.5703 8.97656C18.1916 8.97656 18.6953 8.47288 18.6953 7.85156C18.6953 7.23024 18.1916 6.72656 17.5703 6.72656C16.949 6.72656 16.4453 7.23024 16.4453 7.85156C16.4453 8.47288 16.949 8.97656 17.5703 8.97656Z" fill="#717171"/>
</svg>
