<svg width="18" height="19" viewBox="0 0 18 19" fill="none" xmlns="http://www.w3.org/2000/svg">
<path d="M12.6562 15.4364C13.0458 15.2659 13.4219 15.0661 13.7812 14.8387V17.5738C13.7812 17.723 13.7219 17.8661 13.6165 17.9716C13.511 18.0771 13.3679 18.1363 13.2187 18.1363C13.0695 18.1363 12.9265 18.0771 12.821 17.9716C12.7155 17.8661 12.6562 17.723 12.6562 17.5738V15.4364ZM8.50079 7.18175C8.43266 7.31467 8.41877 7.46885 8.46205 7.6118C8.50533 7.75476 8.6024 7.87534 8.73282 7.94815L12.0234 9.69891L13.2187 9.05908L9.26719 6.94972C9.13426 6.88159 8.98009 6.86771 8.83714 6.91099C8.69418 6.95427 8.5736 7.05134 8.50079 7.18175ZM17.7046 6.94972L9.26719 2.44977C9.18422 2.4083 9.09275 2.38672 9 2.38672C8.90725 2.38672 8.81578 2.4083 8.73282 2.44977L0.2954 6.94972C0.205954 6.99884 0.131348 7.07108 0.0793822 7.1589C0.0274164 7.24673 0 7.34689 0 7.44894C0 7.55098 0.0274164 7.65115 0.0793822 7.73897C0.131348 7.82679 0.205954 7.89903 0.2954 7.94815L1.96882 8.83408V12.3356C1.96776 12.577 2.0469 12.812 2.19382 13.0036C2.74928 13.7489 4.88676 16.1676 9 16.1676C10.2568 16.1781 11.502 15.9267 12.6562 15.4293V10.0364L12.0234 9.69891L9 11.3091L2.7985 8.0044L1.75789 7.44894L9 3.58882L16.2421 7.44894L15.2015 8.0044L13.2187 9.05908L13.4859 9.1997C13.581 9.25462 13.6589 9.33497 13.7109 9.43173C13.7577 9.51296 13.7819 9.60519 13.7812 9.69891V14.8387C14.5582 14.3499 15.2435 13.7288 15.8062 13.0036C15.9531 12.812 16.0322 12.577 16.0312 12.3356V8.83408L17.7046 7.94815C17.794 7.89903 17.8687 7.82679 17.9206 7.73897C17.9726 7.65115 18 7.55098 18 7.44894C18 7.34689 17.9726 7.24673 17.9206 7.1589C17.8687 7.07108 17.794 6.99884 17.7046 6.94972Z" fill="url(#paint0_linear_7383_49855)"/>
<defs>
<linearGradient id="paint0_linear_7383_49855" x1="0" y1="2.38672" x2="19.21" y2="4.03505" gradientUnits="userSpaceOnUse">
<stop stop-color="#034FE2"/>
<stop offset="1" stop-color="#034FE2"/>
</linearGradient>
</defs>
</svg>
