<svg width="25" height="25" viewBox="0 0 25 25" fill="none" xmlns="http://www.w3.org/2000/svg">
<path d="M20.5703 4.10156H4.82031C4.4061 4.10156 4.07031 4.43735 4.07031 4.85156V20.6016C4.07031 21.0158 4.4061 21.3516 4.82031 21.3516H20.5703C20.9845 21.3516 21.3203 21.0158 21.3203 20.6016V4.85156C21.3203 4.43735 20.9845 4.10156 20.5703 4.10156Z" stroke="#717171" stroke-width="1.5" stroke-linecap="round" stroke-linejoin="round"/>
<path d="M11.9453 11.2266V17.2266" stroke="#717171" stroke-width="1.5" stroke-linecap="round" stroke-linejoin="round"/>
<path d="M8.94531 11.2266V17.2266" stroke="#717171" stroke-width="1.5" stroke-linecap="round" stroke-linejoin="round"/>
<path d="M11.9453 13.8516C11.9453 13.1554 12.2219 12.4877 12.7142 11.9954C13.2064 11.5031 13.8741 11.2266 14.5703 11.2266C15.2665 11.2266 15.9342 11.5031 16.4265 11.9954C16.9188 12.4877 17.1953 13.1554 17.1953 13.8516V17.2266" stroke="#717171" stroke-width="1.5" stroke-linecap="round" stroke-linejoin="round"/>
<path d="M8.94531 9.35156C9.56663 9.35156 10.0703 8.84788 10.0703 8.22656C10.0703 7.60524 9.56663 7.10156 8.94531 7.10156C8.32399 7.10156 7.82031 7.60524 7.82031 8.22656C7.82031 8.84788 8.32399 9.35156 8.94531 9.35156Z" fill="#717171"/>
</svg>
