<svg width="18" height="19" viewBox="0 0 18 19" fill="none" xmlns="http://www.w3.org/2000/svg">
<path d="M9 15.9805C12.7279 15.9805 15.75 12.9584 15.75 9.23047C15.75 5.50255 12.7279 2.48047 9 2.48047C5.27208 2.48047 2.25 5.50255 2.25 9.23047C2.25 12.9584 5.27208 15.9805 9 15.9805Z" stroke="black" stroke-linecap="round" stroke-linejoin="round"/>
<path d="M9 11.4805C10.5533 11.4805 11.8125 10.2213 11.8125 8.66797C11.8125 7.11467 10.5533 5.85547 9 5.85547C7.4467 5.85547 6.1875 7.11467 6.1875 8.66797C6.1875 10.2213 7.4467 11.4805 9 11.4805Z" stroke="black" stroke-linecap="round" stroke-linejoin="round"/>
<path d="M4.48828 14.2512C4.9115 13.4176 5.55728 12.7175 6.35405 12.2284C7.15082 11.7393 8.06745 11.4805 9.00234 11.4805C9.93723 11.4805 10.8539 11.7393 11.6506 12.2284C12.4474 12.7175 13.0932 13.4176 13.5164 14.2512" stroke="black" stroke-linecap="round" stroke-linejoin="round"/>
</svg>
