<svg width="201" height="12" viewBox="0 0 201 12" fill="none" xmlns="http://www.w3.org/2000/svg">
<path d="M24.0479 0.221287C26.4435 0.48404 28.919 0.651224 31.2081 1.03341C36.2123 1.8575 41.0568 2.87268 45.3157 4.31783C51.8904 6.57512 59.6629 7.35147 67.4887 8.05613C70.3901 8.31888 73.1584 8.04416 75.6072 7.31562C77.6834 6.70651 79.7064 6.06156 81.7028 5.39273C83.9653 4.62836 86.148 3.8043 88.4106 3.03993C93.9738 1.15288 100.389 0.328788 107.203 0.0540914C111.196 -0.113115 114.922 0.424312 118.516 1.1648C122.375 1.965 126.208 2.80105 130.095 3.56542C134.833 4.48506 139.757 5.1061 144.948 5.28525C148.062 5.39274 150.857 5.18972 153.545 4.40146C159.8 2.57412 166.881 1.88142 174.148 1.48729C177.927 1.28426 181.601 1.57085 185.194 2.03664C188.947 2.51437 192.647 3.07573 196.294 3.6729C197.572 3.88788 198.743 4.27009 199.834 4.65228C200.633 4.93892 200.367 5.63163 199.515 5.90633C197.998 6.40795 196.267 6.55123 194.457 6.3482C191.875 6.0735 189.24 5.84661 186.765 5.4286C176.73 3.73264 167.254 4.54475 158.044 6.64678C156.633 6.96925 155.302 7.37535 153.838 7.68587C151.043 8.28304 148.089 8.45026 145.027 8.295C138.985 8.00836 133.129 7.42311 127.593 6.30044C124.372 5.64355 121.044 5.05833 117.983 4.27007C109.758 2.14415 101.906 2.89657 94.2399 4.79556C91.7911 5.40467 89.6616 6.30041 87.3724 7.05284C84.6574 7.94859 81.9956 8.86825 79.174 9.70429C75.1547 10.9106 70.6829 11.2808 65.9448 10.8509C57.2141 10.0507 48.6962 9.04739 41.5093 6.46763C37.7562 5.11803 33.311 4.27006 28.919 3.42208C24.6601 2.59799 20.6141 2.81299 16.7012 3.80429C11.9898 4.99862 8.1036 6.599 5.22883 8.66519C5.54825 9.56094 3.95114 9.68041 2.67347 9.89539C1.23608 10.1343 0.0648986 9.70426 0.357698 9.08321C0.544025 8.70102 0.756971 8.30689 1.15624 7.94859C4.56337 4.96276 9.38122 2.58608 16.2221 1.12899C18.6976 0.627372 21.2263 0.292947 24.0479 0.221287Z" fill="#8F14CC"/>
</svg>
