<svg width="13" height="12" viewBox="0 0 13 12" fill="none" xmlns="http://www.w3.org/2000/svg">
<path d="M11.3141 1.77481C11.6525 4.68322 11.6697 7.54574 11.5779 10.414C11.0617 10.7697 10.488 10.8442 9.93157 10.8901C7.68286 11.0737 5.43414 11.2171 3.18543 11.3663C2.88139 11.3892 2.57162 11.3892 2.26759 11.3605C1.4989 11.2917 1.30386 10.8729 1.72836 10.2132C1.79146 10.1157 1.84883 10.0239 1.90046 9.94361C1.88325 9.60515 1.64805 9.49042 1.40711 9.35274C0.690049 8.93398 0.672842 8.64716 1.30959 8.07924C1.39564 8.00467 1.50464 7.95877 1.59642 7.9014C1.42432 6.68526 1.26371 5.55517 1.09735 4.36198C0.95967 4.2702 0.799042 4.17842 0.661366 4.06369C0.265547 3.74818 0.248349 3.46709 0.586803 3.11716C0.741688 2.95654 0.959667 2.81886 1.02277 2.62956C1.13176 2.30831 1.12603 1.9928 0.799051 1.70598C0.322921 1.29295 0.661369 0.707829 1.22355 0.650463C1.45301 0.627517 1.68247 0.621775 1.91193 0.616039C4.74003 0.541464 7.56813 0.466895 10.3962 0.392321C10.7806 0.380848 11.1592 0.380842 11.5435 0.386578C11.7959 0.392315 11.9852 0.52426 12.0598 0.765194C12.1344 1.00039 12.0713 1.22412 11.8762 1.38474C11.7271 1.51094 11.5607 1.60272 11.3141 1.77481ZM10.1955 8.7963C9.7308 9.42732 9.65047 9.63956 9.86846 9.80592C10.0061 9.78871 10.1897 9.76577 10.4077 9.73709C10.379 9.53631 10.3733 9.38717 10.3389 9.24375C10.3044 9.10608 10.2471 8.9684 10.1955 8.7963Z" fill="#8F14CC"/>
</svg>
