<svg width="12" height="12" viewBox="0 0 12 12" fill="none" xmlns="http://www.w3.org/2000/svg">
<path d="M11.6404 5.59631C11.6473 6.90812 11.1433 8.0197 10.2734 8.95868C8.97538 10.3602 8.75034 11.0569 6.86547 11.2157C4.57326 11.409 2.64004 10.5391 1.14182 8.78539C0.879453 8.4747 0.658517 8.10877 0.485911 7.74284C-0.225228 6.24462 -0.183782 4.76712 0.886378 3.47602C2.16367 1.92947 3.6757 0.672892 5.75388 0.348392C7.0795 0.141264 6.98696 0.224794 8.27805 0.708092C10.3355 1.48137 11.668 3.41457 11.6404 5.59631ZM5.48462 6.96957C5.51914 6.62436 5.57436 6.45176 5.53984 6.28605C5.52603 6.1963 5.38103 6.07203 5.28437 6.06512C5.07034 6.04441 4.93228 6.217 5.00132 6.39651C5.07037 6.56912 5.24988 6.6934 5.48462 6.96957ZM1.75632 5.11233C1.73561 5.34017 1.70109 5.45754 1.7218 5.57491C1.7287 5.63705 1.83226 5.67848 1.8875 5.73371C1.92892 5.64396 2.01868 5.5473 1.99797 5.47135C1.98416 5.37469 1.8806 5.28494 1.75632 5.11233ZM9.83151 4.40187C9.77628 4.20165 9.77626 4.06356 9.70721 3.98071C9.64508 3.90476 9.52079 3.88405 9.42413 3.84262C9.43104 3.95999 9.39654 4.09808 9.45178 4.18783C9.50011 4.27759 9.63819 4.30521 9.83151 4.40187ZM7.22447 9.56558C7.28661 9.53106 7.34876 9.49653 7.4109 9.4551C7.32805 9.43439 7.24519 9.41368 7.16234 9.40678C7.12092 9.40678 7.0795 9.44129 7.03808 9.4551C7.10022 9.48962 7.16234 9.53106 7.22447 9.56558Z" fill="#8F14CC"/>
</svg>
