<svg width="36" height="36" viewBox="0 0 36 36" fill="none" xmlns="http://www.w3.org/2000/svg">
<path d="M15.7563 2.81567L15.7563 2.81563C15.8603 2.60795 16.02 2.43333 16.2176 2.31135C16.4152 2.18937 16.6428 2.12484 16.875 2.125L15.7563 2.81567ZM15.7563 2.81567L10.478 13.375H4.5C3.87011 13.375 3.26602 13.6252 2.82062 14.0706C2.37522 14.516 2.125 15.1201 2.125 15.75V28.125C2.125 28.7549 2.37522 29.359 2.82062 29.8044C3.26602 30.2498 3.87011 30.5 4.5 30.5H28.6875C28.6875 30.5 28.6875 30.5 28.6875 30.5C29.5402 30.5003 30.3636 30.1893 31.0032 29.6254C31.6429 29.0615 32.0546 28.2835 32.1612 27.4375L32.1612 27.4374M15.7563 2.81567L32.1612 27.4374M32.1612 27.4374L33.8487 13.9375L32.1612 27.4374ZM31.3675 13.6251L31.3675 13.625C31.3853 13.4842 31.3729 13.3413 31.3311 13.2056C31.2893 13.07 31.2192 12.9448 31.1253 12.8384C31.0314 12.732 30.9159 12.6468 30.7866 12.5885C30.6572 12.5301 30.5169 12.5 30.375 12.5H30.375H21.375C21.0435 12.5 20.7255 12.3683 20.4911 12.1339C20.2567 11.8995 20.125 11.5815 20.125 11.25V7.875V7.87497C20.1252 7.12356 19.865 6.39531 19.3888 5.81412C18.9327 5.25748 18.3053 4.8687 17.6058 4.70729L12.5 14.9203V28H28.6875H28.6875C28.9312 28.0001 29.1664 27.9112 29.3492 27.7501C29.5319 27.589 29.6495 27.3668 29.68 27.1251L31.3675 13.6251ZM31.3675 13.6251L29.68 27.125L31.3675 13.6251ZM31.8149 10.3096C32.2675 10.5138 32.6715 10.8119 33 11.1842C33.3287 11.5566 33.5744 11.9947 33.7208 12.4694C33.8671 12.9441 33.9107 13.4445 33.8487 13.9374L31.8149 10.3096ZM31.8149 10.3096C31.3623 10.1054 30.8715 9.9999 30.375 10H22.625M31.8149 10.3096L22.625 10M22.625 10V7.875C22.625 6.35001 22.0192 4.88747 20.9409 3.80914C19.8626 2.73082 18.4001 2.12502 16.8751 2.125L22.625 10ZM4.625 15.875H10V28H4.625V15.875Z" fill="#034FE2" stroke="#034FE2" stroke-width="0.25"/>
</svg>
