<svg width="251" height="214" viewBox="0 0 251 214" fill="none" xmlns="http://www.w3.org/2000/svg">
<path d="M170.103 9.23002C170.103 9.23002 135.858 52.6073 81.0666 26.7335C26.275 0.859722 -28.5167 70.8712 18.665 113.487C65.8468 156.102 19.6759 179.52 51.7292 205.637C88.16 235.322 119.877 175.127 148.795 188.825C212.618 219.057 259.9 207.089 249.246 172.083C230.545 110.635 206.631 106.638 224.895 74.6761C243.158 42.7138 202.85 -23.7421 170.103 9.23002Z" fill="#1C1E21"/>
<path d="M125.19 101.948V192.953L54.5322 162.434L54.8693 71.7585L125.19 101.948Z" fill="#418DF9"/>
<path d="M125.191 102.003V193.008L195.505 163.543V72.0488L125.191 102.003Z" fill="#A2BDFF"/>
<path d="M125.19 101.948L195.848 72.3535L125.745 41.2789L54.5322 71.6137L125.19 101.948Z" fill="#0E84E5"/>
<path d="M35.2366 87.8479L106.344 122.363C106.535 122.456 106.752 122.483 106.96 122.441C107.168 122.399 107.357 122.289 107.497 122.13L125.19 101.948L54.5321 71.6135L35.0784 86.1998C34.9454 86.2995 34.8402 86.4318 34.7731 86.5839C34.7059 86.736 34.679 86.9028 34.6949 87.0683C34.7108 87.2338 34.7689 87.3924 34.8638 87.5289C34.9587 87.6654 35.0871 87.7753 35.2366 87.8479Z" fill="#699CFF"/>
<path d="M195.847 72.3534L215.471 90.095C215.591 90.2032 215.682 90.3396 215.735 90.4918C215.789 90.644 215.804 90.8072 215.779 90.9666C215.753 91.126 215.688 91.2766 215.59 91.4046C215.492 91.5327 215.363 91.6342 215.216 91.7L144.985 123.044C144.797 123.128 144.588 123.15 144.387 123.107C144.186 123.064 144.004 122.958 143.867 122.806L125.189 101.948L195.847 72.3534Z" fill="#699CFF"/>
<path d="M125.744 41.2789L196.044 72.3535L206.154 70.0102C206.352 69.9641 206.532 69.8565 206.666 69.7027C206.8 69.5488 206.882 69.3566 206.9 69.1534C206.919 68.9501 206.873 68.7463 206.769 68.5708C206.664 68.3953 206.508 68.2571 206.32 68.176L142.128 40.3617C141.988 40.3008 141.835 40.274 141.683 40.2836L125.744 41.2789Z" fill="#699CFF"/>
<path d="M125.745 41.2788L55.8397 71.7583L47.0027 70.2733C46.7981 70.2352 46.6112 70.1322 46.4697 69.9796C46.3281 69.827 46.2395 69.6329 46.2167 69.426C46.194 69.2192 46.2385 69.0104 46.3435 68.8308C46.4486 68.6511 46.6086 68.51 46.8001 68.4283L112.579 40.0803C112.724 40.0185 112.882 39.9931 113.04 40.0063L125.745 41.2788Z" fill="#699CFF"/>
<path d="M198.603 178.818C208.242 178.818 216.056 171.004 216.056 161.365C216.056 151.726 208.242 143.912 198.603 143.912C188.964 143.912 181.15 151.726 181.15 161.365C181.15 171.004 188.964 178.818 198.603 178.818Z" fill="#418DF9" stroke="#0E84E5" stroke-width="15" stroke-miterlimit="10"/>
<path d="M204.15 156.193C203.862 155.191 203.458 154.376 202.939 153.756C202.437 153.15 201.786 152.686 201.05 152.408C199.462 151.86 197.736 151.86 196.148 152.408C195.413 152.684 194.764 153.149 194.266 153.756C193.74 154.376 193.336 155.191 193.055 156.193C192.774 157.195 192.63 158.42 192.63 159.862V162.804C192.63 164.245 192.774 165.471 193.062 166.48C193.289 167.377 193.704 168.215 194.281 168.939C194.782 169.55 195.432 170.022 196.17 170.308C197.75 170.875 199.478 170.875 201.058 170.308C201.791 170.022 202.437 169.55 202.933 168.939C203.5 168.212 203.91 167.374 204.136 166.48C204.418 165.471 204.562 164.245 204.562 162.804H204.577V159.862C204.575 158.42 204.431 157.195 204.15 156.193ZM201.519 163.243C201.529 164.028 201.466 164.812 201.331 165.586C201.24 166.136 201.052 166.666 200.776 167.15C200.564 167.524 200.249 167.829 199.868 168.03C199.477 168.218 199.048 168.312 198.614 168.304C198.18 168.31 197.751 168.217 197.359 168.03C196.974 167.828 196.652 167.524 196.429 167.15C196.147 166.666 195.952 166.137 195.853 165.586C195.705 164.814 195.638 164.029 195.651 163.243V159.393C195.638 158.61 195.704 157.828 195.846 157.057C195.941 156.517 196.134 155.999 196.416 155.529C196.639 155.17 196.959 154.88 197.338 154.693C197.732 154.522 198.156 154.433 198.586 154.433C199.015 154.433 199.439 154.522 199.833 154.693C200.215 154.875 200.536 155.166 200.756 155.529C201.037 155.999 201.231 156.517 201.326 157.057C201.468 157.828 201.533 158.61 201.521 159.393V163.243H201.519Z" fill="white"/>
</svg>
