<svg width="301" height="300" viewBox="0 0 301 300" fill="none" xmlns="http://www.w3.org/2000/svg">
<path d="M196.109 52.2337C196.109 52.2337 161.864 95.611 107.072 69.7372C52.2809 43.8634 -2.51085 113.875 44.6709 156.49C91.8527 199.106 45.6818 222.523 77.7351 248.641C114.166 278.326 145.883 218.131 174.801 231.829C238.624 262.061 285.906 250.093 275.252 215.087C256.551 153.639 232.637 149.642 250.9 117.68C269.164 85.7174 228.856 19.2616 196.109 52.2337Z" fill="#F7F7F7"/>
<path d="M151.193 144.956V235.96L80.5352 205.441L80.8722 114.766L151.193 144.956Z" fill="#418DF9"/>
<path d="M151.195 145.009V236.014L221.509 206.549V115.055L151.195 145.009Z" fill="#A2BDFF"/>
<path d="M151.193 144.951L221.851 115.356L151.748 84.2812L80.5352 114.616L151.193 144.951Z" fill="#0E84E5"/>
<path d="M61.2415 130.852L132.349 165.367C132.54 165.459 132.757 165.487 132.965 165.445C133.173 165.402 133.362 165.293 133.502 165.133L151.195 144.952L80.5369 114.617L61.0833 129.203C60.9503 129.303 60.8451 129.435 60.778 129.588C60.7108 129.74 60.6839 129.906 60.6998 130.072C60.7156 130.237 60.7738 130.396 60.8687 130.533C60.9636 130.669 61.092 130.779 61.2415 130.852Z" fill="#699CFF"/>
<path d="M221.853 115.359L241.477 133.101C241.597 133.209 241.687 133.346 241.741 133.498C241.795 133.65 241.81 133.813 241.784 133.973C241.759 134.132 241.694 134.283 241.596 134.411C241.498 134.539 241.369 134.64 241.222 134.706L170.991 166.05C170.803 166.134 170.594 166.156 170.393 166.113C170.192 166.07 170.01 165.964 169.873 165.811L151.195 144.954L221.853 115.359Z" fill="#699CFF"/>
<path d="M151.75 84.2862L222.05 115.361L232.16 113.018C232.358 112.971 232.537 112.864 232.672 112.71C232.806 112.556 232.888 112.364 232.906 112.161C232.925 111.957 232.879 111.754 232.774 111.578C232.67 111.403 232.513 111.264 232.326 111.183L168.134 83.369C167.994 83.3081 167.841 83.2814 167.688 83.291L151.75 84.2862Z" fill="#699CFF"/>
<path d="M151.749 84.2837L81.8436 114.763L73.0066 113.278C72.802 113.24 72.6151 113.137 72.4736 112.984C72.3321 112.832 72.2434 112.638 72.2206 112.431C72.1979 112.224 72.2424 112.015 72.3474 111.836C72.4525 111.656 72.6126 111.515 72.804 111.433L138.582 83.0852C138.728 83.0234 138.886 82.998 139.044 83.0112L151.749 84.2837Z" fill="#699CFF"/>
<path d="M224.609 221.82C234.248 221.82 242.062 214.006 242.062 204.367C242.062 194.728 234.248 186.914 224.609 186.914C214.97 186.914 207.156 194.728 207.156 204.367C207.156 214.006 214.97 221.82 224.609 221.82Z" fill="#418DF9" stroke="#0E84E5" stroke-width="15" stroke-miterlimit="10"/>
<path d="M230.157 199.196C229.869 198.194 229.465 197.379 228.946 196.759C228.444 196.153 227.793 195.689 227.057 195.411C225.469 194.863 223.743 194.863 222.155 195.411C221.42 195.687 220.771 196.152 220.273 196.759C219.747 197.379 219.343 198.194 219.062 199.196C218.781 200.198 218.637 201.423 218.637 202.865V205.806C218.637 207.248 218.781 208.474 219.069 209.483C219.296 210.38 219.711 211.218 220.288 211.941C220.788 212.553 221.439 213.025 222.176 213.311C223.756 213.878 225.484 213.878 227.064 213.311C227.798 213.025 228.444 212.553 228.939 211.941C229.507 211.214 229.917 210.377 230.143 209.483C230.424 208.474 230.569 207.248 230.569 205.806H230.584V202.865C230.582 201.423 230.438 200.198 230.157 199.196ZM227.526 206.246C227.536 207.031 227.473 207.815 227.338 208.589C227.247 209.139 227.059 209.669 226.783 210.153C226.571 210.527 226.255 210.832 225.875 211.033C225.484 211.221 225.054 211.315 224.621 211.307C224.187 211.313 223.758 211.219 223.366 211.033C222.981 210.831 222.659 210.527 222.436 210.153C222.154 209.669 221.959 209.14 221.859 208.589C221.712 207.817 221.644 207.032 221.658 206.246V202.396C221.645 201.613 221.71 200.831 221.853 200.06C221.948 199.52 222.141 199.002 222.423 198.532C222.646 198.173 222.966 197.883 223.345 197.696C223.739 197.525 224.163 197.436 224.592 197.436C225.022 197.436 225.446 197.525 225.84 197.696C226.222 197.878 226.543 198.169 226.762 198.532C227.044 199.002 227.237 199.52 227.332 200.06C227.475 200.831 227.54 201.613 227.527 202.396V206.246H227.526Z" fill="white"/>
</svg>
