<svg width="22" height="23" viewBox="0 0 22 23" fill="none" xmlns="http://www.w3.org/2000/svg">
<path d="M3.4375 15.3242V6.38672C3.4375 6.02205 3.58237 5.67231 3.84023 5.41445C4.09809 5.15658 4.44783 5.01172 4.8125 5.01172H17.1875C17.5522 5.01172 17.9019 5.15658 18.1598 5.41445C18.4176 5.67231 18.5625 6.02205 18.5625 6.38672V15.3242" stroke="#222222" stroke-linecap="round" stroke-linejoin="round"/>
<path d="M2.0625 15.3242H19.9375V16.6992C19.9375 17.0639 19.7926 17.4136 19.5348 17.6715C19.2769 17.9294 18.9272 18.0742 18.5625 18.0742H3.4375C3.07283 18.0742 2.72309 17.9294 2.46523 17.6715C2.20737 17.4136 2.0625 17.0639 2.0625 16.6992V15.3242Z" stroke="black" stroke-linecap="round" stroke-linejoin="round"/>
<path d="M12.375 7.76172H9.625" stroke="black" stroke-linecap="round" stroke-linejoin="round"/>
</svg>
