<svg width="18" height="19" viewBox="0 0 18 19" fill="none" xmlns="http://www.w3.org/2000/svg">
<path d="M11.207 3.3125C12.1611 3.56856 13.0311 4.07107 13.7296 4.76959C14.4282 5.46812 14.9307 6.33809 15.1867 7.29219" stroke="black" stroke-width="1.2" stroke-linecap="round" stroke-linejoin="round"/>
<path d="M10.625 5.48438C11.1988 5.63677 11.7222 5.93816 12.142 6.35799C12.5618 6.77782 12.8632 7.30117 13.0156 7.875" stroke="black" stroke-width="1.2" stroke-linecap="round" stroke-linejoin="round"/>
<path d="M6.50391 9.27484C7.08273 10.4702 8.04929 11.4342 9.24609 12.01C9.33437 12.0518 9.43202 12.0699 9.52942 12.0625C9.62681 12.0551 9.72061 12.0225 9.80156 11.9678L11.5594 10.7936C11.637 10.7409 11.7268 10.7088 11.8202 10.7002C11.9137 10.6916 12.0078 10.7068 12.0938 10.7444L15.3844 12.1577C15.4968 12.2045 15.5908 12.2869 15.6518 12.3924C15.7128 12.4978 15.7374 12.6204 15.7219 12.7412C15.6176 13.5553 15.2202 14.3034 14.6042 14.8457C13.9882 15.3879 13.1957 15.6872 12.375 15.6873C9.83887 15.6873 7.40661 14.6799 5.61329 12.8865C3.81997 11.0932 2.8125 8.66097 2.8125 6.12484C2.81268 5.30415 3.1119 4.51165 3.65416 3.89562C4.19642 3.2796 4.94456 2.88226 5.75859 2.77796C5.87942 2.76244 6.00199 2.78707 6.10745 2.84806C6.2129 2.90904 6.29538 3.003 6.34219 3.11546L7.75547 6.41312C7.79222 6.49774 7.8076 6.5901 7.80024 6.68206C7.79288 6.77402 7.76302 6.86276 7.71328 6.94046L6.53906 8.7264C6.48679 8.80718 6.4561 8.90002 6.44995 8.99604C6.44379 9.09206 6.46237 9.18805 6.50391 9.27484V9.27484Z" stroke="black" stroke-width="1.2" stroke-linecap="round" stroke-linejoin="round"/>
</svg>
