<svg width="19" height="18" viewBox="0 0 19 18" fill="none" xmlns="http://www.w3.org/2000/svg">
<path d="M3.875 12.9375V5.0625" stroke="white" stroke-linecap="round" stroke-linejoin="round"/>
<path d="M15.125 5.0625V12.9375" stroke="white" stroke-linecap="round" stroke-linejoin="round"/>
<path d="M7.25 9V10.125" stroke="white" stroke-linecap="round" stroke-linejoin="round"/>
<path d="M9.5 8.4375V10.125" stroke="white" stroke-linecap="round" stroke-linejoin="round"/>
<path d="M11.75 7.875V10.125" stroke="white" stroke-linecap="round" stroke-linejoin="round"/>
<path d="M15.6875 2.8125H3.3125C3.00184 2.8125 2.75 3.06434 2.75 3.375V4.5C2.75 4.81066 3.00184 5.0625 3.3125 5.0625H15.6875C15.9982 5.0625 16.25 4.81066 16.25 4.5V3.375C16.25 3.06434 15.9982 2.8125 15.6875 2.8125Z" stroke="white" stroke-linecap="round" stroke-linejoin="round"/>
<path d="M9.5 12.9375V15.1875" stroke="white" stroke-linecap="round" stroke-linejoin="round"/>
<path d="M9.5 17.4375C10.1213 17.4375 10.625 16.9338 10.625 16.3125C10.625 15.6912 10.1213 15.1875 9.5 15.1875C8.87868 15.1875 8.375 15.6912 8.375 16.3125C8.375 16.9338 8.87868 17.4375 9.5 17.4375Z" stroke="white" stroke-linecap="round" stroke-linejoin="round"/>
<path d="M2.75 12.9375H16.25" stroke="white" stroke-linecap="round" stroke-linejoin="round"/>
</svg>
