<svg width="21" height="21" viewBox="0 0 21 21" fill="none" xmlns="http://www.w3.org/2000/svg">
<path d="M6.94531 3.83203H4.44531C4.10013 3.83203 3.82031 4.11185 3.82031 4.45703V16.957C3.82031 17.3022 4.10013 17.582 4.44531 17.582H6.94531C7.29049 17.582 7.57031 17.3022 7.57031 16.957V4.45703C7.57031 4.11185 7.29049 3.83203 6.94531 3.83203Z" stroke="#717171" stroke-linecap="round" stroke-linejoin="round"/>
<path d="M3.82031 6.95703H7.57031" stroke="#717171" stroke-linecap="round" stroke-linejoin="round"/>
<path d="M10.6953 3.83203H8.19531C7.85013 3.83203 7.57031 4.11185 7.57031 4.45703V16.957C7.57031 17.3022 7.85013 17.582 8.19531 17.582H10.6953C11.0405 17.582 11.3203 17.3022 11.3203 16.957V4.45703C11.3203 4.11185 11.0405 3.83203 10.6953 3.83203Z" stroke="#717171" stroke-linecap="round" stroke-linejoin="round"/>
<path d="M7.57031 14.457H11.3203" stroke="#717171" stroke-linecap="round" stroke-linejoin="round"/>
<path d="M14.4102 3.62891L11.9852 4.27891C11.6503 4.36865 11.4517 4.71283 11.5414 5.04766L14.7914 17.1727C14.8812 17.5075 15.2253 17.7062 15.5602 17.6164L17.9852 16.9664C18.32 16.8767 18.5187 16.5325 18.4289 16.1977L15.1789 4.07266C15.0892 3.73783 14.745 3.53916 14.4102 3.62891Z" stroke="#717171" stroke-linecap="round" stroke-linejoin="round"/>
<path d="M14.0703 14.707L17.6953 13.7305" stroke="#717171" stroke-linecap="round" stroke-linejoin="round"/>
<path d="M12.1328 7.45703L15.7578 6.48828" stroke="#717171" stroke-linecap="round" stroke-linejoin="round"/>
</svg>
