<svg width="26" height="26" viewBox="0 0 26 26" fill="none" xmlns="http://www.w3.org/2000/svg">
<g clip-path="url(#clip0_9426_43117)">
<path d="M14.2919 18.9031C14.3897 19.2668 15.2183 19.019 17.8262 17.8582C20.5859 16.6278 21.1499 16.2559 20.8908 15.8857C20.5281 15.381 14.1488 18.3108 14.2919 18.9031Z" fill="#8F14CC"/>
<path d="M7.89446 7.19782C6.82978 7.56733 6.75622 7.79735 6.87282 10.3756C6.99046 13.0388 7.10675 13.5211 7.60765 13.5403C8.51603 13.5716 8.7109 12.8564 8.72966 9.55511C8.7421 7.11949 8.68029 6.92508 7.89446 7.19782Z" fill="#8F14CC"/>
<path d="M15.0496 8.81412C14.2805 9.06968 14.0545 9.31856 13.467 10.5393C11.7381 14.1671 10.2154 16.6213 11.7024 16.0938C12.3108 15.8827 12.7017 15.2414 14.8652 11.0652C16.0502 8.75089 16.0808 8.47896 15.0496 8.81412Z" fill="#8F14CC"/>
</g>
<defs>
<clipPath id="clip0_9426_43117">
<rect width="18" height="18" fill="white" transform="translate(0.480469 12.8828) rotate(-45.7053)"/>
</clipPath>
</defs>
</svg>
