<svg width="150" height="69" viewBox="0 0 150 69" fill="none" xmlns="http://www.w3.org/2000/svg">
<g clip-path="url(#clip0_10319_44207)">
<path d="M145 68.5917H37.8004C36.6938 68.5951 35.6173 68.2312 34.7396 67.5571C33.8619 66.883 33.2326 65.9368 32.9504 64.8667L16.2838 2.20833C16.2138 1.95062 16.2038 1.68032 16.2544 1.41812C16.305 1.15593 16.415 0.908794 16.5758 0.695647C16.7367 0.4825 16.9442 0.308995 17.1825 0.188417C17.4207 0.06784 17.6834 0.00338895 17.9504 0L131.667 0C132.048 0.00671153 132.417 0.137133 132.718 0.371611C133.018 0.606089 133.234 0.931919 133.334 1.3L149.825 62.2667C150.029 63.0091 150.059 63.7886 149.913 64.5445C149.766 65.3003 149.447 66.0121 148.98 66.6243C148.513 67.2364 147.911 67.7325 147.22 68.0737C146.53 68.415 145.77 68.5923 145 68.5917ZM20.2671 3.51667L36.3421 63.9583C36.4284 64.2791 36.618 64.5623 36.8817 64.7642C37.1454 64.9662 37.4683 65.0754 37.8004 65.075H145C145.23 65.0737 145.457 65.0197 145.663 64.9174C145.869 64.815 146.049 64.6668 146.189 64.4843C146.329 64.3018 146.425 64.0896 146.47 63.8642C146.516 63.6387 146.509 63.4058 146.45 63.1833L130.292 3.51667H20.2671Z" fill="black"/>
<path d="M39.9997 30.2667H38.4997L38.0247 27.2584H39.6914C39.9313 27.2619 40.1707 27.2814 40.4081 27.3167C40.6508 27.3494 40.887 27.4196 41.1081 27.525C41.323 27.6279 41.5134 27.7757 41.6664 27.9584C41.8282 28.1758 41.9315 28.4312 41.9664 28.7C42.0297 28.9788 42.0035 29.2704 41.8914 29.5334C41.7909 29.7349 41.6309 29.9007 41.4331 30.0084C41.2197 30.1216 40.9887 30.1977 40.7497 30.2334C40.5132 30.2758 40.2734 30.2981 40.0331 30.3M34.6914 24.7917L36.6664 37.6584H39.6497L38.8164 32.5417H39.8664L43.4164 37.65H46.9997L42.8331 32.1417C43.5473 31.9284 44.1601 31.4636 44.5581 30.8334C44.9379 30.1638 45.0623 29.3792 44.9081 28.625C44.8086 27.9589 44.5546 27.3254 44.1664 26.775C43.827 26.2891 43.3864 25.8825 42.8747 25.5834C42.3611 25.2716 41.7972 25.0516 41.2081 24.9334C40.6132 24.8101 40.0072 24.7487 39.3997 24.75H34.5664" fill="black"/>
<path d="M47.3672 24.732L49.4005 37.632L58.2339 37.607L57.8172 34.9487L51.9339 34.9654L51.5089 32.282L56.7672 32.2737L56.3755 29.7737L51.1172 29.7904L50.7339 27.3487L56.2922 27.332L55.8839 24.707L47.3672 24.732Z" fill="black"/>
<path d="M63.4813 24.3672C62.918 24.3734 62.3579 24.4519 61.8146 24.6005C61.2851 24.7384 60.789 24.9822 60.3563 25.3172C59.9392 25.65 59.6172 26.0869 59.423 26.5839C59.2132 27.1745 59.1672 27.8108 59.2896 28.4255C59.3593 28.9487 59.5321 29.4529 59.798 29.9089C60.0389 30.3006 60.343 30.6498 60.698 30.9422C61.0466 31.2239 61.4304 31.4592 61.8396 31.6422C62.252 31.8233 62.675 31.9791 63.1063 32.1089L64.2813 32.4839C64.5882 32.5808 64.8842 32.7093 65.1646 32.8672C65.3848 32.984 65.5824 33.1392 65.748 33.3255C65.8986 33.5026 65.9942 33.7198 66.023 33.9505C66.0787 34.1636 66.0787 34.3874 66.023 34.6005C65.9622 34.7752 65.8523 34.9286 65.7063 35.0422C65.5506 35.1577 65.3713 35.2373 65.1813 35.2755C64.9797 35.3261 64.7725 35.3513 64.5646 35.3505C63.9974 35.3658 63.4346 35.2458 62.923 35.0005C62.4053 34.7642 61.9362 34.4336 61.5396 34.0255L59.873 36.1089C60.5504 36.7131 61.3405 37.1775 62.198 37.4755C63.0659 37.7923 63.9823 37.9559 64.9063 37.9589H64.998C65.5629 37.9518 66.124 37.8648 66.6646 37.7005C67.1977 37.5311 67.687 37.2466 68.098 36.8672C68.489 36.5011 68.7765 36.0383 68.9313 35.5255C69.1193 34.9042 69.1537 34.2464 69.0313 33.6089C68.9505 33.0276 68.7335 32.4737 68.398 31.9922C68.0878 31.5722 67.7105 31.2061 67.2813 30.9089C66.8515 30.6183 66.3867 30.3831 65.898 30.2089C65.4063 30.0339 64.9313 29.8755 64.4813 29.7339C64.1646 29.6339 63.8813 29.5422 63.648 29.4505C63.418 29.3686 63.1951 29.2682 62.9813 29.1505C62.8083 29.0525 62.6556 28.9224 62.5313 28.7672C62.4113 28.6096 62.3364 28.4224 62.3146 28.2255C62.269 28.0127 62.2924 27.7909 62.3813 27.5922C62.4708 27.4348 62.593 27.2984 62.7396 27.1922C62.9001 27.0847 63.0821 27.0136 63.273 26.9839C63.4732 26.9434 63.677 26.9239 63.8813 26.9255C64.3198 26.936 64.7513 27.0382 65.148 27.2255C65.5885 27.4185 65.9833 27.7025 66.3063 28.0589L67.923 25.9589C67.3025 25.4379 66.5942 25.0315 65.8313 24.7589C65.1039 24.5099 64.3417 24.3777 63.573 24.3672H63.5063" fill="black"/>
<path d="M70.582 24.6768L72.607 37.5768L81.4404 37.5602L81.0237 34.9018L75.1404 34.9102L74.7237 32.2352L79.9737 32.2185L79.582 29.7268L74.332 29.7352L73.9404 27.2935L79.507 27.2852L79.0904 24.6602L70.582 24.6768Z" fill="black"/>
<path d="M87.6237 30.1672H86.1654L85.6904 27.1589H87.357C87.5995 27.1598 87.8417 27.1765 88.082 27.2089C88.3221 27.2416 88.5555 27.3119 88.7737 27.4172C88.9886 27.5201 89.179 27.6678 89.332 27.8505C89.4973 28.066 89.601 28.3224 89.632 28.5922C89.6995 28.8707 89.6732 29.1636 89.557 29.4255C89.4565 29.6271 89.2965 29.7929 89.0987 29.9005C88.8842 30.0129 88.6538 30.0916 88.4154 30.1339C88.1643 30.1723 87.911 30.1945 87.657 30.2005M82.357 24.6839L84.3904 37.5839H87.3737L86.5404 32.4672H87.582L91.132 37.5005H94.7154L90.5487 31.9922C91.2631 31.7891 91.8793 31.3329 92.282 30.7089C92.6693 30.0419 92.7941 29.2546 92.632 28.5005C92.5594 27.8714 92.3417 27.2677 91.9961 26.737C91.6505 26.2063 91.1864 25.7631 90.6404 25.4422C90.1225 25.1409 89.5599 24.9243 88.9737 24.8005C88.3788 24.6773 87.7728 24.6159 87.1654 24.6172H82.332" fill="black"/>
<path d="M93.2891 24.6266L100.114 37.5182L103.172 37.5099L106.022 24.6016L102.639 24.6099L101.164 33.7599H101.097L96.7224 24.6182L93.2891 24.6266Z" fill="black"/>
<path d="M107.949 24.5909L109.983 37.4909L118.816 37.4742L118.399 34.8159L112.516 34.8242L112.099 32.1492L117.349 32.1326L116.958 29.6409L111.699 29.6492L111.316 27.2076L116.883 27.1992L116.466 24.5742L107.949 24.5909Z" fill="black"/>
<path d="M125.833 34.757H124.308L123.116 27.207H124.633C125.158 27.2053 125.681 27.2669 126.191 27.3904C126.699 27.503 127.181 27.7062 127.616 27.9904C128.06 28.3026 128.434 28.7025 128.716 29.1654C129.05 29.718 129.266 30.3337 129.35 30.9737C129.471 31.5733 129.448 32.193 129.283 32.782C129.15 33.2329 128.893 33.6373 128.541 33.9487C128.179 34.2487 127.755 34.465 127.3 34.582C126.818 34.7063 126.322 34.7706 125.825 34.7737M119.7 24.582L121.733 37.4987H126.55C127.372 37.4852 128.188 37.3562 128.975 37.1154C129.748 36.8821 130.462 36.4841 131.066 35.9487C131.671 35.3992 132.122 34.7011 132.375 33.9237C132.665 32.9732 132.719 31.9665 132.533 30.9904C132.388 29.9029 132.01 28.8597 131.425 27.932C130.915 27.146 130.248 26.4736 129.466 25.957C128.699 25.4672 127.853 25.1121 126.966 24.907C126.084 24.7023 125.181 24.5988 124.275 24.5987H119.691" fill="black"/>
<path d="M30.1156 65.6159L14.6406 7.44922L0.190553 61.7575C-0.019001 62.5367 -0.0597512 63.3516 0.071028 64.1478C0.201807 64.944 0.5011 65.703 0.948886 66.3742C1.3961 67.042 1.99771 67.5921 2.70271 67.978C3.40772 68.3639 4.19536 68.5741 4.99889 68.5909H31.6656C30.9432 67.7207 30.4147 66.7065 30.1156 65.6159Z" fill="black"/>
<path d="M39.8482 49.0922C39.3818 49.0922 38.9346 48.9069 38.6048 48.5772C38.2751 48.2474 38.0898 47.8002 38.0898 47.3339C38.0898 46.8675 38.2751 46.4203 38.6048 46.0905C38.9346 45.7608 39.3818 45.5755 39.8482 45.5755L136.59 44.7422C136.821 44.7422 137.049 44.7877 137.263 44.876C137.476 44.9644 137.67 45.0939 137.833 45.2572C137.996 45.4205 138.126 45.6143 138.214 45.8276C138.303 46.041 138.348 46.2696 138.348 46.5005C138.348 46.7314 138.303 46.9601 138.214 47.1734C138.126 47.3867 137.996 47.5806 137.833 47.7439C137.67 47.9071 137.476 48.0366 137.263 48.125C137.049 48.2134 136.821 48.2589 136.59 48.2589L39.8482 49.0922Z" fill="black"/>
</g>
<defs>
<clipPath id="clip0_10319_44207">
<rect width="150" height="68.5917" fill="white"/>
</clipPath>
</defs>
</svg>
