<svg width="24" height="22" viewBox="0 0 24 22" fill="none" xmlns="http://www.w3.org/2000/svg">
<rect width="22" height="22" transform="translate(1)" fill="white"/>
<path d="M11.9489 20.1666C11.8481 20.1666 11.7472 20.1666 11.6463 20.063H11.5455C9.32655 18.9236 4.08182 15.7127 2.26634 10.6374C1.96376 9.70519 1.25774 5.8728 3.47666 3.4905C4.78784 2.04041 5.99817 1.83325 6.80505 1.83325C8.72139 1.83325 10.7386 2.97261 11.9489 4.62986C13.1592 2.86903 14.9747 1.83325 17.0928 1.83325C17.8997 1.83325 19.11 2.04041 20.522 3.4905C22.741 5.8728 22.0349 9.80877 21.7324 10.6374C19.9169 15.8163 14.5713 18.9236 12.4532 20.063C12.2515 20.1666 12.0498 20.1666 11.9489 20.1666Z" fill="#8F14CC" stroke="#8F14CC" stroke-width="2.2" stroke-linecap="round" stroke-linejoin="round"/>
</svg>
