<svg width="72" height="7" viewBox="0 0 72 7" fill="none" xmlns="http://www.w3.org/2000/svg">
<path fill-rule="evenodd" clip-rule="evenodd" d="M71.6128 2.52871C71.3231 1.91863 68.8337 1.66176 61.3524 1.44769C54.3715 1.24433 46.2448 0.655656 32.0461 0.976751C21.1929 1.22292 7.67903 2.20762 7.67903 2.75348C7.67903 3.1495 8.20588 3.1602 13.2373 2.807C17.8868 2.4859 20.2709 2.41098 23.1817 2.32535C11.5119 3.1602 9.02251 3.70607 2.80562 4.23052C-1.0931 4.56232 1.18554 5.5149 2.60805 5.41858C2.62122 5.41858 20.7582 4.21982 22.4705 4.28404C22.6285 4.29474 20.9031 4.4874 18.6244 4.71217C12.2627 5.35436 13.4876 6.42457 18.2556 5.93222C34.2984 4.27323 49.3927 3.75947 61.0231 4.47659C64.6979 4.70136 65.1062 4.70136 65.1062 4.42307C65.1062 3.93073 64.1052 3.55622 62.5378 3.4813C60.0879 3.35286 50.6572 2.98885 46.3897 2.88181C46.0604 2.87111 46.2185 2.66786 46.5082 2.64645C48.2468 2.50731 62.0504 2.61423 67.477 2.76408C71.468 2.87111 71.7577 2.86051 71.6128 2.52871Z" fill="#8F14CC"/>
</svg>
