<svg width="24" height="23" viewBox="0 0 24 23" fill="none" xmlns="http://www.w3.org/2000/svg">
<mask id="path-1-outside-1_342_38364" maskUnits="userSpaceOnUse" x="0.823242" y="0.5" width="24" height="22" fill="black">
<rect fill="white" x="0.823242" y="0.5" width="24" height="22"/>
<path d="M12.4115 1.5L16.0106 7.63638L22.9997 9.13932L18.235 14.4348L18.9554 21.5L12.4115 18.6364L5.86759 21.5L6.58795 14.4348L1.82324 9.13932L8.81234 7.63638L12.4115 1.5Z"/>
</mask>
<path d="M12.4115 1.5L16.0106 7.63638L22.9997 9.13932L18.235 14.4348L18.9554 21.5L12.4115 18.6364L5.86759 21.5L6.58795 14.4348L1.82324 9.13932L8.81234 7.63638L12.4115 1.5Z" fill="white"/>
<path d="M12.4115 1.5L12.8428 1.24704L12.4115 0.511709L11.9802 1.24704L12.4115 1.5ZM16.0106 7.63638L15.5793 7.88934L15.6906 8.07898L15.9055 8.1252L16.0106 7.63638ZM22.9997 9.13932L23.3714 9.47376L23.9488 8.83199L23.1048 8.65049L22.9997 9.13932ZM18.235 14.4348L17.8633 14.1003L17.7151 14.265L17.7376 14.4855L18.235 14.4348ZM18.9554 21.5L18.7549 21.9581L19.5397 22.3015L19.4528 21.4493L18.9554 21.5ZM12.4115 18.6364L12.6119 18.1783L12.4115 18.0906L12.211 18.1783L12.4115 18.6364ZM5.86759 21.5L5.37017 21.4493L5.28328 22.3015L6.06804 21.9581L5.86759 21.5ZM6.58795 14.4348L7.08537 14.4855L7.10784 14.265L6.95964 14.1003L6.58795 14.4348ZM1.82324 9.13932L1.71812 8.65049L0.87411 8.83199L1.45155 9.47376L1.82324 9.13932ZM8.81234 7.63638L8.91745 8.1252L9.1324 8.07898L9.24363 7.88934L8.81234 7.63638ZM11.9802 1.75296L15.5793 7.88934L16.4419 7.38342L12.8428 1.24704L11.9802 1.75296ZM15.9055 8.1252L22.8946 9.62815L23.1048 8.65049L16.1157 7.14755L15.9055 8.1252ZM22.628 8.80488L17.8633 14.1003L18.6067 14.7692L23.3714 9.47376L22.628 8.80488ZM17.7376 14.4855L18.4579 21.5507L19.4528 21.4493L18.7324 14.384L17.7376 14.4855ZM19.1558 21.0419L12.6119 18.1783L12.211 19.0944L18.7549 21.9581L19.1558 21.0419ZM12.211 18.1783L5.66714 21.0419L6.06804 21.9581L12.6119 19.0944L12.211 18.1783ZM6.36501 21.5507L7.08537 14.4855L6.09053 14.384L5.37017 21.4493L6.36501 21.5507ZM6.95964 14.1003L2.19493 8.80488L1.45155 9.47376L6.21626 14.7692L6.95964 14.1003ZM1.92836 9.62815L8.91745 8.1252L8.70722 7.14755L1.71812 8.65049L1.92836 9.62815ZM9.24363 7.88934L12.8428 1.75296L11.9802 1.24704L8.38105 7.38342L9.24363 7.88934Z" fill="#41095D" mask="url(#path-1-outside-1_342_38364)"/>
<path d="M5.86759 21.5L12.4115 18.6364V1.5L8.81234 7.63638L1.82324 9.13932L6.58795 14.4347L5.86759 21.5Z" fill="#8F14CC"/>
</svg>
