<svg width="15" height="14" viewBox="0 0 15 14" fill="none" xmlns="http://www.w3.org/2000/svg">
<mask id="path-1-outside-1_342_38337" maskUnits="userSpaceOnUse" x="0.194336" y="0.119141" width="15" height="14" fill="black">
<rect fill="white" x="0.194336" y="0.119141" width="15" height="14"/>
<path d="M7.42273 1.11914L9.53987 4.72877L13.6511 5.61286L10.8483 8.72782L11.2721 12.8838L7.42273 11.1994L3.57337 12.8838L3.99711 8.72782L1.19434 5.61286L5.30558 4.72877L7.42273 1.11914Z"/>
</mask>
<path d="M7.42273 1.11914L9.53987 4.72877L13.6511 5.61286L10.8483 8.72782L11.2721 12.8838L7.42273 11.1994L3.57337 12.8838L3.99711 8.72782L1.19434 5.61286L5.30558 4.72877L7.42273 1.11914Z" fill="#8F14CC"/>
<path d="M7.42273 1.11914L7.67643 0.970339L7.42273 0.537793L7.16903 0.970339L7.42273 1.11914ZM9.53987 4.72877L9.28617 4.87758L9.3516 4.98913L9.47804 5.01632L9.53987 4.72877ZM13.6511 5.61286L13.8698 5.80959L14.2094 5.43208L13.7129 5.32531L13.6511 5.61286ZM10.8483 8.72782L10.6297 8.53109L10.5425 8.62798L10.5557 8.75765L10.8483 8.72782ZM11.2721 12.8838L11.1542 13.1533L11.6158 13.3553L11.5647 12.854L11.2721 12.8838ZM7.42273 11.1994L7.54064 10.9299L7.42273 10.8783L7.30481 10.9299L7.42273 11.1994ZM3.57337 12.8838L3.28077 12.854L3.22966 13.3553L3.69128 13.1533L3.57337 12.8838ZM3.99711 8.72782L4.28971 8.75765L4.30293 8.62798L4.21575 8.53109L3.99711 8.72782ZM1.19434 5.61286L1.1325 5.32531L0.636021 5.43208L0.975696 5.80959L1.19434 5.61286ZM5.30558 4.72877L5.36741 5.01632L5.49385 4.98913L5.55928 4.87758L5.30558 4.72877ZM7.16903 1.26794L9.28617 4.87758L9.79357 4.57997L7.67643 0.970339L7.16903 1.26794ZM9.47804 5.01632L13.5893 5.9004L13.7129 5.32531L9.60171 4.44123L9.47804 5.01632ZM13.4325 5.41613L10.6297 8.53109L11.067 8.92455L13.8698 5.80959L13.4325 5.41613ZM10.5557 8.75765L10.9795 12.9137L11.5647 12.854L11.1409 8.69798L10.5557 8.75765ZM11.39 12.6144L7.54064 10.9299L7.30481 11.4688L11.1542 13.1533L11.39 12.6144ZM7.30481 10.9299L3.45546 12.6144L3.69128 13.1533L7.54064 11.4688L7.30481 10.9299ZM3.86597 12.9137L4.28971 8.75765L3.70451 8.69798L3.28077 12.854L3.86597 12.9137ZM4.21575 8.53109L1.41298 5.41613L0.975696 5.80959L3.77847 8.92455L4.21575 8.53109ZM1.25617 5.9004L5.36741 5.01632L5.24375 4.44123L1.1325 5.32531L1.25617 5.9004ZM5.55928 4.87758L7.67643 1.26794L7.16903 0.970339L5.05188 4.57997L5.55928 4.87758Z" fill="#41095D" mask="url(#path-1-outside-1_342_38337)"/>
</svg>
