<svg width="14" height="14" viewBox="0 0 14 14" fill="none" xmlns="http://www.w3.org/2000/svg">
<mask id="path-1-outside-1_342_38341" maskUnits="userSpaceOnUse" x="-0.408203" y="0.119141" width="15" height="14" fill="black">
<rect fill="white" x="-0.408203" y="0.119141" width="15" height="14"/>
<path d="M6.82019 1.11914L8.93733 4.72877L13.0486 5.61286L10.2458 8.72782L10.6695 12.8838L6.82019 11.1994L2.97083 12.8838L3.39457 8.72782L0.591797 5.61286L4.70304 4.72877L6.82019 1.11914Z"/>
</mask>
<path d="M6.82019 1.11914L8.93733 4.72877L13.0486 5.61286L10.2458 8.72782L10.6695 12.8838L6.82019 11.1994L2.97083 12.8838L3.39457 8.72782L0.591797 5.61286L4.70304 4.72877L6.82019 1.11914Z" fill="white"/>
<path d="M6.82019 1.11914L7.07389 0.970339L6.82019 0.537793L6.56649 0.970339L6.82019 1.11914ZM8.93733 4.72877L8.68363 4.87758L8.74906 4.98913L8.8755 5.01632L8.93733 4.72877ZM13.0486 5.61286L13.2672 5.80959L13.6069 5.43208L13.1104 5.32531L13.0486 5.61286ZM10.2458 8.72782L10.0272 8.53109L9.93998 8.62798L9.9532 8.75765L10.2458 8.72782ZM10.6695 12.8838L10.5516 13.1533L11.0133 13.3553L10.9621 12.854L10.6695 12.8838ZM6.82019 11.1994L6.9381 10.9299L6.82019 10.8783L6.70228 10.9299L6.82019 11.1994ZM2.97083 12.8838L2.67823 12.854L2.62712 13.3553L3.08874 13.1533L2.97083 12.8838ZM3.39457 8.72782L3.68717 8.75765L3.70039 8.62798L3.61321 8.53109L3.39457 8.72782ZM0.591797 5.61286L0.529963 5.32531L0.0334817 5.43208L0.373157 5.80959L0.591797 5.61286ZM4.70304 4.72877L4.76487 5.01632L4.89131 4.98913L4.95674 4.87758L4.70304 4.72877ZM6.56649 1.26794L8.68363 4.87758L9.19103 4.57997L7.07389 0.970339L6.56649 1.26794ZM8.8755 5.01632L12.9867 5.9004L13.1104 5.32531L8.99917 4.44123L8.8755 5.01632ZM12.8299 5.41613L10.0272 8.53109L10.4644 8.92455L13.2672 5.80959L12.8299 5.41613ZM9.9532 8.75765L10.3769 12.9137L10.9621 12.854L10.5384 8.69798L9.9532 8.75765ZM10.7875 12.6144L6.9381 10.9299L6.70228 11.4688L10.5516 13.1533L10.7875 12.6144ZM6.70228 10.9299L2.85292 12.6144L3.08874 13.1533L6.9381 11.4688L6.70228 10.9299ZM3.26343 12.9137L3.68717 8.75765L3.10197 8.69798L2.67823 12.854L3.26343 12.9137ZM3.61321 8.53109L0.810437 5.41613L0.373157 5.80959L3.17593 8.92455L3.61321 8.53109ZM0.653631 5.9004L4.76487 5.01632L4.64121 4.44123L0.529963 5.32531L0.653631 5.9004ZM4.95674 4.87758L7.07389 1.26794L6.56649 0.970339L4.44934 4.57997L4.95674 4.87758Z" fill="#41095D" mask="url(#path-1-outside-1_342_38341)"/>
</svg>
