<svg width="18" height="19" viewBox="0 0 18 19" fill="none" xmlns="http://www.w3.org/2000/svg">
<path d="M9 9.5L4.725 6.29375C4.65554 6.24098 4.59913 6.17296 4.56012 6.09494C4.52111 6.01692 4.50054 5.93098 4.5 5.84375V3.3125C4.5 3.16332 4.55926 3.02024 4.66475 2.91475C4.77024 2.80926 4.91332 2.75 5.0625 2.75H12.9375C13.0867 2.75 13.2298 2.80926 13.3352 2.91475C13.4407 3.02024 13.5 3.16332 13.5 3.3125V5.81562C13.4995 5.90285 13.4789 5.9888 13.4399 6.06682C13.4009 6.14484 13.3445 6.21286 13.275 6.26562L9 9.5Z" stroke="#717171" stroke-width="1.4" stroke-linecap="round" stroke-linejoin="round"/>
<path d="M9 9.5L4.725 12.7063C4.65554 12.759 4.59913 12.827 4.56012 12.9051C4.52111 12.9831 4.50054 13.069 4.5 13.1562V15.6875C4.5 15.8367 4.55926 15.9798 4.66475 16.0852C4.77024 16.1907 4.91332 16.25 5.0625 16.25H12.9375C13.0867 16.25 13.2298 16.1907 13.3352 16.0852C13.4407 15.9798 13.5 15.8367 13.5 15.6875V13.1844C13.4995 13.0971 13.4789 13.0112 13.4399 12.9332C13.4009 12.8552 13.3445 12.7871 13.275 12.7344L9 9.5Z" stroke="#717171" stroke-width="1.4" stroke-linecap="round" stroke-linejoin="round"/>
<path d="M4.5 5H13.5" stroke="#717171" stroke-width="1.4" stroke-linecap="round" stroke-linejoin="round"/>
</svg>
