<svg width="428" height="296" viewBox="0 0 428 296" fill="none" xmlns="http://www.w3.org/2000/svg">
<g clip-path="url(#clip0_9426_43260)">
<rect width="428" height="295" transform="translate(0 0.59375)" fill="white"/>
<path d="M126.547 -693.086L126.547 1911.74" stroke="#EBEBEB" stroke-width="0.5"/>
<path d="M424.235 -693.086L424.234 1911.74" stroke="#EBEBEB" stroke-width="0.5"/>
<path d="M275.383 -693.086L275.383 1911.74" stroke="#EBEBEB" stroke-width="0.5"/>
<path d="M37.2268 -685.648L37.2267 1919.18" stroke="#EBEBEB" stroke-width="0.5"/>
<path d="M334.938 -685.648L334.938 1919.18" stroke="#EBEBEB" stroke-width="0.5"/>
<path d="M186.078 -685.648L186.078 1919.18" stroke="#EBEBEB" stroke-width="0.5"/>
<path d="M67.0002 -693.086L67.0001 1911.74" stroke="#EBEBEB" stroke-width="0.5"/>
<path d="M364.703 -693.086L364.703 1911.74" stroke="#EBEBEB" stroke-width="0.5"/>
<path d="M215.852 -693.086L215.852 1911.74" stroke="#EBEBEB" stroke-width="0.5"/>
<path d="M96.7815 -689.359L96.7814 1915.47" stroke="#EBEBEB" stroke-width="0.5"/>
<path d="M394.469 -689.359L394.469 1915.47" stroke="#EBEBEB" stroke-width="0.5"/>
<path d="M245.617 -689.359L245.617 1915.47" stroke="#EBEBEB" stroke-width="0.5"/>
<path d="M7.46114 -685.648L7.46105 1919.18" stroke="#EBEBEB" stroke-width="0.5"/>
<path d="M305.164 -685.648L305.164 1919.18" stroke="#EBEBEB" stroke-width="0.5"/>
<path d="M156.313 -685.648L156.313 1919.18" stroke="#EBEBEB" stroke-width="0.5"/>
<path d="M1295 28.8204L-297.665 28.8204" stroke="#EBEBEB" stroke-width="0.5"/>
<path d="M1295 177.672L-297.665 177.672" stroke="#EBEBEB" stroke-width="0.5"/>
<path d="M1272.66 237.211L-320.001 237.211" stroke="#EBEBEB" stroke-width="0.5"/>
<path d="M1272.66 88.3594L-320.001 88.3594" stroke="#EBEBEB" stroke-width="0.5"/>
<path d="M1295 266.977L-297.665 266.977" stroke="#EBEBEB" stroke-width="0.5"/>
<path d="M1295 118.133L-297.665 118.133" stroke="#EBEBEB" stroke-width="0.5"/>
<path d="M1283.84 147.898L-308.829 147.898" stroke="#EBEBEB" stroke-width="0.5"/>
<path d="M1272.66 207.438L-320.001 207.438" stroke="#EBEBEB" stroke-width="0.5"/>
<path d="M1272.66 58.5938L-320.001 58.5938" stroke="#EBEBEB" stroke-width="0.5"/>
</g>
<defs>
<clipPath id="clip0_9426_43260">
<rect width="428" height="295" fill="white" transform="translate(0 0.59375)"/>
</clipPath>
</defs>
</svg>
