<svg width="19" height="19" viewBox="0 0 19 19" fill="none" xmlns="http://www.w3.org/2000/svg">
<path d="M2.91797 8.04297H6.29297V15.3555H2.91797C2.76878 15.3555 2.62571 15.2962 2.52022 15.1907C2.41473 15.0852 2.35547 14.9422 2.35547 14.793V8.60547C2.35547 8.45628 2.41473 8.31321 2.52022 8.20772C2.62571 8.10223 2.76878 8.04297 2.91797 8.04297V8.04297Z" stroke="#DEDEDE" stroke-width="1.5" stroke-linecap="round" stroke-linejoin="round"/>
<path d="M6.29297 8.04297L9.10547 2.41797C9.70221 2.41797 10.2745 2.65502 10.6965 3.07698C11.1184 3.49894 11.3555 4.07123 11.3555 4.66797V6.35547H15.7078C15.8673 6.35507 16.0251 6.38882 16.1705 6.45444C16.3159 6.52006 16.4455 6.61604 16.5508 6.73593C16.656 6.85581 16.7344 6.99683 16.7806 7.1495C16.8268 7.30218 16.8398 7.46297 16.8187 7.62109L15.975 14.3711C15.9409 14.6421 15.8093 14.8914 15.6049 15.0725C15.4005 15.2536 15.1372 15.3542 14.8641 15.3555H6.29297" stroke="#DEDEDE" stroke-width="1.5" stroke-linecap="round" stroke-linejoin="round"/>
</svg>
