<svg width="19" height="19" viewBox="0 0 19 19" fill="none" xmlns="http://www.w3.org/2000/svg">
<path d="M2.875 7.94922H6.25V15.2617H2.875C2.72582 15.2617 2.58274 15.2025 2.47725 15.097C2.37176 14.9915 2.3125 14.8484 2.3125 14.6992V8.51172C2.3125 8.36253 2.37176 8.21946 2.47725 8.11397C2.58274 8.00848 2.72582 7.94922 2.875 7.94922V7.94922Z" stroke="white" stroke-width="1.5" stroke-linecap="round" stroke-linejoin="round"/>
<path d="M6.25 7.94922L9.0625 2.32422C9.65924 2.32422 10.2315 2.56127 10.6535 2.98323C11.0754 3.40519 11.3125 3.97748 11.3125 4.57422V6.26172H15.6648C15.8244 6.26132 15.9821 6.29507 16.1275 6.36069C16.2729 6.42631 16.4026 6.52229 16.5078 6.64218C16.613 6.76206 16.6914 6.90308 16.7376 7.05575C16.7838 7.20843 16.7968 7.36922 16.7758 7.52734L15.932 14.2773C15.8979 14.5483 15.7664 14.7976 15.5619 14.9787C15.3575 15.1599 15.0942 15.2604 14.8211 15.2617H6.25" stroke="white" stroke-width="1.5" stroke-linecap="round" stroke-linejoin="round"/>
</svg>
