<svg width="11" height="12" viewBox="0 0 11 12" fill="none" xmlns="http://www.w3.org/2000/svg">
<path d="M1.20315 10.1077C1.1416 9.5537 1.05164 9.15598 1.06111 8.75352C1.08005 7.745 1.13687 6.7412 1.17948 5.73268C1.19842 5.32548 1.24577 4.92775 1.00429 4.54423C0.919062 4.40692 0.904857 4.1607 0.971145 4.00919C1.12739 3.63513 1.07058 3.27055 1.0469 2.8965C1.01849 2.42775 1.01376 1.95427 1.03743 1.48078C1.0469 1.26771 1.12266 1.04991 1.22209 0.855784C1.36414 0.571693 1.6719 0.434384 1.93706 0.5859C2.45315 0.874726 3.04974 0.997829 3.50429 1.42397C4.61225 2.46563 5.89539 3.26109 7.24009 3.96658C8.04975 4.39272 8.8452 4.83779 9.63592 5.29234C9.8774 5.42965 10.1094 5.61431 10.2893 5.82264C10.564 6.1304 10.4361 6.59916 10.0621 6.76488C9.92001 6.82643 9.76377 6.86904 9.60752 6.88798C8.60846 7.01582 7.75145 7.47037 6.956 8.05749C6.44937 8.43154 5.98062 8.85768 5.47872 9.23173C4.72115 9.79518 3.96357 10.3586 3.17758 10.8747C2.813 11.1162 2.38686 11.263 1.97967 11.4287C1.68137 11.5518 1.36414 11.5565 1.05637 11.4334C0.653909 11.2725 0.511864 10.8511 0.77228 10.5149C0.904856 10.3444 1.08952 10.2166 1.20315 10.1077Z" fill="#8F14CC"/>
</svg>
