<svg width="36" height="36" viewBox="0 0 36 36" fill="none" xmlns="http://www.w3.org/2000/svg">
<path d="M11.9825 8.1031L11.9825 8.10313L15.2359 11.2608L18.2636 2.94693L18.2637 2.94687C18.3323 2.75861 18.4453 2.58962 18.5929 2.45415C18.7406 2.31867 18.9187 2.22069 19.1121 2.16846C19.3056 2.11622 19.5088 2.11127 19.7046 2.15401C19.9003 2.19674 20.0829 2.28591 20.237 2.41398C20.237 2.41401 20.2371 2.41403 20.2371 2.41405L20.1572 2.51017L11.9825 8.1031ZM11.9825 8.1031C11.8557 7.98014 11.7043 7.88544 11.5383 7.82524C11.3723 7.76504 11.1953 7.74071 11.0192 7.75385C10.8431 7.76699 10.6718 7.8173 10.5165 7.90147C10.3612 7.98564 10.2256 8.10175 10.1184 8.24216L11.9825 8.1031ZM19.3318 28.233L19.3318 28.233L19.334 28.2326C20.9887 27.9367 22.5129 27.141 23.7016 25.9526C24.8656 24.7888 25.6531 23.3033 25.9635 21.6885H25.9665L25.9842 21.5844C26.0397 21.2574 25.9631 20.9218 25.7711 20.6514C25.5792 20.3809 25.2877 20.1978 24.9608 20.1423C24.6338 20.0867 24.2982 20.1633 24.0278 20.3553C23.7573 20.5472 23.5742 20.8387 23.5186 21.1657L23.5186 21.1657C23.1323 23.4477 21.1962 25.3837 18.9187 25.7672C18.6095 25.819 18.331 25.9852 18.1385 26.2327C17.946 26.4802 17.8536 26.791 17.8796 27.1035C17.9055 27.416 18.048 27.7073 18.2787 27.9196C18.5093 28.132 18.8114 28.2499 19.125 28.25L19.1258 28.25C19.1948 28.2496 19.2637 28.2439 19.3318 28.233ZM8 20.25C8 17.2264 9.0978 14.0873 11.2775 10.9027L14.8796 14.3969C15.0293 14.5422 15.2129 14.6478 15.4138 14.704C15.6147 14.7601 15.8264 14.7652 16.0297 14.7186C16.2331 14.672 16.4215 14.5752 16.5778 14.4372C16.7342 14.2991 16.8535 14.1241 16.9249 13.9281L19.9927 5.51569C21.5444 6.94304 23.5124 9.00415 25.1093 11.4871C26.754 14.0445 28 17.0416 28 20.25C28 22.9022 26.9464 25.4457 25.0711 27.3211C23.1957 29.1964 20.6522 30.25 18 30.25C15.3478 30.25 12.8043 29.1964 10.9289 27.3211C9.05357 25.4457 8 22.9022 8 20.25Z" fill="#034FE2" stroke="#034FE2" stroke-width="0.25"/>
</svg>
