<svg width="26" height="31" viewBox="0 0 26 31" fill="none" xmlns="http://www.w3.org/2000/svg">
<path d="M6.9825 6.1031L6.98253 6.10313L10.2359 9.26076L13.2636 0.94693L13.2637 0.946866C13.3323 0.758607 13.4453 0.589618 13.5929 0.454146C13.7406 0.318674 13.9187 0.22069 14.1121 0.168455C14.3056 0.116221 14.5088 0.111266 14.7046 0.154009C14.9003 0.196744 15.0829 0.285907 15.237 0.413983C15.237 0.414007 15.2371 0.41403 15.2371 0.414054L15.1572 0.510173L6.9825 6.1031ZM6.9825 6.1031C6.85572 5.98014 6.70433 5.88544 6.53829 5.82524C6.37225 5.76504 6.19535 5.74071 6.01922 5.75385C5.8431 5.76699 5.67176 5.8173 5.51649 5.90147C5.36123 5.98564 5.22556 6.10175 5.11843 6.24216L6.9825 6.1031ZM14.3318 26.233L14.3318 26.233L14.334 26.2326C15.9887 25.9367 17.5129 25.141 18.7016 23.9526C19.8656 22.7888 20.6531 21.3033 20.9635 19.6885H20.9665L20.9842 19.5844C21.0397 19.2574 20.9631 18.9218 20.7711 18.6514C20.5792 18.3809 20.2877 18.1978 19.9608 18.1423C19.6338 18.0867 19.2982 18.1633 19.0278 18.3553C18.7573 18.5472 18.5742 18.8387 18.5186 19.1657L18.5186 19.1657C18.1323 21.4477 16.1962 23.3837 13.9187 23.7672C13.6095 23.819 13.331 23.9852 13.1385 24.2327C12.946 24.4802 12.8536 24.791 12.8796 25.1035C12.9055 25.416 13.048 25.7073 13.2787 25.9196C13.5093 26.132 13.8114 26.2499 14.125 26.25L14.1258 26.25C14.1948 26.2496 14.2637 26.2439 14.3318 26.233ZM3 18.25C3 15.2264 4.0978 12.0873 6.27753 8.90269L9.87963 12.3969C10.0293 12.5422 10.2129 12.6478 10.4138 12.704C10.6147 12.7601 10.8264 12.7652 11.0297 12.7186C11.2331 12.672 11.4215 12.5752 11.5778 12.4372C11.7342 12.2991 11.8535 12.1241 11.9249 11.9281L14.9927 3.51569C16.5444 4.94304 18.5124 7.00415 20.1093 9.48709C21.754 12.0445 23 15.0416 23 18.25C23 20.9022 21.9464 23.4457 20.0711 25.3211C18.1957 27.1964 15.6522 28.25 13 28.25C10.3478 28.25 7.8043 27.1964 5.92893 25.3211C4.05357 23.4457 3 20.9022 3 18.25Z" fill="#034FE2" stroke="#034FE2" stroke-width="0.25"/>
</svg>
