<svg width="25" height="25" viewBox="0 0 25 25" fill="none" xmlns="http://www.w3.org/2000/svg">
<path d="M12.6978 8.9769C12.6978 6.9144 14.4321 5.19878 16.4946 5.2269C17.2169 5.23524 17.9215 5.45201 18.5235 5.85116C19.1256 6.25031 19.5995 6.81484 19.8884 7.4769H23.1978L20.1696 10.505C19.9742 13.5468 18.6277 16.4 16.4039 18.4845C14.1801 20.569 11.2458 21.7284 8.19777 21.7269C5.19777 21.7269 4.44777 20.6019 4.44777 20.6019C4.44777 20.6019 7.44777 19.4769 8.94777 17.2269C8.94777 17.2269 2.94777 14.2269 4.44777 5.9769C4.44777 5.9769 8.19777 9.7269 12.6978 10.4769V8.9769Z" stroke="#717171" stroke-width="1.5" stroke-linecap="round" stroke-linejoin="round"/>
</svg>
