<svg width="19" height="19" viewBox="0 0 19 19" fill="none" xmlns="http://www.w3.org/2000/svg">
<path d="M2.875 7.85547H6.25V15.168H2.875C2.72582 15.168 2.58274 15.1087 2.47725 15.0032C2.37176 14.8977 2.3125 14.7547 2.3125 14.6055V8.41797C2.3125 8.26878 2.37176 8.12571 2.47725 8.02022C2.58274 7.91473 2.72582 7.85547 2.875 7.85547V7.85547Z" stroke="#222222" stroke-width="1.5" stroke-linecap="round" stroke-linejoin="round"/>
<path d="M6.25 7.85547L9.0625 2.23047C9.65924 2.23047 10.2315 2.46752 10.6535 2.88948C11.0754 3.31144 11.3125 3.88373 11.3125 4.48047V6.16797H15.6648C15.8244 6.16757 15.9821 6.20132 16.1275 6.26694C16.2729 6.33256 16.4026 6.42854 16.5078 6.54843C16.613 6.66831 16.6914 6.80933 16.7376 6.962C16.7838 7.11468 16.7968 7.27547 16.7758 7.43359L15.932 14.1836C15.8979 14.4546 15.7664 14.7039 15.5619 14.885C15.3575 15.0661 15.0942 15.1667 14.8211 15.168H6.25" stroke="#222222" stroke-width="1.5" stroke-linecap="round" stroke-linejoin="round"/>
</svg>
