<svg width="19" height="19" viewBox="0 0 19 19" fill="none" xmlns="http://www.w3.org/2000/svg">
<path d="M2.91797 7.8125H6.29297V15.125H2.91797C2.76878 15.125 2.62571 15.0657 2.52022 14.9602C2.41473 14.8548 2.35547 14.7117 2.35547 14.5625V8.375C2.35547 8.22582 2.41473 8.08274 2.52022 7.97725C2.62571 7.87176 2.76878 7.8125 2.91797 7.8125V7.8125Z" stroke="#222222" stroke-linecap="round" stroke-linejoin="round"/>
<path d="M6.29297 7.8125L9.10547 2.1875C9.70221 2.1875 10.2745 2.42455 10.6965 2.84651C11.1184 3.26847 11.3555 3.84076 11.3555 4.4375V6.125H15.7078C15.8673 6.12461 16.0251 6.15835 16.1705 6.22397C16.3159 6.2896 16.4455 6.38557 16.5508 6.50546C16.656 6.62534 16.7344 6.76636 16.7806 6.91903C16.8268 7.07171 16.8398 7.2325 16.8187 7.39062L15.975 14.1406C15.9409 14.4116 15.8093 14.6609 15.6049 14.842C15.4005 15.0231 15.1372 15.1237 14.8641 15.125H6.29297" stroke="#222222" stroke-linecap="round" stroke-linejoin="round"/>
</svg>
