<svg width="18" height="19" viewBox="0 0 18 19" fill="none" xmlns="http://www.w3.org/2000/svg">
<path d="M9 11.6094C10.7086 11.6094 12.0938 10.2243 12.0938 8.51562C12.0938 6.80699 10.7086 5.42188 9 5.42188C7.29137 5.42188 5.90625 6.80699 5.90625 8.51562C5.90625 10.2243 7.29137 11.6094 9 11.6094Z" fill="black"/>
<path d="M9 1.76562C7.55373 1.76563 6.13993 2.1945 4.9374 2.998C3.73486 3.80151 2.7976 4.94357 2.24413 6.27975C1.69067 7.61594 1.54586 9.08624 1.82801 10.5047C2.11017 11.9232 2.80661 13.2262 3.82928 14.2488C4.85196 15.2715 6.15492 15.968 7.57341 16.2501C8.99189 16.5323 10.4622 16.3875 11.7984 15.834C13.1346 15.2805 14.2766 14.3433 15.0801 13.1407C15.8836 11.9382 16.3125 10.5244 16.3125 9.07812C16.3088 7.13987 15.5372 5.28207 14.1666 3.91151C12.7961 2.54096 10.9383 1.76934 9 1.76562ZM13.6266 13.1844C13.1712 12.5312 12.5845 11.9804 11.9039 11.5672C11.1225 12.3158 10.0822 12.7337 9 12.7337C7.91785 12.7337 6.87751 12.3158 6.0961 11.5672C5.41552 11.9804 4.82877 12.5312 4.37344 13.1844C3.58156 12.2927 3.06426 11.1911 2.88377 10.0123C2.70329 8.83342 2.86732 7.62754 3.35612 6.53974C3.84493 5.45194 4.63768 4.52858 5.63897 3.88078C6.64026 3.23298 7.80743 2.88834 9 2.88834C10.1926 2.88834 11.3597 3.23298 12.361 3.88078C13.3623 4.52858 14.1551 5.45194 14.6439 6.53974C15.1327 7.62754 15.2967 8.83342 15.1162 10.0123C14.9358 11.1911 14.4184 12.2927 13.6266 13.1844Z" fill="black"/>
</svg>
